<?xml version="1.0" standalone="no"?>
<!DOCTYPE svg PUBLIC "-//W3C//DTD SVG 1.1//EN" "http://www.w3.org/Graphics/SVG/1.1/DTD/svg11.dtd">
<svg version="1.1" xmlns="http://www.w3.org/2000/svg" viewBox="0 0 1108.3902786803371 914.1114180563204" width="3325.170836041011" height="2742.3342541689613"><!-- svg-source:excalidraw --><metadata></metadata><defs><style class="style-fonts">
      </style></defs><rect x="0" y="0" width="1108.3902786803371" height="914.1114180563204" fill="#ffffff"></rect><g stroke-linecap="round" transform="translate(10 10) rotate(0 147.5 93.33333333333337)"><path d="M32 0 C84.74 0, 137.48 0, 263 0 C284.33 0, 295 10.67, 295 32 C295 62.01, 295 92.02, 295 154.67 C295 176, 284.33 186.67, 263 186.67 C179.56 186.67, 96.12 186.67, 32 186.67 C10.67 186.67, 0 176, 0 154.67 C0 119.49, 0 84.31, 0 32 C0 10.67, 10.67 0, 32 0" stroke="none" stroke-width="0" fill="#b2f2bb"></path><path d="M32 0 C113.06 0, 194.12 0, 263 0 M32 0 C87.07 0, 142.15 0, 263 0 M263 0 C284.33 0, 295 10.67, 295 32 M263 0 C284.33 0, 295 10.67, 295 32 M295 32 C295 75.78, 295 119.55, 295 154.67 M295 32 C295 78.59, 295 125.18, 295 154.67 M295 154.67 C295 176, 284.33 186.67, 263 186.67 M295 154.67 C295 176, 284.33 186.67, 263 186.67 M263 186.67 C191.39 186.67, 119.78 186.67, 32 186.67 M263 186.67 C205.19 186.67, 147.38 186.67, 32 186.67 M32 186.67 C10.67 186.67, 0 176, 0 154.67 M32 186.67 C10.67 186.67, 0 176, 0 154.67 M0 154.67 C0 118.83, 0 82.99, 0 32 M0 154.67 C0 122.34, 0 90.01, 0 32 M0 32 C0 10.67, 10.67 0, 32 0 M0 32 C0 10.67, 10.67 0, 32 0" stroke="#1e1e1e" stroke-width="4" fill="none"></path></g><g transform="translate(110.4609375 82.63333333333337) rotate(0 47.0390625 20.699999999999996)"><text x="47.0390625" y="30.420703125" font-family="Helvetica, sans-serif, Segoe UI Emoji" font-size="36px" fill="#1e1e1e" text-anchor="middle" style="white-space: pre;" direction="ltr" dominant-baseline="alphabetic">App 1</text></g><g stroke-linecap="round" transform="translate(11.833333333333258 395.66666666666674) rotate(0 147.5 93.33333333333337)"><path d="M32 0 C112.42 0, 192.83 0, 263 0 C284.33 0, 295 10.67, 295 32 C295 63.41, 295 94.81, 295 154.67 C295 176, 284.33 186.67, 263 186.67 C198.31 186.67, 133.63 186.67, 32 186.67 C10.67 186.67, 0 176, 0 154.67 C0 120.34, 0 86, 0 32 C0 10.67, 10.67 0, 32 0" stroke="none" stroke-width="0" fill="#96f2d7"></path><path d="M32 0 C87.48 0, 142.96 0, 263 0 M32 0 C87.21 0, 142.41 0, 263 0 M263 0 C284.33 0, 295 10.67, 295 32 M263 0 C284.33 0, 295 10.67, 295 32 M295 32 C295 58.09, 295 84.18, 295 154.67 M295 32 C295 61.45, 295 90.89, 295 154.67 M295 154.67 C295 176, 284.33 186.67, 263 186.67 M295 154.67 C295 176, 284.33 186.67, 263 186.67 M263 186.67 C206.36 186.67, 149.72 186.67, 32 186.67 M263 186.67 C198.86 186.67, 134.73 186.67, 32 186.67 M32 186.67 C10.67 186.67, 0 176, 0 154.67 M32 186.67 C10.67 186.67, 0 176, 0 154.67 M0 154.67 C0 128.12, 0 101.57, 0 32 M0 154.67 C0 127.84, 0 101.01, 0 32 M0 32 C0 10.67, 10.67 0, 32 0 M0 32 C0 10.67, 10.67 0, 32 0" stroke="#1e1e1e" stroke-width="4" fill="none"></path></g><g transform="translate(112.29427083333326 468.3000000000001) rotate(0 47.0390625 20.700000000000017)"><text x="47.0390625" y="30.420703125" font-family="Helvetica, sans-serif, Segoe UI Emoji" font-size="36px" fill="#1e1e1e" text-anchor="middle" style="white-space: pre;" direction="ltr" dominant-baseline="alphabetic">App 2</text></g><g stroke-linecap="round" transform="translate(733.6666666666667 15.000000000000085) rotate(0 162.50000000000023 127.16961207701799)"><path d="M0 0 L325 0 L325 254.34 L0 254.34" stroke="none" stroke-width="0" fill="#512bd4"></path><path d="M0 0 C76.92 0, 153.83 0, 325 0 M0 0 C120.01 0, 240.02 0, 325 0 M325 0 C325 77.32, 325 154.63, 325 254.34 M325 0 C325 61.36, 325 122.72, 325 254.34 M325 254.34 C223.14 254.34, 121.29 254.34, 0 254.34 M325 254.34 C202.13 254.34, 79.25 254.34, 0 254.34 M0 254.34 C0 176.53, 0 98.72, 0 0 M0 254.34 C0 177.83, 0 101.33, 0 0" stroke="#1e1e1e" stroke-width="4" fill="none"></path></g><g transform="translate(808.1090494791672 121.46961207701807) rotate(0 88.0576171875 20.700000000000003)"><text x="88.0576171875" y="30.420703125" font-family="Helvetica, sans-serif, Segoe UI Emoji" font-size="36px" fill="#ffffff" text-anchor="middle" style="white-space: pre;" direction="ltr" dominant-baseline="alphabetic">Dashboard</text></g><g stroke-linecap="round" transform="translate(733.6912859753049 14.966865147249536) rotate(0 162.487386429013 27.14698651606632)"><path d="M0 0 L324.97 0 L324.97 54.29 L0 54.29" stroke="none" stroke-width="0" fill="#ffffff"></path><path d="M0 0 C98.88 0, 197.77 0, 324.97 0 M0 0 C74.28 0, 148.55 0, 324.97 0 M324.97 0 C324.97 11.15, 324.97 22.3, 324.97 54.29 M324.97 0 C324.97 21.09, 324.97 42.18, 324.97 54.29 M324.97 54.29 C237.91 54.29, 150.85 54.29, 0 54.29 M324.97 54.29 C200.57 54.29, 76.17 54.29, 0 54.29 M0 54.29 C0 40.82, 0 27.35, 0 0 M0 54.29 C0 41.42, 0 28.54, 0 0" stroke="#1e1e1e" stroke-width="4" fill="none"></path></g><g stroke-linecap="round" transform="translate(1018.240194696649 30.97418065811189) rotate(0 12.210232842850019 12.210232842850019)"><path d="M24.42 12.21 C24.42 12.92, 24.36 13.63, 24.23 14.33 C24.11 15.03, 23.93 15.72, 23.68 16.39 C23.44 17.05, 23.14 17.7, 22.78 18.32 C22.43 18.93, 22.02 19.52, 21.56 20.06 C21.11 20.6, 20.6 21.11, 20.06 21.56 C19.52 22.02, 18.93 22.43, 18.32 22.78 C17.7 23.14, 17.05 23.44, 16.39 23.68 C15.72 23.93, 15.03 24.11, 14.33 24.23 C13.63 24.36, 12.92 24.42, 12.21 24.42 C11.5 24.42, 10.79 24.36, 10.09 24.23 C9.39 24.11, 8.7 23.93, 8.03 23.68 C7.37 23.44, 6.72 23.14, 6.11 22.78 C5.49 22.43, 4.9 22.02, 4.36 21.56 C3.82 21.11, 3.31 20.6, 2.86 20.06 C2.4 19.52, 1.99 18.93, 1.64 18.32 C1.28 17.7, 0.98 17.05, 0.74 16.39 C0.49 15.72, 0.31 15.03, 0.19 14.33 C0.06 13.63, 0 12.92, 0 12.21 C0 11.5, 0.06 10.79, 0.19 10.09 C0.31 9.39, 0.49 8.7, 0.74 8.03 C0.98 7.37, 1.28 6.72, 1.64 6.11 C1.99 5.49, 2.4 4.9, 2.86 4.36 C3.31 3.82, 3.82 3.31, 4.36 2.86 C4.9 2.4, 5.49 1.99, 6.11 1.64 C6.72 1.28, 7.37 0.98, 8.03 0.74 C8.7 0.49, 9.39 0.31, 10.09 0.19 C10.79 0.06, 11.5 0, 12.21 0 C12.92 0, 13.63 0.06, 14.33 0.19 C15.03 0.31, 15.72 0.49, 16.39 0.74 C17.05 0.98, 17.7 1.28, 18.32 1.64 C18.93 1.99, 19.52 2.4, 20.06 2.86 C20.6 3.31, 21.11 3.82, 21.56 4.36 C22.02 4.9, 22.43 5.49, 22.78 6.11 C23.14 6.72, 23.44 7.37, 23.68 8.03 C23.93 8.7, 24.11 9.39, 24.23 10.09 C24.36 10.79, 24.39 11.86, 24.42 12.21 C24.45 12.56, 24.45 11.86, 24.42 12.21" stroke="none" stroke-width="0" fill="#1e1e1e"></path><path d="M24.42 12.21 C24.42 12.92, 24.36 13.63, 24.23 14.33 C24.11 15.03, 23.93 15.72, 23.68 16.39 C23.44 17.05, 23.14 17.7, 22.78 18.32 C22.43 18.93, 22.02 19.52, 21.56 20.06 C21.11 20.6, 20.6 21.11, 20.06 21.56 C19.52 22.02, 18.93 22.43, 18.32 22.78 C17.7 23.14, 17.05 23.44, 16.39 23.68 C15.72 23.93, 15.03 24.11, 14.33 24.23 C13.63 24.36, 12.92 24.42, 12.21 24.42 C11.5 24.42, 10.79 24.36, 10.09 24.23 C9.39 24.11, 8.7 23.93, 8.03 23.68 C7.37 23.44, 6.72 23.14, 6.11 22.78 C5.49 22.43, 4.9 22.02, 4.36 21.56 C3.82 21.11, 3.31 20.6, 2.86 20.06 C2.4 19.52, 1.99 18.93, 1.64 18.32 C1.28 17.7, 0.98 17.05, 0.74 16.39 C0.49 15.72, 0.31 15.03, 0.19 14.33 C0.06 13.63, 0 12.92, 0 12.21 C0 11.5, 0.06 10.79, 0.19 10.09 C0.31 9.39, 0.49 8.7, 0.74 8.03 C0.98 7.37, 1.28 6.72, 1.64 6.11 C1.99 5.49, 2.4 4.9, 2.86 4.36 C3.31 3.82, 3.82 3.31, 4.36 2.86 C4.9 2.4, 5.49 1.99, 6.11 1.64 C6.72 1.28, 7.37 0.98, 8.03 0.74 C8.7 0.49, 9.39 0.31, 10.09 0.19 C10.79 0.06, 11.5 0, 12.21 0 C12.92 0, 13.63 0.06, 14.33 0.19 C15.03 0.31, 15.72 0.49, 16.39 0.74 C17.05 0.98, 17.7 1.28, 18.32 1.64 C18.93 1.99, 19.52 2.4, 20.06 2.86 C20.6 3.31, 21.11 3.82, 21.56 4.36 C22.02 4.9, 22.43 5.49, 22.78 6.11 C23.14 6.72, 23.44 7.37, 23.68 8.03 C23.93 8.7, 24.11 9.39, 24.23 10.09 C24.36 10.79, 24.39 11.86, 24.42 12.21 C24.45 12.56, 24.45 11.86, 24.42 12.21" stroke="#1e1e1e" stroke-width="2" fill="none"></path></g><g stroke-linecap="round" transform="translate(738.2329381991933 694.4519860798302) rotate(0 161.2087229062929 104.82971598824508)"><path d="M7.86 8.16 C7.86 8.16, 7.86 8.16, 7.86 8.16 M7.86 8.16 C7.86 8.16, 7.86 8.16, 7.86 8.16 M0.91 40.54 C12.03 27.75, 23.16 14.95, 36.34 -0.21 M0.91 40.54 C11.76 28.06, 22.61 15.58, 36.34 -0.21 M1.18 64.62 C21.15 41.65, 41.13 18.67, 57.6 -0.28 M1.18 64.62 C16.63 46.85, 32.08 29.07, 57.6 -0.28 M0.79 89.46 C19.87 67.51, 38.96 45.55, 78.2 0.41 M0.79 89.46 C23.91 62.86, 47.03 36.26, 78.2 0.41 M1.05 113.54 C28.93 81.47, 56.82 49.4, 99.46 0.34 M1.05 113.54 C24.52 86.55, 47.99 59.55, 99.46 0.34 M0.66 138.38 C44.27 88.21, 87.88 38.04, 120.72 0.27 M0.66 138.38 C28.46 106.41, 56.25 74.43, 120.72 0.27 M0.93 162.46 C31.56 127.22, 62.2 91.98, 141.98 0.2 M0.93 162.46 C39.23 118.41, 77.52 74.35, 141.98 0.2 M1.2 186.54 C38.96 143.1, 76.73 99.66, 163.24 0.13 M1.2 186.54 C63.21 115.21, 125.22 43.87, 163.24 0.13 M8.68 202.32 C58.05 145.53, 107.42 88.73, 184.5 0.06 M8.68 202.32 C78.07 122.5, 147.46 42.68, 184.5 0.06 M24.04 209.05 C85.35 138.51, 146.67 67.97, 205.76 -0.01 M24.04 209.05 C81.75 142.65, 139.47 76.26, 205.76 -0.01 M44.64 209.73 C101.52 144.3, 158.4 78.86, 227.02 -0.08 M44.64 209.73 C102.47 143.2, 160.3 76.68, 227.02 -0.08 M65.24 210.42 C114.71 153.51, 164.18 96.6, 248.28 -0.15 M65.24 210.42 C118.18 149.52, 171.12 88.62, 248.28 -0.15 M86.5 210.35 C134.21 155.47, 181.91 100.6, 269.54 -0.22 M86.5 210.35 C129.61 160.76, 172.71 111.18, 269.54 -0.22 M107.76 210.28 C169.64 139.1, 231.52 67.92, 290.8 -0.28 M107.76 210.28 C151.32 160.18, 194.87 110.08, 290.8 -0.28 M129.02 210.21 C198.82 129.92, 268.62 49.63, 308.13 4.17 M129.02 210.21 C170.94 161.99, 212.86 113.77, 308.13 4.17 M150.28 210.14 C211.17 140.1, 272.06 70.05, 319.55 15.43 M150.28 210.14 C216.59 133.87, 282.89 57.59, 319.55 15.43 M171.54 210.07 C213.12 162.25, 254.69 114.42, 323.09 35.73 M171.54 210.07 C214.65 160.49, 257.75 110.9, 323.09 35.73 M192.8 210 C227.63 169.94, 262.45 129.88, 323.36 59.82 M192.8 210 C227.53 170.05, 262.26 130.11, 323.36 59.82 M214.07 209.93 C236.09 184.6, 258.11 159.27, 322.97 84.65 M214.07 209.93 C240.83 179.14, 267.6 148.35, 322.97 84.65 M235.33 209.87 C261.96 179.22, 288.6 148.58, 323.24 108.73 M235.33 209.87 C258.5 183.2, 281.68 156.54, 323.24 108.73 M256.59 209.8 C281.33 181.33, 306.08 152.85, 322.85 133.57 M256.59 209.8 C274.14 189.61, 291.69 169.42, 322.85 133.57 M277.85 209.73 C288.03 198.01, 298.22 186.29, 323.11 157.65 M277.85 209.73 C290.3 195.4, 302.76 181.07, 323.11 157.65 M299.76 208.9 C306.47 201.18, 313.19 193.46, 322.07 183.24 M299.76 208.9 C308.14 199.26, 316.53 189.62, 322.07 183.24" stroke="#a5d8ff" stroke-width="2" fill="none"></path><path d="M32 0 C90.94 0, 149.88 0, 290.42 0 M32 0 C92.67 0, 153.34 0, 290.42 0 M290.42 0 C311.75 0, 322.42 10.67, 322.42 32 M290.42 0 C311.75 0, 322.42 10.67, 322.42 32 M322.42 32 C322.42 78.13, 322.42 124.26, 322.42 177.66 M322.42 32 C322.42 66.32, 322.42 100.65, 322.42 177.66 M322.42 177.66 C322.42 198.99, 311.75 209.66, 290.42 209.66 M322.42 177.66 C322.42 198.99, 311.75 209.66, 290.42 209.66 M290.42 209.66 C226.06 209.66, 161.7 209.66, 32 209.66 M290.42 209.66 C205.74 209.66, 121.05 209.66, 32 209.66 M32 209.66 C10.67 209.66, 0 198.99, 0 177.66 M32 209.66 C10.67 209.66, 0 198.99, 0 177.66 M0 177.66 C0 129.31, 0 80.96, 0 32 M0 177.66 C0 120.89, 0 64.12, 0 32 M0 32 C0 10.67, 10.67 0, 32 0 M0 32 C0 10.67, 10.67 0, 32 0" stroke="#1e1e1e" stroke-width="4" fill="none"></path></g><g transform="translate(822.4055282929864 757.8817020680754) rotate(0 77.0361328125 41.39999999999998)"><text x="77.0361328125" y="30.420703125" font-family="Helvetica, sans-serif, Segoe UI Emoji" font-size="36px" fill="#1e1e1e" text-anchor="middle" style="white-space: pre;" direction="ltr" dominant-baseline="alphabetic">Resource</text><text x="77.0361328125" y="71.820703125" font-family="Helvetica, sans-serif, Segoe UI Emoji" font-size="36px" fill="#1e1e1e" text-anchor="middle" style="white-space: pre;" direction="ltr" dominant-baseline="alphabetic">Server</text></g><g stroke-linecap="round"><g transform="translate(895.0370511900135 270.88602912282084) rotate(0 0 209.67865912318914)"><path d="M0 0 C0 69.89, 0 349.46, 0 419.36" stroke="#1e1e1e" stroke-width="4.5" fill="none" stroke-dasharray="8 12"></path></g><g transform="translate(895.0370511900135 270.88602912282084) rotate(0 0 209.67865912318914)"><path d="M0 419.36 L-6.34 405.76 L6.34 405.76 L0 419.36" stroke="none" stroke-width="0" fill="#1e1e1e" fill-rule="evenodd"></path><path d="M0 419.36 C-1.32 416.53, -2.64 413.7, -6.34 405.76 M-6.34 405.76 C-1.6 405.76, 3.14 405.76, 6.34 405.76 M6.34 405.76 C4.29 410.16, 2.23 414.57, 0 419.36 M0 419.36 C0 419.36, 0 419.36, 0 419.36" stroke="#1e1e1e" stroke-width="4.5" fill="none"></path></g></g><mask></mask><g mask="url(#mask-CyDmm6nt6zDVGWlaBdw5_)" stroke-linecap="round"><g transform="translate(305.1461056544256 99.71699285419612) rotate(0 212.25246985557783 0)"><path d="M0 0 C70.75 0, 353.75 0, 424.5 0 M0 0 C70.75 0, 353.75 0, 424.5 0" stroke="#1e1e1e" stroke-width="4" fill="none"></path></g><g transform="translate(305.1461056544256 99.71699285419612) rotate(0 212.25246985557783 0)"><path d="M424.5 0 L410.91 6.34 L410.91 -6.34 L424.5 0" stroke="none" stroke-width="0" fill="#1e1e1e" fill-rule="evenodd"></path><path d="M424.5 0 C419.88 2.16, 415.26 4.31, 410.91 6.34 M424.5 0 C421.44 1.43, 418.38 2.85, 410.91 6.34 M410.91 6.34 C410.91 1.86, 410.91 -2.61, 410.91 -6.34 M410.91 6.34 C410.91 1.81, 410.91 -2.73, 410.91 -6.34 M410.91 -6.34 C415.41 -4.24, 419.9 -2.15, 424.5 0 M410.91 -6.34 C413.71 -5.03, 416.52 -3.72, 424.5 0 M424.5 0 C424.5 0, 424.5 0, 424.5 0 M424.5 0 C424.5 0, 424.5 0, 424.5 0" stroke="#1e1e1e" stroke-width="4" fill="none"></path></g></g><mask id="mask-CyDmm6nt6zDVGWlaBdw5_"><rect x="0" y="0" fill="#fff" width="829.6510453655812" height="199.71699285419612"></rect><rect x="470.38588019750387" y="79.01699285419613" fill="#000" width="94.025390625" height="41.4" opacity="1"></rect></mask><g transform="translate(470.38588019750387 79.01699285419612) rotate(0 47.01269531249977 20.700000000000003)"><text x="47.0126953125" y="30.420703125" font-family="Helvetica, sans-serif, Segoe UI Emoji" font-size="36px" fill="#1e1e1e" text-anchor="middle" style="white-space: pre;" direction="ltr" dominant-baseline="alphabetic">OTLP</text></g><g mask="url(#mask-41y3KOCnsK1DPq4K9Qph7)" stroke-linecap="round"><g transform="translate(307.59611758761275 489.05082393958344) rotate(0 211.05314874827752 -188.14074358286547)"><path d="M0 0 C70.35 -62.71, 351.76 -313.57, 422.11 -376.28 M0 0 C70.35 -62.71, 351.76 -313.57, 422.11 -376.28" stroke="#1e1e1e" stroke-width="4" fill="none"></path></g><g transform="translate(307.59611758761275 489.05082393958344) rotate(0 211.05314874827752 -188.14074358286547)"><path d="M422.11 -376.28 L416.18 -362.5 L407.74 -371.97 L422.11 -376.28" stroke="none" stroke-width="0" fill="#1e1e1e" fill-rule="evenodd"></path><path d="M422.11 -376.28 C419.89 -371.13, 417.67 -365.97, 416.18 -362.5 M422.11 -376.28 C420.25 -371.96, 418.39 -367.64, 416.18 -362.5 M416.18 -362.5 C413.75 -365.22, 411.33 -367.94, 407.74 -371.97 M416.18 -362.5 C413.52 -365.48, 410.87 -368.46, 407.74 -371.97 M407.74 -371.97 C412.32 -373.34, 416.9 -374.72, 422.11 -376.28 M407.74 -371.97 C412.42 -373.37, 417.11 -374.78, 422.11 -376.28 M422.11 -376.28 C422.11 -376.28, 422.11 -376.28, 422.11 -376.28 M422.11 -376.28 C422.11 -376.28, 422.11 -376.28, 422.11 -376.28" stroke="#1e1e1e" stroke-width="4" fill="none"></path></g></g><mask id="mask-41y3KOCnsK1DPq4K9Qph7"><rect x="0" y="0" fill="#fff" width="829.7024150841678" height="965.3323111053144"></rect><rect x="471.63657102339016" y="280.2100803567181" fill="#000" width="94.025390625" height="41.4" opacity="1"></rect></mask><g transform="translate(471.6365710233904 280.210080356718) rotate(0 47.012695312500114 20.699999999999932)"><text x="47.0126953125" y="30.420703125" font-family="Helvetica, sans-serif, Segoe UI Emoji" font-size="36px" fill="#1e1e1e" text-anchor="middle" style="white-space: pre;" direction="ltr" dominant-baseline="alphabetic">OTLP</text></g><g stroke-linecap="round" transform="translate(732.879520931788 306.04703238433063) rotate(0 162.68511752605377 34.88981884972861)"><path d="M17.44 0 C106.05 0, 194.65 0, 307.93 0 C319.56 0, 325.37 5.81, 325.37 17.44 C325.37 26.76, 325.37 36.07, 325.37 52.33 C325.37 63.96, 319.56 69.78, 307.93 69.78 C234.13 69.78, 160.33 69.78, 17.44 69.78 C5.81 69.78, 0 63.96, 0 52.33 C0 43.34, 0 34.35, 0 17.44 C0 5.81, 5.81 0, 17.44 0" stroke="none" stroke-width="0" fill="#244c5a"></path><path d="M17.44 0 C103.55 0, 189.66 0, 307.93 0 M17.44 0 C90.59 0, 163.73 0, 307.93 0 M307.93 0 C319.56 0, 325.37 5.81, 325.37 17.44 M307.93 0 C319.56 0, 325.37 5.81, 325.37 17.44 M325.37 17.44 C325.37 27.73, 325.37 38.02, 325.37 52.33 M325.37 17.44 C325.37 26.14, 325.37 34.84, 325.37 52.33 M325.37 52.33 C325.37 63.96, 319.56 69.78, 307.93 69.78 M325.37 52.33 C325.37 63.96, 319.56 69.78, 307.93 69.78 M307.93 69.78 C232.41 69.78, 156.9 69.78, 17.44 69.78 M307.93 69.78 C202.55 69.78, 97.18 69.78, 17.44 69.78 M17.44 69.78 C5.81 69.78, 0 63.96, 0 52.33 M17.44 69.78 C5.81 69.78, 0 63.96, 0 52.33 M0 52.33 C0 44.6, 0 36.86, 0 17.44 M0 52.33 C0 39.33, 0 26.33, 0 17.44 M0 17.44 C0 5.81, 5.81 0, 17.44 0 M0 17.44 C0 5.81, 5.81 0, 17.44 0" stroke="#1e1e1e" stroke-width="1" fill="none"></path></g><g transform="translate(776.516786895342 320.23685123405926) rotate(0 119.0478515625 20.69999999999999)"><text x="119.0478515625" y="30.420703125" font-family="Helvetica, sans-serif, Segoe UI Emoji" font-size="36px" fill="#d3f3ee" text-anchor="middle" style="white-space: pre;" direction="ltr" dominant-baseline="alphabetic">gRPC Protocol</text></g><g stroke-linecap="round" transform="translate(691.0238531185953 422.01052681550357) rotate(0 203.68321278087092 105.98632292958104)"><path d="M0 0 L407.37 0 L407.37 211.97 L0 211.97" stroke="none" stroke-width="0" fill="#ffffff"></path><path d="M0 0 C107.06 0, 214.12 0, 407.37 0 M0 0 C130.82 0, 261.65 0, 407.37 0 M407.37 0 C407.37 43.93, 407.37 87.85, 407.37 211.97 M407.37 0 C407.37 43.48, 407.37 86.96, 407.37 211.97 M407.37 211.97 C275.6 211.97, 143.84 211.97, 0 211.97 M407.37 211.97 C286.1 211.97, 164.83 211.97, 0 211.97 M0 211.97 C0 159.2, 0 106.43, 0 0 M0 211.97 C0 160.46, 0 108.95, 0 0" stroke="#1e1e1e" stroke-width="1" fill="none"></path></g><g transform="translate(718.319370586966 465.89684974508464) rotate(0 176.3876953125 62.10000000000002)"><text x="176.3876953125" y="30.420703125" font-family="Helvetica, sans-serif, Segoe UI Emoji" font-size="36px" fill="#1e1e1e" text-anchor="middle" style="white-space: pre;" direction="ltr" dominant-baseline="alphabetic">• Resources</text><text x="176.3876953125" y="71.820703125" font-family="Helvetica, sans-serif, Segoe UI Emoji" font-size="36px" fill="#1e1e1e" text-anchor="middle" style="white-space: pre;" direction="ltr" dominant-baseline="alphabetic">• Console logs</text><text x="176.3876953125" y="113.220703125" font-family="Helvetica, sans-serif, Segoe UI Emoji" font-size="36px" fill="#1e1e1e" text-anchor="middle" style="white-space: pre;" direction="ltr" dominant-baseline="alphabetic">• Command execution</text></g></svg>