<svg xmlns="http://www.w3.org/2000/svg" width="1500" height="1500" viewBox="0 0 1500 1500">
    <path fill="#fff" d="M1500 750c0 414.219-335.781 750-750 750S0 1164.219 0 750 335.781 0 750 0s750 335.781 750 750m0 0"/>
    <path d="M767.637 77.203a673.5 673.5 0 0 0-280.864 56.024c-341.07 148.648-497.046 545.66-348.398 886.734 125.8 286.617 432.426 448.848 740.16 391.562 13.125-41.82 23.863-87.671 23.863-137.671 0-7.09-.195-14.204-.582-21.508 0 0 24.082-41.055 43.028-94.547 23.476-66.117 11.05-138.953-29.61-196.586-2.363-3.164-4.722-6.7-7.304-10.25-239.414 0-357.828-217.11-387.828-349.164-12.446-54.277-22.524-59.668-56.43-59.668-62.695 0-107.953-26-107.953-26-57.574 26.39-83.356 15.633-75.617-11.91-25.063-2.754-24.551-31.207-9.282-57.364 19.121-32.777 58.227-55.058 105-55.058h25.059c51.723 0 62.36-27.05 115.668-21.309a155 155 0 0 1 23.082 3.946c14.8-16.973 31.582-24.082 51.918-22.715 3.156.41 5.133 3.168 4.527 6.133l-4.926 22.886c-1.773 8.5.59 17.367 6.704 23.09 43.027 40.274 67.714 108.969 95.332 170.938 44.8 91.37 152.964 218.28 326.464 55.449 121.993-114.488 195.68-209.942 316.817-219.336-118.477-202.774-334-329.2-568.828-333.676M481.602 408.656c-17.774 0-35.508 14.254-29.473 16.813 1.351.566 3.633.957 6.25 1.23 1.875 11.367 11.406 20.156 23.32 20.156 11.895 0 21.29-8.789 23.125-20.156 2.617-.273 4.88-.664 6.23-1.23 6.036-2.559-11.699-16.82-29.449-16.82m629.293 647.703c-14.398.347-27.324 9.488-31.636 23.492v.195c-21.528 69.082-63.364 158.281-63.364 158.281s-41.625 73.73-65.199 156.328a674 674 0 0 0 74.414-26.308 673.2 673.2 0 0 0 133.871-78.012 434 434 0 0 0-22.398-39.566s-13.813-61.387-40.277-128.301a715 715 0 0 0 11.25-33.55l.214-.786c.782-1.578 2.555-2.172 4.532-2.172h.195c13.809 2.172 28.422 4.344 45.39 6.313 5.133.39 10.47.8 15.801 1.382 6.504.59 12.813 1.196 19.332 1.586 1.567 62.09 28.524 121.446 35.336 135.606a673.9 673.9 0 0 0 123.907-167.031c-47.97 5.464-106.66 7.328-175.7.43-5.53-.59-11.054-1.173-16.586-1.583-15.195-1.777-29.414-3.75-42.832-5.918a35 35 0 0 0-6.25-.386"/>
</svg>
