<?xml version="1.0" standalone="no"?>
<!DOCTYPE svg PUBLIC "-//W3C//DTD SVG 1.1//EN" "http://www.w3.org/Graphics/SVG/1.1/DTD/svg11.dtd">
<svg version="1.1" xmlns="http://www.w3.org/2000/svg" viewBox="0 0 1219.837101231763 607" width="1219.837101231763" height="607" filter="invert(93%) hue-rotate(180deg)"><!-- svg-source:excalidraw --><metadata></metadata><defs><style class="style-fonts">
      </style></defs><rect x="0" y="0" width="1219.837101231763" height="607" fill="#ffffff"></rect><g stroke-linecap="round" transform="translate(10 44) rotate(0 599.9185506158815 276.5)"><path d="M7.86 8.16 C7.86 8.16, 7.86 8.16, 7.86 8.16 M7.86 8.16 C7.86 8.16, 7.86 8.16, 7.86 8.16 M0.78 28.5 C6.77 21.61, 12.76 14.72, 25.05 0.58 M0.78 28.5 C8.16 20.01, 15.55 11.51, 25.05 0.58 M0.26 41.3 C12.84 26.82, 25.43 12.33, 36.34 -0.21 M0.26 41.3 C7.72 32.71, 15.19 24.11, 36.34 -0.21 M0.39 53.34 C13.13 38.68, 25.87 24.02, 46.97 -0.25 M0.39 53.34 C18.21 32.84, 36.03 12.33, 46.97 -0.25 M0.52 65.38 C20.58 42.31, 40.63 19.24, 57.6 -0.28 M0.52 65.38 C15.29 48.38, 30.07 31.39, 57.6 -0.28 M0 78.17 C18.6 56.78, 37.2 35.38, 67.57 0.44 M0 78.17 C18.97 56.35, 37.94 34.53, 67.57 0.44 M0.13 90.22 C20.89 66.33, 41.65 42.45, 78.2 0.41 M0.13 90.22 C23.19 63.69, 46.24 37.17, 78.2 0.41 M0.26 102.26 C30.16 67.87, 60.05 33.48, 88.83 0.37 M0.26 102.26 C21.15 78.23, 42.04 54.2, 88.83 0.37 M0.4 114.3 C26.49 84.29, 52.57 54.28, 99.46 0.34 M0.4 114.3 C30.72 79.41, 61.05 44.52, 99.46 0.34 M0.53 126.34 C26.97 95.92, 53.41 65.5, 110.09 0.3 M0.53 126.34 C29.57 92.93, 58.61 59.53, 110.09 0.3 M0.01 139.13 C31.37 103.06, 62.73 66.98, 120.72 0.27 M0.01 139.13 C25.45 109.87, 50.88 80.61, 120.72 0.27 M0.14 151.17 C47.77 96.38, 95.4 41.59, 131.35 0.23 M0.14 151.17 C34.93 111.16, 69.71 71.15, 131.35 0.23 M0.27 163.22 C30.99 127.88, 61.7 92.55, 141.98 0.2 M0.27 163.22 C51.03 104.83, 101.79 46.44, 141.98 0.2 M0.41 175.26 C57.35 109.75, 114.29 44.25, 152.61 0.16 M0.41 175.26 C47.96 120.55, 95.52 65.84, 152.61 0.16 M0.54 187.3 C39.74 142.2, 78.94 97.11, 163.24 0.13 M0.54 187.3 C37.52 144.76, 74.5 102.22, 163.24 0.13 M0.02 200.09 C59.4 131.78, 118.78 63.47, 173.87 0.09 M0.02 200.09 C63.17 127.45, 126.31 54.81, 173.87 0.09 M0.15 212.13 C52.59 151.81, 105.02 91.5, 184.5 0.06 M0.15 212.13 C60.34 142.89, 120.53 73.66, 184.5 0.06 M0.28 224.17 C44.64 173.15, 88.99 122.13, 195.13 0.03 M0.28 224.17 C69.11 145, 137.94 65.82, 195.13 0.03 M0.42 236.22 C50.65 178.43, 100.88 120.64, 205.76 -0.01 M0.42 236.22 C60.78 166.77, 121.15 97.33, 205.76 -0.01 M-0.11 249.01 C84.29 151.92, 168.69 54.83, 216.39 -0.04 M-0.11 249.01 C64.41 174.8, 128.92 100.59, 216.39 -0.04 M0.03 261.05 C60.01 192.05, 119.99 123.05, 227.02 -0.08 M0.03 261.05 C90.28 157.23, 180.53 53.41, 227.02 -0.08 M0.16 273.09 C66.9 196.31, 133.65 119.54, 237.65 -0.11 M0.16 273.09 C93.41 165.82, 186.66 58.55, 237.65 -0.11 M0.29 285.13 C57.64 219.16, 114.99 153.19, 248.28 -0.15 M0.29 285.13 C58.53 218.14, 116.77 151.14, 248.28 -0.15 M0.43 297.17 C90.74 193.28, 181.06 89.39, 258.91 -0.18 M0.43 297.17 C81.11 204.36, 161.79 111.55, 258.91 -0.18 M-0.1 309.97 C75.14 223.42, 150.37 136.87, 269.54 -0.22 M-0.1 309.97 C62.73 237.7, 125.55 165.43, 269.54 -0.22 M0.04 322.01 C94.84 212.96, 189.64 103.9, 280.17 -0.25 M0.04 322.01 C87.15 221.8, 174.27 121.58, 280.17 -0.25 M0.17 334.05 C83.34 238.38, 166.51 142.7, 290.8 -0.28 M0.17 334.05 C101.58 217.39, 202.99 100.74, 290.8 -0.28 M0.3 346.09 C116.55 212.37, 232.79 78.65, 300.78 0.44 M0.3 346.09 C97.49 234.29, 194.68 122.49, 300.78 0.44 M0.44 358.13 C117.56 223.4, 234.69 88.66, 311.41 0.4 M0.44 358.13 C115.26 226.05, 230.08 93.96, 311.41 0.4 M-0.09 370.93 C105.85 249.07, 211.78 127.2, 322.04 0.37 M-0.09 370.93 C84.79 273.29, 169.66 175.66, 322.04 0.37 M0.05 382.97 C73.13 298.9, 146.21 214.83, 332.67 0.33 M0.05 382.97 C69.97 302.53, 139.89 222.1, 332.67 0.33 M0.18 395.01 C135.31 239.56, 270.44 84.11, 343.3 0.3 M0.18 395.01 C111.59 266.84, 223.01 138.68, 343.3 0.3 M0.31 407.05 C116.99 272.83, 233.66 138.62, 353.93 0.26 M0.31 407.05 C77.34 318.44, 154.37 229.83, 353.93 0.26 M0.45 419.09 C112.04 290.71, 223.64 162.33, 364.56 0.23 M0.45 419.09 C102.56 301.62, 204.68 184.15, 364.56 0.23 M-0.08 431.89 C137.74 273.35, 275.55 114.82, 375.19 0.19 M-0.08 431.89 C100.4 316.3, 200.88 200.71, 375.19 0.19 M0.06 443.93 C149.31 272.23, 298.56 100.54, 385.82 0.16 M0.06 443.93 C148.07 273.66, 296.09 103.38, 385.82 0.16 M0.19 455.97 C94.02 348.03, 187.85 240.09, 396.45 0.12 M0.19 455.97 C105.32 335.03, 210.46 214.08, 396.45 0.12 M0.32 468.01 C102.18 350.84, 204.03 233.67, 407.08 0.09 M0.32 468.01 C108.99 343.01, 217.65 218, 407.08 0.09 M0.46 480.05 C162.81 293.28, 325.16 106.52, 417.71 0.06 M0.46 480.05 C102.92 362.18, 205.38 244.31, 417.71 0.06 M-0.07 492.85 C131.74 341.22, 263.56 189.58, 428.34 0.02 M-0.07 492.85 C104.11 373, 208.29 253.16, 428.34 0.02 M0.07 504.89 C140.52 343.31, 280.98 181.74, 438.97 -0.01 M0.07 504.89 C119.98 366.95, 239.89 229, 438.97 -0.01 M0.2 516.93 C119.16 380.09, 238.11 243.24, 449.6 -0.05 M0.2 516.93 C91.81 411.54, 183.42 306.16, 449.6 -0.05 M0.33 528.97 C124.81 385.78, 249.28 242.59, 460.23 -0.08 M0.33 528.97 C157.92 347.68, 315.51 166.4, 460.23 -0.08 M3.75 537.24 C107.8 417.53, 211.86 297.83, 470.86 -0.12 M3.75 537.24 C153.65 364.79, 303.56 192.34, 470.86 -0.12 M7.82 544.75 C162.93 366.31, 318.05 187.86, 481.49 -0.15 M7.82 544.75 C139.51 393.25, 271.2 241.76, 481.49 -0.15 M14.51 549.24 C195.27 341.3, 376.04 133.35, 492.12 -0.19 M14.51 549.24 C179.68 359.23, 344.86 169.22, 492.12 -0.19 M22.52 552.23 C177.27 374.2, 332.02 196.18, 502.75 -0.22 M22.52 552.23 C134.45 423.46, 246.38 294.7, 502.75 -0.22 M32.49 552.95 C188.18 373.85, 343.87 194.74, 513.38 -0.25 M32.49 552.95 C181.43 381.62, 330.36 210.28, 513.38 -0.25 M43.12 552.91 C202.57 369.48, 362.03 186.05, 523.35 0.47 M43.12 552.91 C231.03 336.74, 418.94 120.58, 523.35 0.47 M53.75 552.88 C219.83 361.82, 385.91 170.77, 533.98 0.43 M53.75 552.88 C161.02 429.48, 268.29 306.08, 533.98 0.43 M64.38 552.84 C246.5 343.34, 428.62 133.83, 544.61 0.4 M64.38 552.84 C192.04 405.99, 319.7 259.13, 544.61 0.4 M74.35 553.56 C231.73 372.52, 389.1 191.49, 555.24 0.36 M74.35 553.56 C255.8 344.84, 437.24 136.11, 555.24 0.36 M84.98 553.53 C244.41 370.13, 403.85 186.72, 565.87 0.33 M84.98 553.53 C277.12 332.51, 469.25 111.48, 565.87 0.33 M95.61 553.5 C213.86 417.47, 332.1 281.45, 576.5 0.29 M95.61 553.5 C211.86 419.77, 328.1 286.05, 576.5 0.29 M106.24 553.46 C203.36 441.74, 300.48 330.02, 587.14 0.26 M106.24 553.46 C233.65 406.89, 361.06 260.32, 587.14 0.26 M116.87 553.43 C249.06 401.37, 381.24 249.31, 597.77 0.22 M116.87 553.43 C293.12 350.68, 469.36 147.94, 597.77 0.22 M127.5 553.39 C247.16 415.74, 366.82 278.09, 608.4 0.19 M127.5 553.39 C302.68 351.87, 477.86 150.35, 608.4 0.19 M138.13 553.36 C274.09 396.96, 410.04 240.56, 619.03 0.16 M138.13 553.36 C273.35 397.81, 408.57 242.26, 619.03 0.16 M148.76 553.32 C281.38 400.76, 414 248.2, 629.66 0.12 M148.76 553.32 C307.19 371.07, 465.62 188.82, 629.66 0.12 M159.39 553.29 C319.63 368.96, 479.86 184.64, 640.29 0.09 M159.39 553.29 C349.37 334.75, 539.34 116.21, 640.29 0.09 M170.02 553.25 C329.56 369.72, 489.1 186.19, 650.92 0.05 M170.02 553.25 C276.8 430.42, 383.58 307.58, 650.92 0.05 M180.65 553.22 C366.01 340, 551.36 126.77, 661.55 0.02 M180.65 553.22 C323.48 388.91, 466.31 224.61, 661.55 0.02 M191.28 553.18 C292.77 436.44, 394.26 319.69, 672.18 -0.02 M191.28 553.18 C303.5 424.09, 415.72 295, 672.18 -0.02 M201.91 553.15 C391.31 335.28, 580.7 117.4, 682.81 -0.05 M201.91 553.15 C324.89 411.69, 447.86 270.22, 682.81 -0.05 M212.54 553.12 C382.39 357.73, 552.24 162.34, 693.44 -0.09 M212.54 553.12 C397.38 340.49, 582.21 127.87, 693.44 -0.09 M223.17 553.08 C323.27 437.93, 423.37 322.79, 704.07 -0.12 M223.17 553.08 C376.81 376.34, 530.45 199.6, 704.07 -0.12 M233.8 553.05 C398.8 363.24, 563.79 173.44, 714.7 -0.16 M233.8 553.05 C342.34 428.19, 450.88 303.34, 714.7 -0.16 M244.43 553.01 C375.91 401.77, 507.39 250.52, 725.33 -0.19 M244.43 553.01 C348.45 433.35, 452.47 313.69, 725.33 -0.19 M255.07 552.98 C356.52 436.27, 457.97 319.56, 735.96 -0.22 M255.07 552.98 C417.48 366.14, 579.89 179.31, 735.96 -0.22 M265.7 552.94 C424.37 370.41, 583.04 187.88, 746.59 -0.26 M265.7 552.94 C387.78 412.5, 509.87 272.05, 746.59 -0.26 M276.33 552.91 C435.91 369.32, 595.5 185.74, 756.56 0.46 M276.33 552.91 C387.02 425.57, 497.71 298.24, 756.56 0.46 M286.96 552.87 C437.5 379.7, 588.04 206.52, 767.19 0.43 M286.96 552.87 C392.4 431.57, 497.85 310.27, 767.19 0.43 M296.93 553.59 C454.64 372.17, 612.35 190.75, 777.82 0.39 M296.93 553.59 C414.12 418.78, 531.32 283.96, 777.82 0.39 M307.56 553.56 C430.16 412.52, 552.77 271.48, 788.45 0.36 M307.56 553.56 C442.43 398.41, 577.3 243.26, 788.45 0.36 M318.19 553.53 C493.25 352.15, 668.3 150.77, 799.08 0.32 M318.19 553.53 C436.86 417.01, 555.53 280.5, 799.08 0.32 M328.82 553.49 C511.88 342.9, 694.94 132.31, 809.71 0.29 M328.82 553.49 C465.05 396.77, 601.29 240.05, 809.71 0.29 M339.45 553.46 C460.63 414.06, 581.8 274.66, 820.34 0.25 M339.45 553.46 C502.37 366.04, 665.29 178.62, 820.34 0.25 M350.08 553.42 C452.15 436.01, 554.21 318.59, 830.97 0.22 M350.08 553.42 C472.47 412.63, 594.86 271.83, 830.97 0.22 M360.71 553.39 C528.34 360.55, 695.98 167.71, 841.6 0.19 M360.71 553.39 C528.32 360.57, 695.94 167.75, 841.6 0.19 M371.34 553.35 C499.54 405.88, 627.74 258.4, 852.23 0.15 M371.34 553.35 C515.72 387.26, 660.11 221.17, 852.23 0.15 M381.97 553.32 C505.04 411.75, 628.1 270.17, 862.86 0.12 M381.97 553.32 C542.84 368.26, 703.7 183.21, 862.86 0.12 M392.6 553.28 C563.77 356.38, 734.93 159.48, 873.49 0.08 M392.6 553.28 C539.9 383.84, 687.19 214.39, 873.49 0.08 M403.23 553.25 C557.77 375.48, 712.3 197.7, 884.12 0.05 M403.23 553.25 C540.21 395.67, 677.2 238.08, 884.12 0.05 M413.86 553.22 C552.27 393.99, 690.69 234.76, 894.75 0.01 M413.86 553.22 C528.4 421.45, 642.95 289.68, 894.75 0.01 M424.49 553.18 C586.84 366.42, 749.19 179.66, 905.38 -0.02 M424.49 553.18 C529.04 432.91, 633.59 312.64, 905.38 -0.02 M435.12 553.15 C610.71 351.16, 786.29 149.17, 916.01 -0.06 M435.12 553.15 C551.06 419.77, 667.01 286.39, 916.01 -0.06 M445.75 553.11 C562.45 418.86, 679.15 284.61, 926.64 -0.09 M445.75 553.11 C580.26 398.38, 714.77 243.64, 926.64 -0.09 M456.38 553.08 C593.91 394.87, 731.44 236.65, 937.27 -0.12 M456.38 553.08 C619.84 365.04, 783.3 177, 937.27 -0.12 M467.01 553.04 C572.76 431.4, 678.5 309.75, 947.9 -0.16 M467.01 553.04 C586.74 415.3, 706.48 277.57, 947.9 -0.16 M477.64 553.01 C594.94 418.07, 712.23 283.14, 958.53 -0.19 M477.64 553.01 C640.75 365.37, 803.87 177.73, 958.53 -0.19 M488.27 552.97 C679.62 332.85, 870.97 112.73, 969.16 -0.23 M488.27 552.97 C599.9 424.55, 711.54 296.14, 969.16 -0.23 M498.9 552.94 C608.39 426.99, 717.88 301.03, 979.79 -0.26 M498.9 552.94 C654.32 374.15, 809.73 195.37, 979.79 -0.26 M509.53 552.9 C677.92 359.19, 846.32 165.48, 989.77 0.46 M509.53 552.9 C685.19 350.84, 860.84 148.77, 989.77 0.46 M520.16 552.87 C674.51 375.31, 828.86 197.75, 1000.4 0.42 M520.16 552.87 C691.05 356.29, 861.93 159.71, 1000.4 0.42 M530.14 553.59 C721.24 333.75, 912.34 113.92, 1011.03 0.39 M530.14 553.59 C682.17 378.69, 834.21 203.79, 1011.03 0.39 M540.77 553.56 C639.11 440.43, 737.45 327.3, 1021.66 0.35 M540.77 553.56 C723.88 342.91, 906.99 132.27, 1021.66 0.35 M551.4 553.52 C696.96 386.06, 842.53 218.61, 1032.29 0.32 M551.4 553.52 C733.79 343.7, 916.19 133.88, 1032.29 0.32 M562.03 553.49 C683.06 414.25, 804.1 275.01, 1042.92 0.28 M562.03 553.49 C716.54 375.74, 871.06 197.99, 1042.92 0.28 M572.66 553.45 C753.7 345.18, 934.75 136.91, 1053.55 0.25 M572.66 553.45 C755.78 342.79, 938.91 132.13, 1053.55 0.25 M583.29 553.42 C695.35 424.5, 807.42 295.58, 1064.18 0.22 M583.29 553.42 C766.24 342.95, 949.2 132.48, 1064.18 0.22 M593.92 553.38 C773.73 346.53, 953.55 139.67, 1074.81 0.18 M593.92 553.38 C774.76 345.34, 955.61 137.31, 1074.81 0.18 M604.55 553.35 C707.41 435.02, 810.27 316.69, 1085.44 0.15 M604.55 553.35 C768.48 364.76, 932.42 176.18, 1085.44 0.15 M615.18 553.31 C805.39 334.5, 995.6 115.68, 1096.07 0.11 M615.18 553.31 C783.53 359.64, 951.89 165.97, 1096.07 0.11 M625.81 553.28 C748.39 412.26, 870.98 271.24, 1106.7 0.08 M625.81 553.28 C753.25 406.68, 880.69 260.07, 1106.7 0.08 M636.44 553.25 C822.62 339.07, 1008.8 124.89, 1117.33 0.04 M636.44 553.25 C789.18 377.54, 941.92 201.83, 1117.33 0.04 M647.07 553.21 C797.15 380.56, 947.24 207.9, 1127.96 0.01 M647.07 553.21 C836.95 334.77, 1026.84 116.33, 1127.96 0.01 M657.7 553.18 C773.07 420.46, 888.44 287.74, 1138.59 -0.03 M657.7 553.18 C764.96 429.79, 872.22 306.4, 1138.59 -0.03 M668.33 553.14 C830.26 366.86, 992.19 180.59, 1149.22 -0.06 M668.33 553.14 C789.61 413.62, 910.89 274.1, 1149.22 -0.06 M678.96 553.11 C818.54 392.54, 958.12 231.97, 1159.85 -0.09 M678.96 553.11 C794.6 420.08, 910.24 287.04, 1159.85 -0.09 M689.59 553.07 C869.87 345.68, 1050.16 138.28, 1169.82 0.63 M689.59 553.07 C852.14 366.08, 1014.69 179.09, 1169.82 0.63 M700.22 553.04 C805.55 431.86, 910.89 310.68, 1179.14 2.1 M700.22 553.04 C831.29 402.25, 962.37 251.46, 1179.14 2.1 M710.85 553 C839.66 404.82, 968.47 256.64, 1187.8 4.33 M710.85 553 C822.84 424.17, 934.84 295.33, 1187.8 4.33 M721.48 552.97 C889.44 359.76, 1057.39 166.54, 1193.18 10.33 M721.48 552.97 C842.31 413.97, 963.14 274.96, 1193.18 10.33 M732.11 552.94 C898.83 361.14, 1065.56 169.34, 1197.91 17.09 M732.11 552.94 C872.79 391.1, 1013.47 229.26, 1197.91 17.09 M742.74 552.9 C912.14 358.02, 1081.54 163.15, 1199.35 27.62 M742.74 552.9 C857.37 421.03, 972 289.16, 1199.35 27.62 M753.37 552.87 C919.36 361.91, 1085.36 170.95, 1200.14 38.91 M753.37 552.87 C923.42 357.25, 1093.46 161.63, 1200.14 38.91 M763.34 553.59 C930.44 361.36, 1097.55 169.13, 1200.28 50.95 M763.34 553.59 C916.79 377.06, 1070.24 200.54, 1200.28 50.95 M773.97 553.55 C918.43 387.37, 1062.9 221.18, 1200.41 62.99 M773.97 553.55 C897.97 410.91, 1021.96 268.27, 1200.41 62.99 M784.6 553.52 C890.01 432.26, 995.41 311.01, 1200.54 75.03 M784.6 553.52 C942.3 372.1, 1100 190.69, 1200.54 75.03 M795.23 553.48 C909.87 421.6, 1024.52 289.72, 1200.68 87.07 M795.23 553.48 C929.99 398.46, 1064.75 243.44, 1200.68 87.07 M805.86 553.45 C921.09 420.89, 1036.32 288.34, 1200.15 99.87 M805.86 553.45 C958.49 377.86, 1111.13 202.28, 1200.15 99.87 M816.49 553.41 C940.08 411.25, 1063.66 269.08, 1200.29 111.91 M816.49 553.41 C964.25 383.44, 1112 213.47, 1200.29 111.91 M827.12 553.38 C958.73 401.98, 1090.34 250.59, 1200.42 123.95 M827.12 553.38 C960.39 400.07, 1093.66 246.77, 1200.42 123.95 M837.75 553.34 C972.1 398.79, 1106.45 244.24, 1200.55 135.99 M837.75 553.34 C913.17 466.59, 988.58 379.84, 1200.55 135.99 M848.38 553.31 C965.81 418.23, 1083.23 283.15, 1200.69 148.03 M848.38 553.31 C954.22 431.56, 1060.06 309.81, 1200.69 148.03 M859.01 553.28 C939.79 460.36, 1020.56 367.44, 1200.16 160.83 M859.01 553.28 C974.99 419.86, 1090.96 286.45, 1200.16 160.83 M869.64 553.24 C961.81 447.21, 1053.99 341.18, 1200.3 172.87 M869.64 553.24 C988.23 416.83, 1106.81 280.41, 1200.3 172.87 M880.27 553.21 C984.58 433.22, 1088.89 313.22, 1200.43 184.91 M880.27 553.21 C1008.29 405.94, 1136.31 258.67, 1200.43 184.91 M890.9 553.17 C977.14 453.97, 1063.38 354.76, 1200.56 196.95 M890.9 553.17 C984.62 445.36, 1078.33 337.56, 1200.56 196.95 M901.53 553.14 C1002.39 437.11, 1103.25 321.09, 1200.7 208.99 M901.53 553.14 C1016.99 420.32, 1132.45 287.5, 1200.7 208.99 M912.16 553.1 C1017.97 431.38, 1123.79 309.66, 1200.17 221.79 M912.16 553.1 C979.29 475.88, 1046.42 398.65, 1200.17 221.79 M922.79 553.07 C1024.32 436.28, 1125.84 319.49, 1200.31 233.83 M922.79 553.07 C1027.18 432.99, 1131.57 312.9, 1200.31 233.83 M933.42 553.03 C993.68 483.72, 1053.93 414.41, 1200.44 245.87 M933.42 553.03 C1008.27 466.93, 1083.12 380.83, 1200.44 245.87 M944.05 553 C995.93 493.32, 1047.81 433.65, 1200.57 257.91 M944.05 553 C1002.59 485.66, 1061.13 418.31, 1200.57 257.91 M954.68 552.97 C1023.27 474.06, 1091.86 395.16, 1200.7 269.95 M954.68 552.97 C1029.56 466.83, 1104.44 380.69, 1200.7 269.95 M965.31 552.93 C1019.8 490.25, 1074.3 427.56, 1200.18 282.74 M965.31 552.93 C1030.96 477.42, 1096.6 401.9, 1200.18 282.74 M975.94 552.9 C1065.16 450.26, 1154.38 347.63, 1200.32 294.79 M975.94 552.9 C1064.56 450.96, 1153.17 349.01, 1200.32 294.79 M986.57 552.86 C1058.47 470.16, 1130.36 387.46, 1200.45 306.83 M986.57 552.86 C1039.41 492.08, 1092.25 431.29, 1200.45 306.83 M996.55 553.58 C1077.82 460.09, 1159.09 366.6, 1200.58 318.87 M996.55 553.58 C1072.34 466.39, 1148.14 379.19, 1200.58 318.87 M1007.18 553.55 C1082.84 466.51, 1158.5 379.48, 1200.71 330.91 M1007.18 553.55 C1070.59 480.6, 1134.01 407.65, 1200.71 330.91 M1017.81 553.51 C1080.24 481.7, 1142.67 409.88, 1200.19 343.7 M1017.81 553.51 C1069.44 494.12, 1121.07 434.73, 1200.19 343.7 M1028.44 553.48 C1091.69 480.72, 1154.94 407.96, 1200.32 355.74 M1028.44 553.48 C1079.62 494.6, 1130.79 435.73, 1200.32 355.74 M1039.07 553.44 C1077.21 509.57, 1115.35 465.69, 1200.46 367.79 M1039.07 553.44 C1088.86 496.17, 1138.65 438.89, 1200.46 367.79 M1049.7 553.41 C1085.04 512.76, 1120.37 472.11, 1200.59 379.83 M1049.7 553.41 C1081.9 516.36, 1114.11 479.31, 1200.59 379.83 M1060.33 553.38 C1107.01 499.68, 1153.69 445.98, 1200.72 391.87 M1060.33 553.38 C1096.3 511.99, 1132.27 470.61, 1200.72 391.87 M1070.96 553.34 C1103.5 515.9, 1136.05 478.46, 1200.2 404.66 M1070.96 553.34 C1111.09 507.17, 1151.23 461, 1200.2 404.66 M1081.59 553.31 C1108.68 522.14, 1135.77 490.97, 1200.33 416.7 M1081.59 553.31 C1112.99 517.19, 1144.38 481.07, 1200.33 416.7 M1092.22 553.27 C1122.36 518.6, 1152.49 483.93, 1200.47 428.74 M1092.22 553.27 C1125.19 515.34, 1158.16 477.41, 1200.47 428.74 M1102.85 553.24 C1138.63 512.07, 1174.41 470.91, 1200.6 440.79 M1102.85 553.24 C1132.26 519.4, 1161.68 485.56, 1200.6 440.79 M1113.48 553.2 C1136.76 526.42, 1160.04 499.64, 1200.73 452.83 M1113.48 553.2 C1138.85 524.02, 1164.21 494.84, 1200.73 452.83 M1124.11 553.17 C1149.54 523.91, 1174.97 494.66, 1200.21 465.62 M1124.11 553.17 C1144.14 530.12, 1164.18 507.08, 1200.21 465.62 M1134.74 553.13 C1158.7 525.57, 1182.65 498.01, 1200.34 477.66 M1134.74 553.13 C1150.74 534.73, 1166.74 516.32, 1200.34 477.66 M1145.37 553.1 C1165.53 529.91, 1185.69 506.71, 1200.48 489.7 M1145.37 553.1 C1160.72 535.43, 1176.08 517.77, 1200.48 489.7 M1156 553.06 C1165.68 541.93, 1175.36 530.79, 1200.61 501.74 M1156 553.06 C1170.21 536.72, 1184.42 520.37, 1200.61 501.74 M1166.63 553.03 C1174.65 543.8, 1182.67 534.58, 1200.09 514.54 M1166.63 553.03 C1173.46 545.18, 1180.28 537.32, 1200.09 514.54 M1177.26 553 C1183.25 546.1, 1189.25 539.2, 1200.22 526.58 M1177.26 553 C1185.27 543.77, 1193.29 534.55, 1200.22 526.58" stroke="#e3fafc" stroke-width="1" fill="none"></path><path d="M32 0 C333.88 0, 635.75 0, 1167.84 0 M32 0 C261.37 0, 490.74 0, 1167.84 0 M1167.84 0 C1189.17 0, 1199.84 10.67, 1199.84 32 M1167.84 0 C1189.17 0, 1199.84 10.67, 1199.84 32 M1199.84 32 C1199.84 131.18, 1199.84 230.37, 1199.84 521 M1199.84 32 C1199.84 214.01, 1199.84 396.02, 1199.84 521 M1199.84 521 C1199.84 542.33, 1189.17 553, 1167.84 553 M1199.84 521 C1199.84 542.33, 1189.17 553, 1167.84 553 M1167.84 553 C808.89 553, 449.93 553, 32 553 M1167.84 553 C836.87 553, 505.9 553, 32 553 M32 553 C10.67 553, 0 542.33, 0 521 M32 553 C10.67 553, 0 542.33, 0 521 M0 521 C0 336.35, 0 151.7, 0 32 M0 521 C0 348.68, 0 176.35, 0 32 M0 32 C0 10.67, 10.67 0, 32 0 M0 32 C0 10.67, 10.67 0, 32 0" stroke="#1e1e1e" stroke-width="2" fill="none"></path></g><g stroke-linecap="round" transform="translate(489.46723730390727 103) rotate(0 130.77777777777771 65)"><path d="M32 0 C75.94 0, 119.88 0, 229.56 0 C250.89 0, 261.56 10.67, 261.56 32 C261.56 47.96, 261.56 63.93, 261.56 98 C261.56 119.33, 250.89 130, 229.56 130 C183.93 130, 138.31 130, 32 130 C10.67 130, 0 119.33, 0 98 C0 84.34, 0 70.68, 0 32 C0 10.67, 10.67 0, 32 0" stroke="none" stroke-width="0" fill="#a5d8ff"></path><path d="M32 0 C85.12 0, 138.24 0, 229.56 0 M32 0 C94.16 0, 156.32 0, 229.56 0 M229.56 0 C250.89 0, 261.56 10.67, 261.56 32 M229.56 0 C250.89 0, 261.56 10.67, 261.56 32 M261.56 32 C261.56 57.11, 261.56 82.22, 261.56 98 M261.56 32 C261.56 57.66, 261.56 83.33, 261.56 98 M261.56 98 C261.56 119.33, 250.89 130, 229.56 130 M261.56 98 C261.56 119.33, 250.89 130, 229.56 130 M229.56 130 C179.83 130, 130.11 130, 32 130 M229.56 130 C159.38 130, 89.2 130, 32 130 M32 130 C10.67 130, 0 119.33, 0 98 M32 130 C10.67 130, 0 119.33, 0 98 M0 98 C0 80.72, 0 63.45, 0 32 M0 98 C0 83.88, 0 69.77, 0 32 M0 32 C0 10.67, 10.67 0, 32 0 M0 32 C0 10.67, 10.67 0, 32 0" stroke="#1e1e1e" stroke-width="2" fill="none"></path></g><g transform="translate(538.233296331685 145) rotate(0 82.01171875 23)"><text x="82.01171875" y="16.900390625" font-family="Helvetica, sans-serif, Segoe UI Emoji" font-size="20px" fill="#1e1e1e" text-anchor="middle" style="white-space: pre;" direction="ltr" dominant-baseline="alphabetic">"webfrontend"</text><text x="82.01171875" y="39.900390625" font-family="Helvetica, sans-serif, Segoe UI Emoji" font-size="20px" fill="#1e1e1e" text-anchor="middle" style="white-space: pre;" direction="ltr" dominant-baseline="alphabetic">"type": "project.v0"</text></g><g stroke-linecap="round" transform="translate(771.9672373039073 403) rotate(0 123 68)"><path d="M32 0 C83.9 0, 135.8 0, 214 0 C235.33 0, 246 10.67, 246 32 C246 52.31, 246 72.61, 246 104 C246 125.33, 235.33 136, 214 136 C144.05 136, 74.1 136, 32 136 C10.67 136, 0 125.33, 0 104 C0 85.91, 0 67.81, 0 32 C0 10.67, 10.67 0, 32 0" stroke="none" stroke-width="0" fill="#ffc9c9"></path><path d="M32 0 C91.89 0, 151.78 0, 214 0 M32 0 C103.08 0, 174.17 0, 214 0 M214 0 C235.33 0, 246 10.67, 246 32 M214 0 C235.33 0, 246 10.67, 246 32 M246 32 C246 47.56, 246 63.12, 246 104 M246 32 C246 49.42, 246 66.83, 246 104 M246 104 C246 125.33, 235.33 136, 214 136 M246 104 C246 125.33, 235.33 136, 214 136 M214 136 C154 136, 93.99 136, 32 136 M214 136 C161.66 136, 109.33 136, 32 136 M32 136 C10.67 136, 0 125.33, 0 104 M32 136 C10.67 136, 0 125.33, 0 104 M0 104 C0 87.15, 0 70.31, 0 32 M0 104 C0 81.92, 0 59.84, 0 32 M0 32 C0 10.67, 10.67 0, 32 0 M0 32 C0 10.67, 10.67 0, 32 0" stroke="#1e1e1e" stroke-width="2" fill="none"></path></g><g transform="translate(821.2953623039073 448) rotate(0 73.671875 23)"><text x="73.671875" y="16.900390625" font-family="Helvetica, sans-serif, Segoe UI Emoji" font-size="20px" fill="#1e1e1e" text-anchor="middle" style="white-space: pre;" direction="ltr" dominant-baseline="alphabetic">"cache"</text><text x="73.671875" y="39.900390625" font-family="Helvetica, sans-serif, Segoe UI Emoji" font-size="20px" fill="#1e1e1e" text-anchor="middle" style="white-space: pre;" direction="ltr" dominant-baseline="alphabetic">"type": "redis.v0"</text></g><g stroke-linecap="round" transform="translate(224.96723730390727 403) rotate(0 124.80882352941171 69)"><path d="M32 0 C102.76 0, 173.52 0, 217.62 0 C238.95 0, 249.62 10.67, 249.62 32 C249.62 60.65, 249.62 89.31, 249.62 106 C249.62 127.33, 238.95 138, 217.62 138 C152.86 138, 88.1 138, 32 138 C10.67 138, 0 127.33, 0 106 C0 84.08, 0 62.16, 0 32 C0 10.67, 10.67 0, 32 0" stroke="none" stroke-width="0" fill="#b2f2bb"></path><path d="M32 0 C97.05 0, 162.11 0, 217.62 0 M32 0 C74.57 0, 117.13 0, 217.62 0 M217.62 0 C238.95 0, 249.62 10.67, 249.62 32 M217.62 0 C238.95 0, 249.62 10.67, 249.62 32 M249.62 32 C249.62 50.6, 249.62 69.21, 249.62 106 M249.62 32 C249.62 48.29, 249.62 64.58, 249.62 106 M249.62 106 C249.62 127.33, 238.95 138, 217.62 138 M249.62 106 C249.62 127.33, 238.95 138, 217.62 138 M217.62 138 C168.74 138, 119.85 138, 32 138 M217.62 138 C146.72 138, 75.82 138, 32 138 M32 138 C10.67 138, 0 127.33, 0 106 M32 138 C10.67 138, 0 127.33, 0 106 M0 106 C0 90.19, 0 74.37, 0 32 M0 106 C0 80.49, 0 54.98, 0 32 M0 32 C0 10.67, 10.67 0, 32 0 M0 32 C0 10.67, 10.67 0, 32 0" stroke="#1e1e1e" stroke-width="2" fill="none"></path></g><g transform="translate(267.764342083319 449) rotate(0 82.01171875 23)"><text x="82.01171875" y="16.900390625" font-family="Helvetica, sans-serif, Segoe UI Emoji" font-size="20px" fill="#1e1e1e" text-anchor="middle" style="white-space: pre;" direction="ltr" dominant-baseline="alphabetic">"apiservice"</text><text x="82.01171875" y="39.900390625" font-family="Helvetica, sans-serif, Segoe UI Emoji" font-size="20px" fill="#1e1e1e" text-anchor="middle" style="white-space: pre;" direction="ltr" dominant-baseline="alphabetic">"type": "project.v0"</text></g><g transform="translate(701.4672373039073 288.19999999999993) rotate(0 230.986328125 23)"><text x="0" y="16.900390625" font-family="Helvetica, sans-serif, Segoe UI Emoji" font-size="20px" fill="#1e1e1e" text-anchor="start" style="white-space: pre;" direction="ltr" dominant-baseline="alphabetic">Contributes:</text><text x="0" y="39.900390625" font-family="Helvetica, sans-serif, Segoe UI Emoji" font-size="20px" fill="#1e1e1e" text-anchor="start" style="white-space: pre;" direction="ltr" dominant-baseline="alphabetic">ConnectionStrings__redis={cache.connectionString}</text></g><g transform="translate(75.25825292890727 282.9) rotate(0 234.0966796875 34.5)"><text x="468.193359375" y="16.900390625" font-family="Helvetica, sans-serif, Segoe UI Emoji" font-size="20px" fill="#1e1e1e" text-anchor="end" style="white-space: pre;" direction="ltr" dominant-baseline="alphabetic">Contributes:</text><text x="468.193359375" y="39.900390625" font-family="Helvetica, sans-serif, Segoe UI Emoji" font-size="20px" fill="#1e1e1e" text-anchor="end" style="white-space: pre;" direction="ltr" dominant-baseline="alphabetic">APISERVICE_HTTP={apiservice.bindings.http.url}</text><text x="468.193359375" y="62.900390625" font-family="Helvetica, sans-serif, Segoe UI Emoji" font-size="20px" fill="#1e1e1e" text-anchor="end" style="white-space: pre;" direction="ltr" dominant-baseline="alphabetic">APISERVICE_HTTPS={apiservice.bindings.https.url}</text></g><g stroke-linecap="round" transform="translate(488.46723730390727 10) rotate(0 130.5 29.5)"><path d="M14.75 0 C81.68 0, 148.61 0, 246.25 0 C256.08 0, 261 4.92, 261 14.75 C261 25.68, 261 36.61, 261 44.25 C261 54.08, 256.08 59, 246.25 59 C198.29 59, 150.33 59, 14.75 59 C4.92 59, 0 54.08, 0 44.25 C0 32.96, 0 21.67, 0 14.75 C0 4.92, 4.92 0, 14.75 0" stroke="none" stroke-width="0" fill="#e3fafc"></path><path d="M14.75 0 C78.15 0, 141.56 0, 246.25 0 M14.75 0 C78.93 0, 143.11 0, 246.25 0 M246.25 0 C256.08 0, 261 4.92, 261 14.75 M246.25 0 C256.08 0, 261 4.92, 261 14.75 M261 14.75 C261 25.01, 261 35.27, 261 44.25 M261 14.75 C261 20.72, 261 26.7, 261 44.25 M261 44.25 C261 54.08, 256.08 59, 246.25 59 M261 44.25 C261 54.08, 256.08 59, 246.25 59 M246.25 59 C171.38 59, 96.52 59, 14.75 59 M246.25 59 C165.98 59, 85.71 59, 14.75 59 M14.75 59 C4.92 59, 0 54.08, 0 44.25 M14.75 59 C4.92 59, 0 54.08, 0 44.25 M0 44.25 C0 37.88, 0 31.5, 0 14.75 M0 44.25 C0 33.26, 0 22.28, 0 14.75 M0 14.75 C0 4.92, 4.92 0, 14.75 0 M0 14.75 C0 4.92, 4.92 0, 14.75 0" stroke="#1e1e1e" stroke-width="2" fill="none"></path></g><g transform="translate(529.4848154289073 28) rotate(0 89.482421875 11.5)"><text x="89.482421875" y="16.900390625" font-family="Helvetica, sans-serif, Segoe UI Emoji" font-size="20px" fill="#343a40" text-anchor="middle" style="white-space: pre;" direction="ltr" dominant-baseline="alphabetic">aspire-manifest.json</text></g><g stroke-linecap="round"><g transform="translate(649.9672373039073 242.08917014620116) rotate(0 0 120.08558012628889)"><path d="M0 0 C0 40.03, 0 200.14, 0 240.17 M0 0 C0 40.03, 0 200.14, 0 240.17" stroke="#1e1e1e" stroke-width="2" fill="none"></path></g><g transform="translate(649.9672373039073 242.08917014620116) rotate(0 0 120.08558012628889)"><path d="M15 0 C9.16 0, 3.31 0, 0 0 M15 0 C10.89 0, 6.79 0, 0 0" stroke="#1e1e1e" stroke-width="2" fill="none"></path></g><g transform="translate(649.9672373039073 242.08917014620116) rotate(0 0 120.08558012628889)"><path d="M-15 0 C-9.16 0, -3.31 0, 0 0 M-15 0 C-10.89 0, -6.79 0, 0 0" stroke="#1e1e1e" stroke-width="2" fill="none"></path></g></g><mask></mask><g stroke-linecap="round"><g transform="translate(579.9672373039073 241.80141725380588) rotate(0 0 120.59929137309706)"><path d="M0 0 C0 40.2, 0 201, 0 241.2 M0 0 C0 40.2, 0 201, 0 241.2" stroke="#1e1e1e" stroke-width="2" fill="none"></path></g><g transform="translate(579.9672373039073 241.80141725380588) rotate(0 0 120.59929137309706)"><path d="M15 0 C10.02 0, 5.05 0, 0 0 M15 0 C11.13 0, 7.27 0, 0 0" stroke="#1e1e1e" stroke-width="2" fill="none"></path></g><g transform="translate(579.9672373039073 241.80141725380588) rotate(0 0 120.59929137309706)"><path d="M-15 0 C-10.02 0, -5.05 0, 0 0 M-15 0 C-11.13 0, -7.27 0, 0 0" stroke="#1e1e1e" stroke-width="2" fill="none"></path></g></g><mask></mask><g stroke-linecap="round"><g transform="translate(650.3217992360486 482.45391179123476) rotate(0 58.098221314948034 0)"><path d="M0 0 C19.37 0, 96.83 0, 116.2 0 M0 0 C19.37 0, 96.83 0, 116.2 0" stroke="#1e1e1e" stroke-width="2" fill="none"></path></g><g transform="translate(650.3217992360486 482.45391179123476) rotate(0 58.098221314948034 0)"><path d="M116.2 0 L102.6 6.34 L102.6 -6.34 L116.2 0" stroke="none" stroke-width="0" fill="#1e1e1e" fill-rule="evenodd"></path><path d="M116.2 0 C113.37 1.32, 110.54 2.64, 102.6 6.34 M116.2 0 C113.46 1.28, 110.72 2.55, 102.6 6.34 M102.6 6.34 C102.6 2.18, 102.6 -1.99, 102.6 -6.34 M102.6 6.34 C102.6 1.36, 102.6 -3.62, 102.6 -6.34 M102.6 -6.34 C105.54 -4.97, 108.47 -3.6, 116.2 0 M102.6 -6.34 C106.24 -4.64, 109.88 -2.95, 116.2 0 M116.2 0 C116.2 0, 116.2 0, 116.2 0 M116.2 0 C116.2 0, 116.2 0, 116.2 0" stroke="#1e1e1e" stroke-width="2" fill="none"></path></g></g><mask></mask><g stroke-linecap="round"><g transform="translate(579.944290414702 483.04484273260283) rotate(0 -49.943634493145964 0)"><path d="M0 0 C-16.65 0, -83.24 0, -99.89 0 M0 0 C-16.65 0, -83.24 0, -99.89 0" stroke="#1e1e1e" stroke-width="2" fill="none"></path></g><g transform="translate(579.944290414702 483.04484273260283) rotate(0 -49.943634493145964 0)"><path d="M-99.89 0 L-86.29 -6.34 L-86.29 6.34 L-99.89 0" stroke="none" stroke-width="0" fill="#1e1e1e" fill-rule="evenodd"></path><path d="M-99.89 0 C-96.4 -1.63, -92.91 -3.26, -86.29 -6.34 M-99.89 0 C-95.42 -2.08, -90.95 -4.17, -86.29 -6.34 M-86.29 -6.34 C-86.29 -1.96, -86.29 2.42, -86.29 6.34 M-86.29 -6.34 C-86.29 -1.33, -86.29 3.68, -86.29 6.34 M-86.29 6.34 C-91.6 3.87, -96.9 1.39, -99.89 0 M-86.29 6.34 C-90.11 4.56, -93.93 2.78, -99.89 0 M-99.89 0 C-99.89 0, -99.89 0, -99.89 0 M-99.89 0 C-99.89 0, -99.89 0, -99.89 0" stroke="#1e1e1e" stroke-width="2" fill="none"></path></g></g><mask></mask></svg>