<?xml version="1.0" standalone="no"?>
<!DOCTYPE svg PUBLIC "-//W3C//DTD SVG 1.1//EN" "http://www.w3.org/Graphics/SVG/1.1/DTD/svg11.dtd">
<svg version="1.1" xmlns="http://www.w3.org/2000/svg" viewBox="0 0 736.9183714081398 569.4466247863879" width="2210.7551142244192" height="1708.3398743591638" filter="invert(93%) hue-rotate(180deg)"><!-- svg-source:excalidraw --><metadata></metadata><defs><style class="style-fonts">
      @font-face { font-family: Nunito; src: url(https://esm.sh/@excalidraw/excalidraw/dist/prod/fonts/Nunito/Nunito-Regular-XRXI3I6Li01BKofiOc5wtlZ2di8HDIkhdTQ3j6zbXWjgeg.woff2); }</style></defs><rect x="0" y="0" width="736.9183714081398" height="569.4466247863879" fill="#ffffff"></rect><g stroke-linecap="round" transform="translate(10 28.61562047229654) rotate(0 75 32.5)"><path d="M0 0 L150 0 L150 65 L0 65" stroke="none" stroke-width="0" fill="#ebfbee"></path><path d="M0 0 C47.46 0, 94.93 0, 150 0 M0 0 C36.21 0, 72.43 0, 150 0 M150 0 C150 21.04, 150 42.09, 150 65 M150 0 C150 15.93, 150 31.85, 150 65 M150 65 C102.04 65, 54.08 65, 0 65 M150 65 C110.46 65, 70.91 65, 0 65 M0 65 C0 47.29, 0 29.59, 0 0 M0 65 C0 49.69, 0 34.39, 0 0" stroke="#000" stroke-width="2" fill="none"></path></g><g transform="translate(47.72003173828125 50.31562047229636) rotate(0 37.27996826171875 10.799999999999955)"><text x="37.27996826171875" y="16.064" font-family="Nunito, sans-serif, Segoe UI Emoji" font-size="16px" fill="#000" text-anchor="middle" style="white-space: pre;" direction="ltr" dominant-baseline="alphabetic">Developer</text></g><g stroke-linecap="round" transform="translate(10 481.61562047229654) rotate(0 75 32.5)"><path d="M0 0 L150 0 L150 65 L0 65" stroke="none" stroke-width="0" fill="#ebfbee"></path><path d="M0 0 C44.01 0, 88.03 0, 150 0 M0 0 C44.76 0, 89.52 0, 150 0 M150 0 C150 25.49, 150 50.98, 150 65 M150 0 C150 19.35, 150 38.69, 150 65 M150 65 C114.73 65, 79.46 65, 0 65 M150 65 C111.22 65, 72.44 65, 0 65 M0 65 C0 47.12, 0 29.25, 0 0 M0 65 C0 49.95, 0 34.89, 0 0" stroke="#000" stroke-width="2" fill="none"></path></g><g transform="translate(47.72003173828125 503.31562047229636) rotate(0 37.27996826171875 10.799999999999955)"><text x="37.27996826171875" y="16.064" font-family="Nunito, sans-serif, Segoe UI Emoji" font-size="16px" fill="#000" text-anchor="middle" style="white-space: pre;" direction="ltr" dominant-baseline="alphabetic">Developer</text></g><g stroke-linecap="round" transform="translate(224 28.61562047229654) rotate(0 75 32.5)"><path d="M16.25 0 C58.99 0, 101.72 0, 133.75 0 C144.58 0, 150 5.42, 150 16.25 C150 24.44, 150 32.63, 150 48.75 C150 59.58, 144.58 65, 133.75 65 C97.37 65, 60.98 65, 16.25 65 C5.42 65, 0 59.58, 0 48.75 C0 41.47, 0 34.2, 0 16.25 C0 5.42, 5.42 0, 16.25 0" stroke="none" stroke-width="0" fill="#f3f0ff"></path><path d="M16.25 0 C62.55 0, 108.86 0, 133.75 0 M16.25 0 C42.44 0, 68.62 0, 133.75 0 M133.75 0 C144.58 0, 150 5.42, 150 16.25 M133.75 0 C144.58 0, 150 5.42, 150 16.25 M150 16.25 C150 23.8, 150 31.36, 150 48.75 M150 16.25 C150 27.12, 150 37.99, 150 48.75 M150 48.75 C150 59.58, 144.58 65, 133.75 65 M150 48.75 C150 59.58, 144.58 65, 133.75 65 M133.75 65 C87.73 65, 41.71 65, 16.25 65 M133.75 65 C99.78 65, 65.81 65, 16.25 65 M16.25 65 C5.42 65, 0 59.58, 0 48.75 M16.25 65 C5.42 65, 0 59.58, 0 48.75 M0 48.75 C0 38.43, 0 28.1, 0 16.25 M0 48.75 C0 39.48, 0 30.2, 0 16.25 M0 16.25 C0 5.42, 5.42 0, 16.25 0 M0 16.25 C0 5.42, 5.42 0, 16.25 0" stroke="#000" stroke-width="2" fill="none"></path></g><g transform="translate(264.37601470947266 50.31562047229636) rotate(0 34.623985290527344 10.799999999999955)"><text x="34.623985290527344" y="16.064" font-family="Nunito, sans-serif, Segoe UI Emoji" font-size="16px" fill="#000" text-anchor="middle" style="white-space: pre;" direction="ltr" dominant-baseline="alphabetic">App Host</text></g><g stroke-linecap="round" transform="translate(224 481.61562047229654) rotate(0 75 32.5)"><path d="M16.25 0 C59.29 0, 102.32 0, 133.75 0 C144.58 0, 150 5.42, 150 16.25 C150 27.98, 150 39.72, 150 48.75 C150 59.58, 144.58 65, 133.75 65 C101.67 65, 69.59 65, 16.25 65 C5.42 65, 0 59.58, 0 48.75 C0 39.75, 0 30.75, 0 16.25 C0 5.42, 5.42 0, 16.25 0" stroke="none" stroke-width="0" fill="#f8f0fc"></path><path d="M16.25 0 C49.74 0, 83.24 0, 133.75 0 M16.25 0 C57.25 0, 98.24 0, 133.75 0 M133.75 0 C144.58 0, 150 5.42, 150 16.25 M133.75 0 C144.58 0, 150 5.42, 150 16.25 M150 16.25 C150 26.64, 150 37.03, 150 48.75 M150 16.25 C150 24.82, 150 33.39, 150 48.75 M150 48.75 C150 59.58, 144.58 65, 133.75 65 M150 48.75 C150 59.58, 144.58 65, 133.75 65 M133.75 65 C93.99 65, 54.22 65, 16.25 65 M133.75 65 C101.02 65, 68.29 65, 16.25 65 M16.25 65 C5.42 65, 0 59.58, 0 48.75 M16.25 65 C5.42 65, 0 59.58, 0 48.75 M0 48.75 C0 41.12, 0 33.49, 0 16.25 M0 48.75 C0 38.07, 0 27.39, 0 16.25 M0 16.25 C0 5.42, 5.42 0, 16.25 0 M0 16.25 C0 5.42, 5.42 0, 16.25 0" stroke="#000" stroke-width="2" fill="none"></path></g><g transform="translate(264.37601470947266 503.31562047229636) rotate(0 34.623985290527344 10.799999999999955)"><text x="34.623985290527344" y="16.064" font-family="Nunito, sans-serif, Segoe UI Emoji" font-size="16px" fill="#000" text-anchor="middle" style="white-space: pre;" direction="ltr" dominant-baseline="alphabetic">App Host</text></g><g stroke-linecap="round"><g transform="translate(85 93.61562047229654) rotate(0 0 194)"><path d="M0 0 C0 152.15, 0 304.3, 0 388 M0 0 C0 115.49, 0 230.97, 0 388" stroke="#000" stroke-width="2" fill="none"></path></g></g><mask></mask><g stroke-linecap="round"><g transform="translate(299 93.61562047229654) rotate(0 0 194)"><path d="M0 0 C0 82.98, 0 165.97, 0 388 M0 0 C0 90.61, 0 181.21, 0 388" stroke="#000" stroke-width="2" fill="none"></path></g></g><mask></mask><g mask="url(#mask-JHo2V8EZViJA3Yld-Aam-)" stroke-linecap="round"><g transform="translate(85.18120420558273 129.61562047229654) rotate(0 105.74790817960397 0)"><path d="M0 0 C71.93 0, 143.86 0, 211.5 0 M0 0 C77.39 0, 154.78 0, 211.5 0" stroke="#000" stroke-width="2" fill="none"></path></g><g transform="translate(85.18120420558273 129.61562047229654) rotate(0 105.74790817960397 0)"><path d="M211.5 0 L197.9 6.34 L197.9 -6.34 L211.5 0" stroke="none" stroke-width="0" fill="#000" fill-rule="evenodd"></path><path d="M211.5 0 C206.87 2.16, 202.25 4.31, 197.9 6.34 M211.5 0 C206.52 2.32, 201.55 4.64, 197.9 6.34 M197.9 6.34 C197.9 2.51, 197.9 -1.33, 197.9 -6.34 M197.9 6.34 C197.9 2.93, 197.9 -0.48, 197.9 -6.34 M197.9 -6.34 C201.96 -4.45, 206.02 -2.56, 211.5 0 M197.9 -6.34 C200.96 -4.91, 204.01 -3.49, 211.5 0 M211.5 0 C211.5 0, 211.5 0, 211.5 0 M211.5 0 C211.5 0, 211.5 0, 211.5 0" stroke="#000" stroke-width="2" fill="none"></path></g></g><mask id="mask-JHo2V8EZViJA3Yld-Aam-"><rect x="0" y="0" fill="#fff" width="396.67702056479067" height="229.61562047229654"></rect><rect x="169.0171250804992" y="118.81562047229636" fill="#000" width="43.823974609375" height="21.6" opacity="1"></rect></mask><g transform="translate(169.0171250804992 118.81562047229636) rotate(0 21.9119873046875 10.800000000000182)"><text x="21.9119873046875" y="16.064" font-family="Nunito, sans-serif, Segoe UI Emoji" font-size="16px" fill="#1e1e1e" text-anchor="middle" style="white-space: pre;" direction="ltr" dominant-baseline="alphabetic">Starts</text></g><g mask="url(#mask-Yi8Mqrk0Vqj5oBUiMud7L)" stroke-linecap="round"><g transform="translate(299.84423938812506 175.61562047229654) rotate(0 105.87199187361836 0)"><path d="M0 0 C49.21 0, 98.42 0, 211.74 0 M0 0 C70.82 0, 141.64 0, 211.74 0" stroke="#000" stroke-width="2" fill="none"></path></g><g transform="translate(299.84423938812506 175.61562047229654) rotate(0 105.87199187361836 0)"><path d="M211.74 0 L198.15 6.34 L198.15 -6.34 L211.74 0" stroke="none" stroke-width="0" fill="#000" fill-rule="evenodd"></path><path d="M211.74 0 C208.58 1.47, 205.43 2.95, 198.15 6.34 M211.74 0 C207.2 2.12, 202.65 4.24, 198.15 6.34 M198.15 6.34 C198.15 2.47, 198.15 -1.4, 198.15 -6.34 M198.15 6.34 C198.15 3.14, 198.15 -0.07, 198.15 -6.34 M198.15 -6.34 C203.2 -3.99, 208.24 -1.63, 211.74 0 M198.15 -6.34 C202.28 -4.41, 206.42 -2.48, 211.74 0 M211.74 0 C211.74 0, 211.74 0, 211.74 0 M211.74 0 C211.74 0, 211.74 0, 211.74 0" stroke="#000" stroke-width="2" fill="none"></path></g></g><mask id="mask-Yi8Mqrk0Vqj5oBUiMud7L"><rect x="0" y="0" fill="#fff" width="611.5882231353618" height="275.61562047229654"></rect><rect x="325.38027850295435" y="164.81562047229636" fill="#000" width="160.67190551757812" height="21.6" opacity="1"></rect></mask><g transform="translate(325.38027850295435 164.81562047229636) rotate(0 80.33595275878906 10.800000000000182)"><text x="80.33595275878906" y="16.064" font-family="Nunito, sans-serif, Segoe UI Emoji" font-size="16px" fill="#000" text-anchor="middle" style="white-space: pre;" direction="ltr" dominant-baseline="alphabetic">Translate "app model"</text></g><g mask="url(#mask-1yfdPgFz4_79YthCJD5BH)" stroke-linecap="round"><g transform="translate(512.6104339337381 405.61562047229654) rotate(0 -104.40359305943181 0)"><path d="M0 0 C-64.81 0, -129.62 0, -208.81 0" stroke="#000" stroke-width="2.5" fill="none" stroke-dasharray="1.5 8"></path></g><g transform="translate(512.6104339337381 405.61562047229654) rotate(0 -104.40359305943181 0)"><path d="M-208.81 0 L-195.21 -6.34 L-195.21 6.34 L-208.81 0" stroke="none" stroke-width="0" fill="#000" fill-rule="evenodd"></path><path d="M-208.81 0 C-204.59 -1.97, -200.37 -3.94, -195.21 -6.34 M-195.21 -6.34 C-195.21 -2.14, -195.21 2.05, -195.21 6.34 M-195.21 6.34 C-199.81 4.19, -204.41 2.05, -208.81 0 M-208.81 0 C-208.81 0, -208.81 0, -208.81 0" stroke="#000" stroke-width="2.5" fill="none"></path></g></g><mask id="mask-1yfdPgFz4_79YthCJD5BH"><rect x="0" y="0" fill="#fff" width="821.4176200526017" height="505.61562047229654"></rect><rect x="340.5588687673727" y="394.81562047229636" fill="#000" width="135.2959442138672" height="21.6" opacity="1"></rect></mask><g transform="translate(340.5588687673727 394.81562047229636) rotate(0 67.6479721069336 10.800000000000182)"><text x="67.6479721069336" y="16.064" font-family="Nunito, sans-serif, Segoe UI Emoji" font-size="16px" fill="#000" text-anchor="middle" style="white-space: pre;" direction="ltr" dominant-baseline="alphabetic">Dashboard started</text></g><g mask="url(#mask-KgTH5A2gdbjwpWx99S8RX)" stroke-linecap="round"><g transform="translate(297.4688403730429 451.61562047229654) rotate(0 -104.90364144537148 0)"><path d="M0 0 C-63.44 0, -126.87 0, -209.81 0" stroke="#000" stroke-width="2.5" fill="none" stroke-dasharray="1.5 8"></path></g><g transform="translate(297.4688403730429 451.61562047229654) rotate(0 -104.90364144537148 0)"><path d="M-209.81 0 L-196.21 -6.34 L-196.21 6.34 L-209.81 0" stroke="none" stroke-width="0" fill="#000" fill-rule="evenodd"></path><path d="M-209.81 0 C-205.7 -1.92, -201.59 -3.83, -196.21 -6.34 M-196.21 -6.34 C-196.21 -2.93, -196.21 0.48, -196.21 6.34 M-196.21 6.34 C-200.27 4.45, -204.33 2.56, -209.81 0 M-209.81 0 C-209.81 0, -209.81 0, -209.81 0" stroke="#000" stroke-width="2.5" fill="none"></path></g></g><mask id="mask-KgTH5A2gdbjwpWx99S8RX"><rect x="0" y="0" fill="#fff" width="607.2761232637858" height="551.6156204722965"></rect><rect x="130.56522944524954" y="440.81562047229636" fill="#000" width="123.99993896484375" height="21.6" opacity="1"></rect></mask><g transform="translate(130.56522944524954 440.81562047229636) rotate(0 61.999969482421875 10.800000000000182)"><text x="61.999969482421875" y="16.064" font-family="Nunito, sans-serif, Segoe UI Emoji" font-size="16px" fill="#000" text-anchor="middle" style="white-space: pre;" direction="ltr" dominant-baseline="alphabetic">Dashboard ready</text></g><g stroke-linecap="round" transform="translate(514.878021903271 10) rotate(0 106.0201747524344 274.72331239319396)"><path d="M0 0 L212.04 0 L212.04 549.45 L0 549.45" stroke="none" stroke-width="0" fill="#e9ecef"></path><path d="M0 0 C72.82 0, 145.64 0, 212.04 0 M212.04 0 C212.04 128.28, 212.04 256.56, 212.04 549.45 M212.04 549.45 C132.36 549.45, 52.69 549.45, 0 549.45 M0 549.45 C0 342.29, 0 135.13, 0 0" stroke="#000" stroke-width="2.5" fill="none" stroke-dasharray="8 10"></path></g><g stroke-linecap="round" transform="translate(531.5 28.61562047229654) rotate(0 89.5 32.5)"><path d="M16.25 0 C72.38 0, 128.5 0, 162.75 0 C173.58 0, 179 5.42, 179 16.25 C179 26.93, 179 37.61, 179 48.75 C179 59.58, 173.58 65, 162.75 65 C132.86 65, 102.97 65, 16.25 65 C5.42 65, 0 59.58, 0 48.75 C0 37.06, 0 25.37, 0 16.25 C0 5.42, 5.42 0, 16.25 0" stroke="none" stroke-width="0" fill="#326ce5"></path><path d="M16.25 0 C65.69 0, 115.14 0, 162.75 0 M16.25 0 C57.88 0, 99.51 0, 162.75 0 M162.75 0 C173.58 0, 179 5.42, 179 16.25 M162.75 0 C173.58 0, 179 5.42, 179 16.25 M179 16.25 C179 23.89, 179 31.53, 179 48.75 M179 16.25 C179 24.65, 179 33.05, 179 48.75 M179 48.75 C179 59.58, 173.58 65, 162.75 65 M179 48.75 C179 59.58, 173.58 65, 162.75 65 M162.75 65 C119.03 65, 75.31 65, 16.25 65 M162.75 65 C129.82 65, 96.89 65, 16.25 65 M16.25 65 C5.42 65, 0 59.58, 0 48.75 M16.25 65 C5.42 65, 0 59.58, 0 48.75 M0 48.75 C0 37.78, 0 26.8, 0 16.25 M0 48.75 C0 39.46, 0 30.18, 0 16.25 M0 16.25 C0 5.42, 5.42 0, 16.25 0 M0 16.25 C0 5.42, 5.42 0, 16.25 0" stroke="#ffffff" stroke-width="2" fill="none"></path></g><g transform="translate(604.5280151367188 50.31562047229636) rotate(0 16.47198486328125 10.799999999999955)"><text x="16.47198486328125" y="16.064" font-family="Nunito, sans-serif, Segoe UI Emoji" font-size="16px" fill="#ffffff" text-anchor="middle" style="white-space: pre;" direction="ltr" dominant-baseline="alphabetic">DCP</text></g><g stroke-linecap="round" transform="translate(531.5 481.61562047229654) rotate(0 89.5 32.5)"><path d="M16.25 0 C61.12 0, 105.98 0, 162.75 0 C173.58 0, 179 5.42, 179 16.25 C179 28.38, 179 40.52, 179 48.75 C179 59.58, 173.58 65, 162.75 65 C118.75 65, 74.75 65, 16.25 65 C5.42 65, 0 59.58, 0 48.75 C0 42.04, 0 35.32, 0 16.25 C0 5.42, 5.42 0, 16.25 0" stroke="none" stroke-width="0" fill="#326ce5"></path><path d="M16.25 0 C57.75 0, 99.26 0, 162.75 0 M16.25 0 C68.06 0, 119.87 0, 162.75 0 M162.75 0 C173.58 0, 179 5.42, 179 16.25 M162.75 0 C173.58 0, 179 5.42, 179 16.25 M179 16.25 C179 28.96, 179 41.68, 179 48.75 M179 16.25 C179 23.49, 179 30.74, 179 48.75 M179 48.75 C179 59.58, 173.58 65, 162.75 65 M179 48.75 C179 59.58, 173.58 65, 162.75 65 M162.75 65 C108.37 65, 53.99 65, 16.25 65 M162.75 65 C118.2 65, 73.65 65, 16.25 65 M16.25 65 C5.42 65, 0 59.58, 0 48.75 M16.25 65 C5.42 65, 0 59.58, 0 48.75 M0 48.75 C0 41.64, 0 34.52, 0 16.25 M0 48.75 C0 39.03, 0 29.32, 0 16.25 M0 16.25 C0 5.42, 5.42 0, 16.25 0 M0 16.25 C0 5.42, 5.42 0, 16.25 0" stroke="#ffffff" stroke-width="2" fill="none"></path></g><g transform="translate(604.5280151367188 503.31562047229636) rotate(0 16.47198486328125 10.799999999999955)"><text x="16.47198486328125" y="16.064" font-family="Nunito, sans-serif, Segoe UI Emoji" font-size="16px" fill="#ffffff" text-anchor="middle" style="white-space: pre;" direction="ltr" dominant-baseline="alphabetic">DCP</text></g><g stroke-linecap="round"><g transform="translate(621 93.61562047229654) rotate(0 0 194)"><path d="M0 0 C0 64.67, 0 323.33, 0 388 M0 0 C0 64.67, 0 323.33, 0 388" stroke="#000" stroke-width="2" fill="none"></path></g></g><mask></mask><g stroke-linecap="round" transform="translate(529.9738730677755 166.66177738083434) rotate(0 90.59074827947427 16.832736918859382)"><path d="M8.42 0 C71.86 0, 135.31 0, 172.77 0 C178.38 0, 181.18 2.81, 181.18 8.42 C181.18 11.91, 181.18 15.41, 181.18 25.25 C181.18 30.86, 178.38 33.67, 172.77 33.67 C122.7 33.67, 72.64 33.67, 8.42 33.67 C2.81 33.67, 0 30.86, 0 25.25 C0 21.19, 0 17.14, 0 8.42 C0 2.81, 2.81 0, 8.42 0" stroke="none" stroke-width="0" fill="#d0bfff"></path><path d="M8.42 0 C47.83 0, 87.23 0, 172.77 0 M8.42 0 C59.78 0, 111.14 0, 172.77 0 M172.77 0 C178.38 0, 181.18 2.81, 181.18 8.42 M172.77 0 C178.38 0, 181.18 2.81, 181.18 8.42 M181.18 8.42 C181.18 13.47, 181.18 18.53, 181.18 25.25 M181.18 8.42 C181.18 13.75, 181.18 19.08, 181.18 25.25 M181.18 25.25 C181.18 30.86, 178.38 33.67, 172.77 33.67 M181.18 25.25 C181.18 30.86, 178.38 33.67, 172.77 33.67 M172.77 33.67 C119.47 33.67, 66.17 33.67, 8.42 33.67 M172.77 33.67 C135.63 33.67, 98.49 33.67, 8.42 33.67 M8.42 33.67 C2.81 33.67, 0 30.86, 0 25.25 M8.42 33.67 C2.81 33.67, 0 30.86, 0 25.25 M0 25.25 C0 21.67, 0 18.09, 0 8.42 M0 25.25 C0 21.84, 0 18.43, 0 8.42 M0 8.42 C0 2.81, 2.81 0, 8.42 0 M0 8.42 C0 2.81, 2.81 0, 8.42 0" stroke="#000" stroke-width="2" fill="none"></path></g><g transform="translate(560.0366825044763 172.69451429969376) rotate(0 60.52793884277344 10.799999999999955)"><text x="60.52793884277344" y="16.064" font-family="Nunito, sans-serif, Segoe UI Emoji" font-size="16px" fill="#000" text-anchor="middle" style="white-space: pre;" direction="ltr" dominant-baseline="alphabetic">Prepare Services</text></g><g stroke-linecap="round" transform="translate(529.9738730677755 219.772031622349) rotate(0 90.59074827947427 16.832736918859382)"><path d="M8.42 0 C70.37 0, 132.33 0, 172.77 0 C178.38 0, 181.18 2.81, 181.18 8.42 C181.18 14.88, 181.18 21.34, 181.18 25.25 C181.18 30.86, 178.38 33.67, 172.77 33.67 C124.71 33.67, 76.66 33.67, 8.42 33.67 C2.81 33.67, 0 30.86, 0 25.25 C0 19.07, 0 12.89, 0 8.42 C0 2.81, 2.81 0, 8.42 0" stroke="none" stroke-width="0" fill="#eebefa"></path><path d="M8.42 0 C60.23 0, 112.04 0, 172.77 0 M8.42 0 C60.85 0, 113.28 0, 172.77 0 M172.77 0 C178.38 0, 181.18 2.81, 181.18 8.42 M172.77 0 C178.38 0, 181.18 2.81, 181.18 8.42 M181.18 8.42 C181.18 13.82, 181.18 19.23, 181.18 25.25 M181.18 8.42 C181.18 12.4, 181.18 16.38, 181.18 25.25 M181.18 25.25 C181.18 30.86, 178.38 33.67, 172.77 33.67 M181.18 25.25 C181.18 30.86, 178.38 33.67, 172.77 33.67 M172.77 33.67 C122.24 33.67, 71.72 33.67, 8.42 33.67 M172.77 33.67 C126.1 33.67, 79.43 33.67, 8.42 33.67 M8.42 33.67 C2.81 33.67, 0 30.86, 0 25.25 M8.42 33.67 C2.81 33.67, 0 30.86, 0 25.25 M0 25.25 C0 20.04, 0 14.83, 0 8.42 M0 25.25 C0 18.87, 0 12.49, 0 8.42 M0 8.42 C0 2.81, 2.81 0, 8.42 0 M0 8.42 C0 2.81, 2.81 0, 8.42 0" stroke="#000" stroke-width="2" fill="none"></path></g><g transform="translate(561.6366657198083 225.80476854120843) rotate(0 58.927955627441406 10.799999999999955)"><text x="58.927955627441406" y="16.064" font-family="Nunito, sans-serif, Segoe UI Emoji" font-size="16px" fill="#000" text-anchor="middle" style="white-space: pre;" direction="ltr" dominant-baseline="alphabetic">Start Containers</text></g><g stroke-linecap="round" transform="translate(529.361829582838 272.86103551083124) rotate(0 90.59074827947427 16.832736918859382)"><path d="M8.42 0 C41.31 0, 74.2 0, 172.77 0 C178.38 0, 181.18 2.81, 181.18 8.42 C181.18 14.49, 181.18 20.56, 181.18 25.25 C181.18 30.86, 178.38 33.67, 172.77 33.67 C118.35 33.67, 63.94 33.67, 8.42 33.67 C2.81 33.67, 0 30.86, 0 25.25 C0 21.34, 0 17.43, 0 8.42 C0 2.81, 2.81 0, 8.42 0" stroke="none" stroke-width="0" fill="#fcc2d7"></path><path d="M8.42 0 C51.16 0, 93.9 0, 172.77 0 M8.42 0 C42.49 0, 76.57 0, 172.77 0 M172.77 0 C178.38 0, 181.18 2.81, 181.18 8.42 M172.77 0 C178.38 0, 181.18 2.81, 181.18 8.42 M181.18 8.42 C181.18 12.97, 181.18 17.51, 181.18 25.25 M181.18 8.42 C181.18 13.53, 181.18 18.65, 181.18 25.25 M181.18 25.25 C181.18 30.86, 178.38 33.67, 172.77 33.67 M181.18 25.25 C181.18 30.86, 178.38 33.67, 172.77 33.67 M172.77 33.67 C115.06 33.67, 57.35 33.67, 8.42 33.67 M172.77 33.67 C135.18 33.67, 97.6 33.67, 8.42 33.67 M8.42 33.67 C2.81 33.67, 0 30.86, 0 25.25 M8.42 33.67 C2.81 33.67, 0 30.86, 0 25.25 M0 25.25 C0 21.87, 0 18.49, 0 8.42 M0 25.25 C0 20.37, 0 15.48, 0 8.42 M0 8.42 C0 2.81, 2.81 0, 8.42 0 M0 8.42 C0 2.81, 2.81 0, 8.42 0" stroke="#000" stroke-width="2" fill="none"></path></g><g transform="translate(556.1446249814529 278.89377242969067) rotate(0 63.807952880859375 10.799999999999955)"><text x="63.807952880859375" y="16.064" font-family="Nunito, sans-serif, Segoe UI Emoji" font-size="16px" fill="#000" text-anchor="middle" style="white-space: pre;" direction="ltr" dominant-baseline="alphabetic">Start Executables</text></g><g stroke-linecap="round" transform="translate(529.2460689412165 325.8289272634197) rotate(0 90.59074827947427 16.832736918859382)"><path d="M8.42 0 C62.37 0, 116.32 0, 172.77 0 C178.38 0, 181.18 2.81, 181.18 8.42 C181.18 12.98, 181.18 17.55, 181.18 25.25 C181.18 30.86, 178.38 33.67, 172.77 33.67 C117.5 33.67, 62.24 33.67, 8.42 33.67 C2.81 33.67, 0 30.86, 0 25.25 C0 20.42, 0 15.58, 0 8.42 C0 2.81, 2.81 0, 8.42 0" stroke="none" stroke-width="0" fill="#ebfbee"></path><path d="M8.42 0 C51.36 0, 94.3 0, 172.77 0 M8.42 0 C53.3 0, 98.18 0, 172.77 0 M172.77 0 C178.38 0, 181.18 2.81, 181.18 8.42 M172.77 0 C178.38 0, 181.18 2.81, 181.18 8.42 M181.18 8.42 C181.18 14.51, 181.18 20.6, 181.18 25.25 M181.18 8.42 C181.18 13.16, 181.18 17.9, 181.18 25.25 M181.18 25.25 C181.18 30.86, 178.38 33.67, 172.77 33.67 M181.18 25.25 C181.18 30.86, 178.38 33.67, 172.77 33.67 M172.77 33.67 C124.08 33.67, 75.4 33.67, 8.42 33.67 M172.77 33.67 C123.35 33.67, 73.94 33.67, 8.42 33.67 M8.42 33.67 C2.81 33.67, 0 30.86, 0 25.25 M8.42 33.67 C2.81 33.67, 0 30.86, 0 25.25 M0 25.25 C0 19.13, 0 13, 0 8.42 M0 25.25 C0 19.22, 0 13.18, 0 8.42 M0 8.42 C0 2.81, 2.81 0, 8.42 0 M0 8.42 C0 2.81, 2.81 0, 8.42 0" stroke="#000" stroke-width="2" fill="none"></path></g><g transform="translate(552.6448769130736 331.8616641822791) rotate(0 67.19194030761719 10.799999999999955)"><text x="67.19194030761719" y="16.064" font-family="Nunito, sans-serif, Segoe UI Emoji" font-size="16px" fill="#000" text-anchor="middle" style="white-space: pre;" direction="ltr" dominant-baseline="alphabetic">Monitor Resources</text></g><g stroke-linecap="round" transform="translate(528.6340254562791 378.9179311519024) rotate(0 90.59074827947427 16.832736918859382)"><path d="M8.42 0 C47.46 0, 86.5 0, 172.77 0 C178.38 0, 181.18 2.81, 181.18 8.42 C181.18 12.5, 181.18 16.59, 181.18 25.25 C181.18 30.86, 178.38 33.67, 172.77 33.67 C109.4 33.67, 46.03 33.67, 8.42 33.67 C2.81 33.67, 0 30.86, 0 25.25 C0 19.29, 0 13.32, 0 8.42 C0 2.81, 2.81 0, 8.42 0" stroke="none" stroke-width="0" fill="#fff9db"></path><path d="M8.42 0 C72.99 0, 137.55 0, 172.77 0 M8.42 0 C51.84 0, 95.27 0, 172.77 0 M172.77 0 C178.38 0, 181.18 2.81, 181.18 8.42 M172.77 0 C178.38 0, 181.18 2.81, 181.18 8.42 M181.18 8.42 C181.18 12.95, 181.18 17.49, 181.18 25.25 M181.18 8.42 C181.18 14.83, 181.18 21.24, 181.18 25.25 M181.18 25.25 C181.18 30.86, 178.38 33.67, 172.77 33.67 M181.18 25.25 C181.18 30.86, 178.38 33.67, 172.77 33.67 M172.77 33.67 C122.59 33.67, 72.42 33.67, 8.42 33.67 M172.77 33.67 C109.96 33.67, 47.16 33.67, 8.42 33.67 M8.42 33.67 C2.81 33.67, 0 30.86, 0 25.25 M8.42 33.67 C2.81 33.67, 0 30.86, 0 25.25 M0 25.25 C0 20.17, 0 15.09, 0 8.42 M0 25.25 C0 20.82, 0 16.39, 0 8.42 M0 8.42 C0 2.81, 2.81 0, 8.42 0 M0 8.42 C0 2.81, 2.81 0, 8.42 0" stroke="#000" stroke-width="2" fill="none"></path></g><g transform="translate(559.4088023612417 384.9506680707618) rotate(0 59.81597137451172 10.799999999999955)"><text x="59.81597137451172" y="16.064" font-family="Nunito, sans-serif, Segoe UI Emoji" font-size="16px" fill="#000" text-anchor="middle" style="white-space: pre;" direction="ltr" dominant-baseline="alphabetic">Start Dashboard</text></g></svg>