<?xml version="1.0" standalone="no"?>
<!DOCTYPE svg PUBLIC "-//W3C//DTD SVG 1.1//EN" "http://www.w3.org/Graphics/SVG/1.1/DTD/svg11.dtd">
<svg version="1.1" xmlns="http://www.w3.org/2000/svg" viewBox="0 0 818.0312423706055 429.59999656677246" width="2454.0937271118164" height="1288.7999897003174" filter="invert(93%) hue-rotate(180deg)"><!-- svg-source:excalidraw --><metadata></metadata><defs><style class="style-fonts">
      @font-face { font-family: Nunito; src: url(https://esm.sh/@excalidraw/excalidraw/dist/prod/fonts/Nunito/Nunito-Regular-XRXI3I6Li01BKofiOc5wtlZ2di8HDIkhdTQ3j6zbXWjgeg.woff2); }</style></defs><rect x="0" y="0" width="818.0312423706055" height="429.59999656677246" fill="#ffffff"></rect><g stroke-linecap="round" transform="translate(10 24.40000057220459) rotate(0 137.0812530517578 21.899999618530273)"><path d="M10.95 0 C107.67 0, 204.39 0, 263.21 0 C270.51 0, 274.16 3.65, 274.16 10.95 C274.16 18.24, 274.16 25.53, 274.16 32.85 C274.16 40.15, 270.51 43.8, 263.21 43.8 C196.94 43.8, 130.66 43.8, 10.95 43.8 C3.65 43.8, 0 40.15, 0 32.85 C0 25.56, 0 18.27, 0 10.95 C0 3.65, 3.65 0, 10.95 0" stroke="none" stroke-width="0" fill="#e7f5ff"></path><path d="M10.95 0 C63.21 0, 115.48 0, 263.21 0 M10.95 0 C69.47 0, 127.99 0, 263.21 0 M263.21 0 C270.51 0, 274.16 3.65, 274.16 10.95 M263.21 0 C270.51 0, 274.16 3.65, 274.16 10.95 M274.16 10.95 C274.16 16.08, 274.16 21.21, 274.16 32.85 M274.16 10.95 C274.16 16.78, 274.16 22.61, 274.16 32.85 M274.16 32.85 C274.16 40.15, 270.51 43.8, 263.21 43.8 M274.16 32.85 C274.16 40.15, 270.51 43.8, 263.21 43.8 M263.21 43.8 C192.76 43.8, 122.3 43.8, 10.95 43.8 M263.21 43.8 C197.88 43.8, 132.54 43.8, 10.95 43.8 M10.95 43.8 C3.65 43.8, 0 40.15, 0 32.85 M10.95 43.8 C3.65 43.8, 0 40.15, 0 32.85 M0 32.85 C0 27.47, 0 22.08, 0 10.95 M0 32.85 C0 27.76, 0 22.68, 0 10.95 M0 10.95 C0 3.65, 3.65 0, 10.95 0 M0 10.95 C0 3.65, 3.65 0, 10.95 0" stroke="#1e1e1e" stroke-width="2" fill="none"></path></g><g transform="translate(42.96137237548828 32.80000019073486) rotate(0 104.11988067626953 13.5)"><text x="104.11988067626953" y="20.08" font-family="Nunito, sans-serif, Segoe UI Emoji" font-size="20px" fill="#1e1e1e" text-anchor="middle" style="white-space: pre;" direction="ltr" dominant-baseline="alphabetic">Dev-time orchestration</text></g><g stroke-linecap="round" transform="translate(334.1625099182129 10) rotate(0 71.01875305175781 45.5)"><path d="M22.75 0 C43.88 0, 65.01 0, 119.29 0 C134.45 0, 142.04 7.58, 142.04 22.75 C142.04 37.13, 142.04 51.51, 142.04 68.25 C142.04 83.42, 134.45 91, 119.29 91 C82.07 91, 44.85 91, 22.75 91 C7.58 91, 0 83.42, 0 68.25 C0 58.93, 0 49.6, 0 22.75 C0 7.58, 7.58 0, 22.75 0" stroke="none" stroke-width="0" fill="#61dafb"></path><path d="M22.75 0 C46.39 0, 70.03 0, 119.29 0 M22.75 0 C57.58 0, 92.4 0, 119.29 0 M119.29 0 C134.45 0, 142.04 7.58, 142.04 22.75 M119.29 0 C134.45 0, 142.04 7.58, 142.04 22.75 M142.04 22.75 C142.04 33, 142.04 43.24, 142.04 68.25 M142.04 22.75 C142.04 34.45, 142.04 46.16, 142.04 68.25 M142.04 68.25 C142.04 83.42, 134.45 91, 119.29 91 M142.04 68.25 C142.04 83.42, 134.45 91, 119.29 91 M119.29 91 C92.78 91, 66.26 91, 22.75 91 M119.29 91 C81.89 91, 44.5 91, 22.75 91 M22.75 91 C7.58 91, 0 83.42, 0 68.25 M22.75 91 C7.58 91, 0 83.42, 0 68.25 M0 68.25 C0 57.56, 0 46.87, 0 22.75 M0 68.25 C0 58.14, 0 48.03, 0 22.75 M0 22.75 C0 7.58, 7.58 0, 22.75 0 M0 22.75 C0 7.58, 7.58 0, 22.75 0" stroke="#1e1e1e" stroke-width="2" fill="none"></path></g><g transform="translate(353.86133193969727 28.5) rotate(0 51.31993103027344 27)"><text x="51.31993103027344" y="20.08" font-family="Nunito, sans-serif, Segoe UI Emoji" font-size="20px" fill="#1e1e1e" text-anchor="middle" style="white-space: pre;" direction="ltr" dominant-baseline="alphabetic">React app</text><text x="51.31993103027344" y="47.08" font-family="Nunito, sans-serif, Segoe UI Emoji" font-size="20px" fill="#1e1e1e" text-anchor="middle" style="white-space: pre;" direction="ltr" dominant-baseline="alphabetic">(npm start)</text></g><g stroke-linecap="round" transform="translate(256.5249938964844 197.39999961853027) rotate(0 149.4562530517578 36.29999923706055)"><path d="M18.15 0 C81.01 0, 143.88 0, 280.76 0 C292.86 0, 298.91 6.05, 298.91 18.15 C298.91 31.55, 298.91 44.95, 298.91 54.45 C298.91 66.55, 292.86 72.6, 280.76 72.6 C181.51 72.6, 82.26 72.6, 18.15 72.6 C6.05 72.6, 0 66.55, 0 54.45 C0 45.31, 0 36.18, 0 18.15 C0 6.05, 6.05 0, 18.15 0" stroke="none" stroke-width="0" fill="#512bd4"></path><path d="M18.15 0 C117.38 0, 216.6 0, 280.76 0 M18.15 0 C96.58 0, 175.01 0, 280.76 0 M280.76 0 C292.86 0, 298.91 6.05, 298.91 18.15 M280.76 0 C292.86 0, 298.91 6.05, 298.91 18.15 M298.91 18.15 C298.91 28.55, 298.91 38.96, 298.91 54.45 M298.91 18.15 C298.91 29.43, 298.91 40.71, 298.91 54.45 M298.91 54.45 C298.91 66.55, 292.86 72.6, 280.76 72.6 M298.91 54.45 C298.91 66.55, 292.86 72.6, 280.76 72.6 M280.76 72.6 C220.26 72.6, 159.75 72.6, 18.15 72.6 M280.76 72.6 C207.45 72.6, 134.14 72.6, 18.15 72.6 M18.15 72.6 C6.05 72.6, 0 66.55, 0 54.45 M18.15 72.6 C6.05 72.6, 0 66.55, 0 54.45 M0 54.45 C0 41.23, 0 28, 0 18.15 M0 54.45 C0 41.77, 0 29.09, 0 18.15 M0 18.15 C0 6.05, 6.05 0, 18.15 0 M0 18.15 C0 6.05, 6.05 0, 18.15 0" stroke="#ffffff" stroke-width="2" fill="none"></path></g><g transform="translate(284.0713653564453 206.69999885559082) rotate(0 121.90988159179688 27)"><text x="121.90988159179688" y="20.08" font-family="Nunito, sans-serif, Segoe UI Emoji" font-size="20px" fill="#ffffff" text-anchor="middle" style="white-space: pre;" direction="ltr" dominant-baseline="alphabetic">ASP.NET Core Minimal API</text><text x="121.90988159179688" y="47.08" font-family="Nunito, sans-serif, Segoe UI Emoji" font-size="20px" fill="#ffffff" text-anchor="middle" style="white-space: pre;" direction="ltr" dominant-baseline="alphabetic">(dotnet run)</text></g><g stroke-linecap="round" transform="translate(36.21876525878906 346.2000102996826) rotate(0 102.9437484741211 36.29999923706055)"><path d="M18.15 0 C79.9 0, 141.65 0, 187.74 0 C199.84 0, 205.89 6.05, 205.89 18.15 C205.89 28.72, 205.89 39.3, 205.89 54.45 C205.89 66.55, 199.84 72.6, 187.74 72.6 C136.24 72.6, 84.75 72.6, 18.15 72.6 C6.05 72.6, 0 66.55, 0 54.45 C0 44.82, 0 35.18, 0 18.15 C0 6.05, 6.05 0, 18.15 0" stroke="none" stroke-width="0" fill="#ffc9c9"></path><path d="M18.15 0 C85.51 0, 152.86 0, 187.74 0 M18.15 0 C67.34 0, 116.53 0, 187.74 0 M187.74 0 C199.84 0, 205.89 6.05, 205.89 18.15 M187.74 0 C199.84 0, 205.89 6.05, 205.89 18.15 M205.89 18.15 C205.89 27.37, 205.89 36.6, 205.89 54.45 M205.89 18.15 C205.89 29.55, 205.89 40.95, 205.89 54.45 M205.89 54.45 C205.89 66.55, 199.84 72.6, 187.74 72.6 M205.89 54.45 C205.89 66.55, 199.84 72.6, 187.74 72.6 M187.74 72.6 C128.07 72.6, 68.41 72.6, 18.15 72.6 M187.74 72.6 C130.12 72.6, 72.5 72.6, 18.15 72.6 M18.15 72.6 C6.05 72.6, 0 66.55, 0 54.45 M18.15 72.6 C6.05 72.6, 0 66.55, 0 54.45 M0 54.45 C0 42.34, 0 30.23, 0 18.15 M0 54.45 C0 46.76, 0 39.07, 0 18.15 M0 18.15 C0 6.05, 6.05 0, 18.15 0 M0 18.15 C0 6.05, 6.05 0, 18.15 0" stroke="#1e1e1e" stroke-width="2" fill="none"></path></g><g transform="translate(62.98260498046875 355.50000953674316) rotate(0 76.1799087524414 27)"><text x="76.1799087524414" y="20.08" font-family="Nunito, sans-serif, Segoe UI Emoji" font-size="20px" fill="#1e1e1e" text-anchor="middle" style="white-space: pre;" direction="ltr" dominant-baseline="alphabetic">Cache</text><text x="76.1799087524414" y="47.08" font-family="Nunito, sans-serif, Segoe UI Emoji" font-size="20px" fill="#1e1e1e" text-anchor="middle" style="white-space: pre;" direction="ltr" dominant-baseline="alphabetic">(Redis container)</text></g><g stroke-linecap="round" transform="translate(291.8314524320283 346.99999809265137) rotate(0 113.07499694824219 36.29999923706055)"><path d="M18.15 0 C64.85 0, 111.54 0, 208 0 C220.1 0, 226.15 6.05, 226.15 18.15 C226.15 31.23, 226.15 44.32, 226.15 54.45 C226.15 66.55, 220.1 72.6, 208 72.6 C144.38 72.6, 80.77 72.6, 18.15 72.6 C6.05 72.6, 0 66.55, 0 54.45 C0 42.04, 0 29.63, 0 18.15 C0 6.05, 6.05 0, 18.15 0" stroke="none" stroke-width="0" fill="#b2f2bb"></path><path d="M18.15 0 C80.35 0, 142.56 0, 208 0 M18.15 0 C57.7 0, 97.24 0, 208 0 M208 0 C220.1 0, 226.15 6.05, 226.15 18.15 M208 0 C220.1 0, 226.15 6.05, 226.15 18.15 M226.15 18.15 C226.15 31.65, 226.15 45.15, 226.15 54.45 M226.15 18.15 C226.15 25.72, 226.15 33.29, 226.15 54.45 M226.15 54.45 C226.15 66.55, 220.1 72.6, 208 72.6 M226.15 54.45 C226.15 66.55, 220.1 72.6, 208 72.6 M208 72.6 C164.78 72.6, 121.56 72.6, 18.15 72.6 M208 72.6 C159.88 72.6, 111.77 72.6, 18.15 72.6 M18.15 72.6 C6.05 72.6, 0 66.55, 0 54.45 M18.15 72.6 C6.05 72.6, 0 66.55, 0 54.45 M0 54.45 C0 47.14, 0 39.83, 0 18.15 M0 54.45 C0 43.13, 0 31.8, 0 18.15 M0 18.15 C0 6.05, 6.05 0, 18.15 0 M0 18.15 C0 6.05, 6.05 0, 18.15 0" stroke="#1e1e1e" stroke-width="2" fill="none"></path></g><g transform="translate(320.83654123818064 356.2999973297119) rotate(0 84.06990814208984 27)"><text x="84.06990814208984" y="20.08" font-family="Nunito, sans-serif, Segoe UI Emoji" font-size="20px" fill="#1e1e1e" text-anchor="middle" style="white-space: pre;" direction="ltr" dominant-baseline="alphabetic">AI Service</text><text x="84.06990814208984" y="47.08" font-family="Nunito, sans-serif, Segoe UI Emoji" font-size="20px" fill="#1e1e1e" text-anchor="middle" style="white-space: pre;" direction="ltr" dominant-baseline="alphabetic">(Ollama container)</text></g><g stroke-linecap="round" transform="translate(568.2562484741211 346.99999809265137) rotate(0 119.88749694824219 36.29999923706055)"><path d="M18.15 0 C98.8 0, 179.46 0, 221.62 0 C233.72 0, 239.77 6.05, 239.77 18.15 C239.77 25.72, 239.77 33.28, 239.77 54.45 C239.77 66.55, 233.72 72.6, 221.62 72.6 C165.02 72.6, 108.41 72.6, 18.15 72.6 C6.05 72.6, 0 66.55, 0 54.45 C0 41.52, 0 28.59, 0 18.15 C0 6.05, 6.05 0, 18.15 0" stroke="none" stroke-width="0" fill="#336791"></path><path d="M18.15 0 C89.88 0, 161.62 0, 221.62 0 M18.15 0 C65.07 0, 112 0, 221.62 0 M221.62 0 C233.72 0, 239.77 6.05, 239.77 18.15 M221.62 0 C233.72 0, 239.77 6.05, 239.77 18.15 M239.77 18.15 C239.77 26.06, 239.77 33.97, 239.77 54.45 M239.77 18.15 C239.77 27.74, 239.77 37.33, 239.77 54.45 M239.77 54.45 C239.77 66.55, 233.72 72.6, 221.62 72.6 M239.77 54.45 C239.77 66.55, 233.72 72.6, 221.62 72.6 M221.62 72.6 C149.33 72.6, 77.04 72.6, 18.15 72.6 M221.62 72.6 C169.06 72.6, 116.5 72.6, 18.15 72.6 M18.15 72.6 C6.05 72.6, 0 66.55, 0 54.45 M18.15 72.6 C6.05 72.6, 0 66.55, 0 54.45 M0 54.45 C0 43.22, 0 31.98, 0 18.15 M0 54.45 C0 42.44, 0 30.43, 0 18.15 M0 18.15 C0 6.05, 6.05 0, 18.15 0 M0 18.15 C0 6.05, 6.05 0, 18.15 0" stroke="#ffffff" stroke-width="2" fill="none"></path></g><g transform="translate(597.2838592529297 356.2999973297119) rotate(0 90.8598861694336 27)"><text x="90.8598861694336" y="20.08" font-family="Nunito, sans-serif, Segoe UI Emoji" font-size="20px" fill="#ffffff" text-anchor="middle" style="white-space: pre;" direction="ltr" dominant-baseline="alphabetic">Database</text><text x="90.8598861694336" y="47.08" font-family="Nunito, sans-serif, Segoe UI Emoji" font-size="20px" fill="#ffffff" text-anchor="middle" style="white-space: pre;" direction="ltr" dominant-baseline="alphabetic">(Postgres container)</text></g><g mask="url(#mask-IJbAlU10ucG2T8xnGrCGr)" stroke-linecap="round"><g transform="translate(405.18100000000004 111.39185150547758) rotate(0 0.271153483639182 42.81965580172698)"><path d="M0 0 C0 6.39, -0.09 24.05, 0 38.32 C0.09 52.59, 0.45 77.75, 0.54 85.64 M0 0 C0 6.39, -0.09 24.05, 0 38.32 C0.09 52.59, 0.45 77.75, 0.54 85.64" stroke="#1e1e1e" stroke-width="2" fill="none"></path></g><g transform="translate(405.18100000000004 111.39185150547758) rotate(0 0.271153483639182 42.81965580172698)"><path d="M0.54 85.64 L-5.97 72.13 L6.71 71.97 L0.54 85.64" stroke="none" stroke-width="0" fill="#1e1e1e" fill-rule="evenodd"></path><path d="M0.54 85.64 C-1.66 81.06, -3.87 76.48, -5.97 72.13 M0.54 85.64 C-1.5 81.41, -3.54 77.18, -5.97 72.13 M-5.97 72.13 C-2.34 72.08, 1.3 72.03, 6.71 71.97 M-5.97 72.13 C-2.03 72.08, 1.91 72.03, 6.71 71.97 M6.71 71.97 C4.75 76.3, 2.8 80.64, 0.54 85.64 M6.71 71.97 C5.38 74.92, 4.05 77.87, 0.54 85.64 M0.54 85.64 C0.54 85.64, 0.54 85.64, 0.54 85.64 M0.54 85.64 C0.54 85.64, 0.54 85.64, 0.54 85.64" stroke="#1e1e1e" stroke-width="2" fill="none"></path></g></g><mask id="mask-IJbAlU10ucG2T8xnGrCGr"><rect x="0" y="0" fill="#fff" width="505.7233069672784" height="297.03116310893154"></rect><rect x="360.4810183105469" y="136.21042110496506" fill="#000" width="89.39996337890625" height="27" opacity="1"></rect></mask><g transform="translate(360.4810183105469 136.21042110496506) rotate(0 44.95104972985979 18.00108620223949)"><text x="44.699981689453125" y="20.08" font-family="Nunito, sans-serif, Segoe UI Emoji" font-size="20px" fill="#1e1e1e" text-anchor="middle" style="white-space: pre;" direction="ltr" dominant-baseline="alphabetic">HTTP/API</text></g><g stroke-linecap="round"><g transform="translate(259.1551316308039 267.94407479116416) rotate(0 -59.99606581540212 38.9590880849744)"><path d="M0 0 C-20 4.51, -99.99 14.07, -119.99 27.06 C-139.99 40.04, -119.99 69.44, -119.99 77.92 M0 0 C-20 4.51, -99.99 14.07, -119.99 27.06 C-139.99 40.04, -119.99 69.44, -119.99 77.92" stroke="#1e1e1e" stroke-width="2" fill="none"></path></g><g transform="translate(259.1551316308039 267.94407479116416) rotate(0 -59.99606581540212 38.9590880849744)"><path d="M-119.99 77.92 L-130.05 66.79 L-117.94 63.06 L-119.99 77.92" stroke="none" stroke-width="0" fill="#1e1e1e" fill-rule="evenodd"></path><path d="M-119.99 77.92 C-123.63 73.89, -127.27 69.86, -130.05 66.79 M-119.99 77.92 C-122.67 74.96, -125.34 72, -130.05 66.79 M-130.05 66.79 C-126.97 65.84, -123.9 64.9, -117.94 63.06 M-130.05 66.79 C-126.25 65.62, -122.44 64.45, -117.94 63.06 M-117.94 63.06 C-118.55 67.48, -119.16 71.91, -119.99 77.92 M-117.94 63.06 C-118.54 67.41, -119.14 71.76, -119.99 77.92 M-119.99 77.92 C-119.99 77.92, -119.99 77.92, -119.99 77.92 M-119.99 77.92 C-119.99 77.92, -119.99 77.92, -119.99 77.92" stroke="#1e1e1e" stroke-width="2" fill="none"></path></g></g><mask></mask><g stroke-linecap="round"><g transform="translate(405.61674412456205 270.2406263529243) rotate(0 -0.34946797958269826 38.22429291748719)"><path d="M0 0 C-0.12 12.74, -0.58 63.71, -0.7 76.45 M0 0 C-0.12 12.74, -0.58 63.71, -0.7 76.45" stroke="#1e1e1e" stroke-width="2" fill="none"></path></g><g transform="translate(405.61674412456205 270.2406263529243) rotate(0 -0.34946797958269826 38.22429291748719)"><path d="M-0.7 76.45 L-6.91 62.8 L5.76 62.91 L-0.7 76.45" stroke="none" stroke-width="0" fill="#1e1e1e" fill-rule="evenodd"></path><path d="M-0.7 76.45 C-2.13 73.29, -3.57 70.14, -6.91 62.8 M-0.7 76.45 C-2.11 73.34, -3.53 70.23, -6.91 62.8 M-6.91 62.8 C-2.2 62.84, 2.52 62.88, 5.76 62.91 M-6.91 62.8 C-4.27 62.82, -1.63 62.84, 5.76 62.91 M5.76 62.91 C3.96 66.69, 2.15 70.47, -0.7 76.45 M5.76 62.91 C4.09 66.42, 2.42 69.92, -0.7 76.45 M-0.7 76.45 C-0.7 76.45, -0.7 76.45, -0.7 76.45 M-0.7 76.45 C-0.7 76.45, -0.7 76.45, -0.7 76.45" stroke="#1e1e1e" stroke-width="2" fill="none"></path></g></g><mask></mask><g stroke-linecap="round"><g transform="translate(554.0959644904483 266.3820284519469) rotate(0 67.02401775477585 40.161567013726)"><path d="M0 0 C22.34 4.77, 111.71 15.23, 134.05 28.62 C156.39 42.01, 134.05 71.71, 134.05 80.32 M0 0 C22.34 4.77, 111.71 15.23, 134.05 28.62 C156.39 42.01, 134.05 71.71, 134.05 80.32" stroke="#1e1e1e" stroke-width="2" fill="none"></path></g><g transform="translate(554.0959644904483 266.3820284519469) rotate(0 67.02401775477585 40.161567013726)"><path d="M134.05 80.32 L132.42 65.41 L144.42 69.49 L134.05 80.32" stroke="none" stroke-width="0" fill="#1e1e1e" fill-rule="evenodd"></path><path d="M134.05 80.32 C133.7 77.13, 133.35 73.95, 132.42 65.41 M134.05 80.32 C133.49 75.23, 132.93 70.14, 132.42 65.41 M132.42 65.41 C135.03 66.3, 137.65 67.19, 144.42 69.49 M132.42 65.41 C135.59 66.49, 138.76 67.57, 144.42 69.49 M144.42 69.49 C141.57 72.46, 138.72 75.44, 134.05 80.32 M144.42 69.49 C140.4 73.68, 136.38 77.88, 134.05 80.32 M134.05 80.32 C134.05 80.32, 134.05 80.32, 134.05 80.32 M134.05 80.32 C134.05 80.32, 134.05 80.32, 134.05 80.32" stroke="#1e1e1e" stroke-width="2" fill="none"></path></g></g><mask></mask></svg>