<?xml version="1.0" standalone="no"?>
<!DOCTYPE svg PUBLIC "-//W3C//DTD SVG 1.1//EN" "http://www.w3.org/Graphics/SVG/1.1/DTD/svg11.dtd">
<svg version="1.1" xmlns="http://www.w3.org/2000/svg" viewBox="0 0 865.2429336042375 447.89273998461465" width="2595.7288008127125" height="1343.6782199538438"><!-- svg-source:excalidraw --><metadata></metadata><defs><style class="style-fonts">
      @font-face { font-family: Nunito; src: url(https://esm.sh/@excalidraw/excalidraw/dist/prod/fonts/Nunito/Nunito-Regular-XRXI3I6Li01BKofiOc5wtlZ2di8HDIkhdTQ3j6zbXWjgeg.woff2); }</style></defs><rect x="0" y="0" width="865.2429336042375" height="447.89273998461465" fill="#ffffff"></rect><g stroke-linecap="round" transform="translate(41.27864422076064 25.092730257136623) rotate(0 89.62855613343982 21.899999618530273)"><path d="M10.95 0 C67.96 0, 124.96 0, 168.31 0 C175.61 0, 179.26 3.65, 179.26 10.95 C179.26 16.09, 179.26 21.22, 179.26 32.85 C179.26 40.15, 175.61 43.8, 168.31 43.8 C129.75 43.8, 91.2 43.8, 10.95 43.8 C3.65 43.8, 0 40.15, 0 32.85 C0 28.13, 0 23.42, 0 10.95 C0 3.65, 3.65 0, 10.95 0" stroke="none" stroke-width="0" fill="#e6fcf5"></path><path d="M10.95 0 C62.11 0, 113.27 0, 168.31 0 M10.95 0 C50.88 0, 90.81 0, 168.31 0 M168.31 0 C175.61 0, 179.26 3.65, 179.26 10.95 M168.31 0 C175.61 0, 179.26 3.65, 179.26 10.95 M179.26 10.95 C179.26 15.81, 179.26 20.67, 179.26 32.85 M179.26 10.95 C179.26 16.35, 179.26 21.74, 179.26 32.85 M179.26 32.85 C179.26 40.15, 175.61 43.8, 168.31 43.8 M179.26 32.85 C179.26 40.15, 175.61 43.8, 168.31 43.8 M168.31 43.8 C136.1 43.8, 103.9 43.8, 10.95 43.8 M168.31 43.8 C121.82 43.8, 75.33 43.8, 10.95 43.8 M10.95 43.8 C3.65 43.8, 0 40.15, 0 32.85 M10.95 43.8 C3.65 43.8, 0 40.15, 0 32.85 M0 32.85 C0 25.84, 0 18.82, 0 10.95 M0 32.85 C0 24.55, 0 16.25, 0 10.95 M0 10.95 C0 3.65, 3.65 0, 10.95 0 M0 10.95 C0 3.65, 3.65 0, 10.95 0" stroke="#1e1e1e" stroke-width="2" fill="none"></path></g><g transform="translate(97.15723850117311 33.492729875666896) rotate(0 33.749961853027344 13.5)"><text x="33.749961853027344" y="20.08" font-family="Nunito, sans-serif, Segoe UI Emoji" font-size="20px" fill="#1e1e1e" text-anchor="middle" style="white-space: pre;" direction="ltr" dominant-baseline="alphabetic">Publish</text></g><g stroke-linecap="round" transform="translate(283.005106038662 10) rotate(0 115.35408711005107 45.5)"><path d="M22.75 0 C77.2 0, 131.65 0, 207.96 0 C223.12 0, 230.71 7.58, 230.71 22.75 C230.71 31.98, 230.71 41.2, 230.71 68.25 C230.71 83.42, 223.12 91, 207.96 91 C164.18 91, 120.41 91, 22.75 91 C7.58 91, 0 83.42, 0 68.25 C0 50.76, 0 33.28, 0 22.75 C0 7.58, 7.58 0, 22.75 0" stroke="none" stroke-width="0" fill="#61dafb"></path><path d="M22.75 0 C95.9 0, 169.06 0, 207.96 0 M22.75 0 C88.72 0, 154.7 0, 207.96 0 M207.96 0 C223.12 0, 230.71 7.58, 230.71 22.75 M207.96 0 C223.12 0, 230.71 7.58, 230.71 22.75 M230.71 22.75 C230.71 37.49, 230.71 52.23, 230.71 68.25 M230.71 22.75 C230.71 35.04, 230.71 47.33, 230.71 68.25 M230.71 68.25 C230.71 83.42, 223.12 91, 207.96 91 M230.71 68.25 C230.71 83.42, 223.12 91, 207.96 91 M207.96 91 C167.54 91, 127.12 91, 22.75 91 M207.96 91 C138.39 91, 68.83 91, 22.75 91 M22.75 91 C7.58 91, 0 83.42, 0 68.25 M22.75 91 C7.58 91, 0 83.42, 0 68.25 M0 68.25 C0 51.11, 0 33.98, 0 22.75 M0 68.25 C0 51.21, 0 34.18, 0 22.75 M0 22.75 C0 7.58, 7.58 0, 22.75 0 M0 22.75 C0 7.58, 7.58 0, 22.75 0" stroke="#1e1e1e" stroke-width="2" fill="none"></path></g><g transform="translate(291.0993130827951 28.5) rotate(0 107.25988006591797 27)"><text x="107.25988006591797" y="20.08" font-family="Nunito, sans-serif, Segoe UI Emoji" font-size="20px" fill="#1e1e1e" text-anchor="middle" style="white-space: pre;" direction="ltr" dominant-baseline="alphabetic">React app</text><text x="107.25988006591797" y="47.08" font-family="Nunito, sans-serif, Segoe UI Emoji" font-size="20px" fill="#1e1e1e" text-anchor="middle" style="white-space: pre;" direction="ltr" dominant-baseline="alphabetic">(Azure Static Web App)</text></g><g stroke-linecap="round" transform="translate(248.31746470536282 197.39999961853033) rotate(0 149.4562530517578 36.29999923706055)"><path d="M18.15 0 C81.48 0, 144.82 0, 280.76 0 C292.86 0, 298.91 6.05, 298.91 18.15 C298.91 31.71, 298.91 45.27, 298.91 54.45 C298.91 66.55, 292.86 72.6, 280.76 72.6 C199.49 72.6, 118.22 72.6, 18.15 72.6 C6.05 72.6, 0 66.55, 0 54.45 C0 40.02, 0 25.6, 0 18.15 C0 6.05, 6.05 0, 18.15 0" stroke="none" stroke-width="0" fill="#512bd4"></path><path d="M18.15 0 C72.98 0, 127.82 0, 280.76 0 M18.15 0 C96.75 0, 175.35 0, 280.76 0 M280.76 0 C292.86 0, 298.91 6.05, 298.91 18.15 M280.76 0 C292.86 0, 298.91 6.05, 298.91 18.15 M298.91 18.15 C298.91 32.62, 298.91 47.09, 298.91 54.45 M298.91 18.15 C298.91 31.57, 298.91 44.98, 298.91 54.45 M298.91 54.45 C298.91 66.55, 292.86 72.6, 280.76 72.6 M298.91 54.45 C298.91 66.55, 292.86 72.6, 280.76 72.6 M280.76 72.6 C177.61 72.6, 74.47 72.6, 18.15 72.6 M280.76 72.6 C213.13 72.6, 145.5 72.6, 18.15 72.6 M18.15 72.6 C6.05 72.6, 0 66.55, 0 54.45 M18.15 72.6 C6.05 72.6, 0 66.55, 0 54.45 M0 54.45 C0 45.69, 0 36.92, 0 18.15 M0 54.45 C0 43.99, 0 33.53, 0 18.15 M0 18.15 C0 6.05, 6.05 0, 18.15 0 M0 18.15 C0 6.05, 6.05 0, 18.15 0" stroke="#ffffff" stroke-width="2" fill="none"></path></g><g transform="translate(275.86383616532373 206.69999885559088) rotate(0 121.90988159179688 27)"><text x="121.90988159179688" y="20.08" font-family="Nunito, sans-serif, Segoe UI Emoji" font-size="20px" fill="#ffffff" text-anchor="middle" style="white-space: pre;" direction="ltr" dominant-baseline="alphabetic">ASP.NET Core Minimal API</text><text x="121.90988159179688" y="47.08" font-family="Nunito, sans-serif, Segoe UI Emoji" font-size="20px" fill="#ffffff" text-anchor="middle" style="white-space: pre;" direction="ltr" dominant-baseline="alphabetic">(Azure Container App)</text></g><g stroke-linecap="round" transform="translate(10 346.89273998461465) rotate(0 115.41306778450196 45.5)"><path d="M22.75 0 C89.66 0, 156.57 0, 208.08 0 C223.24 0, 230.83 7.58, 230.83 22.75 C230.83 35.79, 230.83 48.83, 230.83 68.25 C230.83 83.42, 223.24 91, 208.08 91 C156.58 91, 105.09 91, 22.75 91 C7.58 91, 0 83.42, 0 68.25 C0 57.42, 0 46.6, 0 22.75 C0 7.58, 7.58 0, 22.75 0" stroke="none" stroke-width="0" fill="#ffc9c9"></path><path d="M22.75 0 C78.13 0, 133.51 0, 208.08 0 M22.75 0 C94.13 0, 165.52 0, 208.08 0 M208.08 0 C223.24 0, 230.83 7.58, 230.83 22.75 M208.08 0 C223.24 0, 230.83 7.58, 230.83 22.75 M230.83 22.75 C230.83 33.43, 230.83 44.11, 230.83 68.25 M230.83 22.75 C230.83 35.99, 230.83 49.23, 230.83 68.25 M230.83 68.25 C230.83 83.42, 223.24 91, 208.08 91 M230.83 68.25 C230.83 83.42, 223.24 91, 208.08 91 M208.08 91 C138.95 91, 69.82 91, 22.75 91 M208.08 91 C146.75 91, 85.43 91, 22.75 91 M22.75 91 C7.58 91, 0 83.42, 0 68.25 M22.75 91 C7.58 91, 0 83.42, 0 68.25 M0 68.25 C0 58.43, 0 48.61, 0 22.75 M0 68.25 C0 52.17, 0 36.08, 0 22.75 M0 22.75 C0 7.58, 7.58 0, 22.75 0 M0 22.75 C0 7.58, 7.58 0, 22.75 0" stroke="#1e1e1e" stroke-width="2" fill="none"></path></g><g transform="translate(19.36318680305665 365.39273998461465) rotate(0 106.04988098144531 27)"><text x="106.04988098144531" y="20.08" font-family="Nunito, sans-serif, Segoe UI Emoji" font-size="20px" fill="#1e1e1e" text-anchor="middle" style="white-space: pre;" direction="ltr" dominant-baseline="alphabetic">Cache</text><text x="106.04988098144531" y="47.08" font-family="Nunito, sans-serif, Segoe UI Emoji" font-size="20px" fill="#1e1e1e" text-anchor="middle" style="white-space: pre;" direction="ltr" dominant-baseline="alphabetic">(Azure Cache for Redis)</text></g><g stroke-linecap="round" transform="translate(283.6239232409067 347.6927277775834) rotate(0 113.07499694824219 44.26649631755277)"><path d="M22.13 0 C85.49 0, 148.84 0, 204.02 0 C218.77 0, 226.15 7.38, 226.15 22.13 C226.15 37.36, 226.15 52.58, 226.15 66.4 C226.15 81.16, 218.77 88.53, 204.02 88.53 C150.83 88.53, 97.64 88.53, 22.13 88.53 C7.38 88.53, 0 81.16, 0 66.4 C0 50.82, 0 35.25, 0 22.13 C0 7.38, 7.38 0, 22.13 0" stroke="none" stroke-width="0" fill="#b2f2bb"></path><path d="M22.13 0 C83.03 0, 143.92 0, 204.02 0 M22.13 0 C90.98 0, 159.82 0, 204.02 0 M204.02 0 C218.77 0, 226.15 7.38, 226.15 22.13 M204.02 0 C218.77 0, 226.15 7.38, 226.15 22.13 M226.15 22.13 C226.15 37.98, 226.15 53.82, 226.15 66.4 M226.15 22.13 C226.15 32.87, 226.15 43.6, 226.15 66.4 M226.15 66.4 C226.15 81.16, 218.77 88.53, 204.02 88.53 M226.15 66.4 C226.15 81.16, 218.77 88.53, 204.02 88.53 M204.02 88.53 C141.96 88.53, 79.9 88.53, 22.13 88.53 M204.02 88.53 C158.94 88.53, 113.87 88.53, 22.13 88.53 M22.13 88.53 C7.38 88.53, 0 81.16, 0 66.4 M22.13 88.53 C7.38 88.53, 0 81.16, 0 66.4 M0 66.4 C0 51.43, 0 36.46, 0 22.13 M0 66.4 C0 54.61, 0 42.81, 0 22.13 M0 22.13 C0 7.38, 7.38 0, 22.13 0 M0 22.13 C0 7.38, 7.38 0, 22.13 0" stroke="#1e1e1e" stroke-width="2" fill="none"></path></g><g transform="translate(326.4289922106333 364.95922409513616) rotate(0 70.26992797851562 27)"><text x="70.26992797851562" y="20.08" font-family="Nunito, sans-serif, Segoe UI Emoji" font-size="20px" fill="#1e1e1e" text-anchor="middle" style="white-space: pre;" direction="ltr" dominant-baseline="alphabetic">AI Service</text><text x="70.26992797851562" y="47.08" font-family="Nunito, sans-serif, Segoe UI Emoji" font-size="20px" fill="#1e1e1e" text-anchor="middle" style="white-space: pre;" direction="ltr" dominant-baseline="alphabetic">(Azure OpenAI)</text></g><g stroke-linecap="round" transform="translate(535.1101335141249 347.6927277775834) rotate(0 160.0664000450563 44.46087904665843)"><path d="M22.23 0 C87.08 0, 151.94 0, 297.9 0 C312.72 0, 320.13 7.41, 320.13 22.23 C320.13 31.58, 320.13 40.92, 320.13 66.69 C320.13 81.51, 312.72 88.92, 297.9 88.92 C231.26 88.92, 164.62 88.92, 22.23 88.92 C7.41 88.92, 0 81.51, 0 66.69 C0 55.69, 0 44.68, 0 22.23 C0 7.41, 7.41 0, 22.23 0" stroke="none" stroke-width="0" fill="#336791"></path><path d="M22.23 0 C111.53 0, 200.82 0, 297.9 0 M22.23 0 C106.7 0, 191.16 0, 297.9 0 M297.9 0 C312.72 0, 320.13 7.41, 320.13 22.23 M297.9 0 C312.72 0, 320.13 7.41, 320.13 22.23 M320.13 22.23 C320.13 32.54, 320.13 42.85, 320.13 66.69 M320.13 22.23 C320.13 35.35, 320.13 48.47, 320.13 66.69 M320.13 66.69 C320.13 81.51, 312.72 88.92, 297.9 88.92 M320.13 66.69 C320.13 81.51, 312.72 88.92, 297.9 88.92 M297.9 88.92 C238.08 88.92, 178.26 88.92, 22.23 88.92 M297.9 88.92 C208.87 88.92, 119.84 88.92, 22.23 88.92 M22.23 88.92 C7.41 88.92, 0 81.51, 0 66.69 M22.23 88.92 C7.41 88.92, 0 81.51, 0 66.69 M0 66.69 C0 49.6, 0 32.51, 0 22.23 M0 66.69 C0 49.56, 0 32.43, 0 22.23 M0 22.23 C0 7.41, 7.41 0, 22.23 0 M0 22.23 C0 7.41, 7.41 0, 22.23 0" stroke="#ffffff" stroke-width="2" fill="none"></path></g><g transform="translate(544.4467056783218 365.1536068242418) rotate(0 150.72982788085938 27)"><text x="150.72982788085938" y="20.08" font-family="Nunito, sans-serif, Segoe UI Emoji" font-size="20px" fill="#ffffff" text-anchor="middle" style="white-space: pre;" direction="ltr" dominant-baseline="alphabetic">Database</text><text x="150.72982788085938" y="47.08" font-family="Nunito, sans-serif, Segoe UI Emoji" font-size="20px" fill="#ffffff" text-anchor="middle" style="white-space: pre;" direction="ltr" dominant-baseline="alphabetic">(Azure Database for PostgreSQL)</text></g><g mask="url(#mask-6jsJhRUISW3Z7IVgjI5vU)" stroke-linecap="round"><g transform="translate(396.97347080887846 112.08458119040972) rotate(0 0.26940711798329176 42.47329095926099)"><path d="M0 0 C0 6.39, -0.09 24.16, 0 38.32 C0.09 52.48, 0.45 77.18, 0.54 84.95 M0 0 C0 6.39, -0.09 24.16, 0 38.32 C0.09 52.48, 0.45 77.18, 0.54 84.95" stroke="#1e1e1e" stroke-width="2" fill="none"></path></g><g transform="translate(396.97347080887846 112.08458119040972) rotate(0 0.26940711798329176 42.47329095926099)"><path d="M0.54 84.95 L-5.97 71.43 L6.7 71.27 L0.54 84.95" stroke="none" stroke-width="0" fill="#1e1e1e" fill-rule="evenodd"></path><path d="M0.54 84.95 C-0.83 82.1, -2.21 79.25, -5.97 71.43 M0.54 84.95 C-1.15 81.45, -2.83 77.96, -5.97 71.43 M-5.97 71.43 C-1.44 71.38, 3.1 71.32, 6.7 71.27 M-5.97 71.43 C-2.9 71.4, 0.17 71.36, 6.7 71.27 M6.7 71.27 C4.28 76.64, 1.86 82.01, 0.54 84.95 M6.7 71.27 C5.12 74.79, 3.53 78.32, 0.54 84.95 M0.54 84.95 C0.54 84.95, 0.54 84.95, 0.54 84.95 M0.54 84.95 C0.54 84.95, 0.54 84.95, 0.54 84.95" stroke="#1e1e1e" stroke-width="2" fill="none"></path></g></g><mask id="mask-6jsJhRUISW3Z7IVgjI5vU"><rect x="0" y="0" fill="#fff" width="497.51228504484504" height="297.0311631089317"></rect><rect x="352.27348911942534" y="136.9031507898972" fill="#000" width="89.39996337890625" height="27" opacity="1"></rect></mask><g transform="translate(352.27348911942534 136.9031507898972) rotate(0 44.94943272462285 17.654721359773504)"><text x="44.699981689453125" y="20.08" font-family="Nunito, sans-serif, Segoe UI Emoji" font-size="20px" fill="#1e1e1e" text-anchor="middle" style="white-space: pre;" direction="ltr" dominant-baseline="alphabetic">HTTP/API</text></g><g stroke-linecap="round"><g transform="translate(251.3789956146596 268.2300965686474) rotate(0 -61.66826090360486 39.145850672907)"><path d="M0 0 C-20.07 4.58, -99.87 14.41, -120.42 27.46 C-140.98 40.51, -122.85 69.82, -123.34 78.29 M0 0 C-20.07 4.58, -99.87 14.41, -120.42 27.46 C-140.98 40.51, -122.85 69.82, -123.34 78.29" stroke="#1e1e1e" stroke-width="2" fill="none"></path></g><g transform="translate(251.3789956146596 268.2300965686474) rotate(0 -61.66826090360486 39.145850672907)"><path d="M-123.34 78.29 L-132.77 66.63 L-120.46 63.57 L-123.34 78.29" stroke="none" stroke-width="0" fill="#1e1e1e" fill-rule="evenodd"></path><path d="M-123.34 78.29 C-125.96 75.05, -128.58 71.8, -132.77 66.63 M-123.34 78.29 C-126.99 73.78, -130.64 69.26, -132.77 66.63 M-132.77 66.63 C-129.91 65.92, -127.06 65.21, -120.46 63.57 M-132.77 66.63 C-129.13 65.72, -125.5 64.82, -120.46 63.57 M-120.46 63.57 C-121.53 69.06, -122.61 74.55, -123.34 78.29 M-120.46 63.57 C-121.41 68.44, -122.36 73.31, -123.34 78.29 M-123.34 78.29 C-123.34 78.29, -123.34 78.29, -123.34 78.29 M-123.34 78.29 C-123.34 78.29, -123.34 78.29, -123.34 78.29" stroke="#1e1e1e" stroke-width="2" fill="none"></path></g></g><mask></mask><g stroke-linecap="round"><g transform="translate(397.4265873812129 270.2406263529243) rotate(0 -0.33297472706743747 38.54163273774033)"><path d="M0 0 C-0.11 12.85, -0.55 64.24, -0.67 77.08 M0 0 C-0.11 12.85, -0.55 64.24, -0.67 77.08" stroke="#1e1e1e" stroke-width="2" fill="none"></path></g><g transform="translate(397.4265873812129 270.2406263529243) rotate(0 -0.33297472706743747 38.54163273774033)"><path d="M-0.67 77.08 L-6.89 63.43 L5.79 63.54 L-0.67 77.08" stroke="none" stroke-width="0" fill="#1e1e1e" fill-rule="evenodd"></path><path d="M-0.67 77.08 C-3.15 71.64, -5.63 66.2, -6.89 63.43 M-0.67 77.08 C-2.97 72.04, -5.27 66.99, -6.89 63.43 M-6.89 63.43 C-4.29 63.46, -1.7 63.48, 5.79 63.54 M-6.89 63.43 C-3.14 63.47, 0.6 63.5, 5.79 63.54 M5.79 63.54 C3.74 67.83, 1.7 72.12, -0.67 77.08 M5.79 63.54 C3.71 67.9, 1.63 72.26, -0.67 77.08 M-0.67 77.08 C-0.67 77.08, -0.67 77.08, -0.67 77.08 M-0.67 77.08 C-0.67 77.08, -0.67 77.08, -0.67 77.08" stroke="#1e1e1e" stroke-width="2" fill="none"></path></g></g><mask></mask><g stroke-linecap="round"><g transform="translate(545.5745087369337 266.6807872898247) rotate(0 71.26722371675243 40.37015189807586)"><path d="M0 0 C22.39 4.84, 110.61 15.56, 134.36 29.01 C158.12 42.47, 141.17 72.12, 142.53 80.74 M0 0 C22.39 4.84, 110.61 15.56, 134.36 29.01 C158.12 42.47, 141.17 72.12, 142.53 80.74" stroke="#1e1e1e" stroke-width="2" fill="none"></path></g><g transform="translate(545.5745087369337 266.6807872898247) rotate(0 71.26722371675243 40.37015189807586)"><path d="M142.53 80.74 L138.58 66.27 L151.07 68.41 L142.53 80.74" stroke="none" stroke-width="0" fill="#1e1e1e" fill-rule="evenodd"></path><path d="M142.53 80.74 C141.17 75.75, 139.8 70.76, 138.58 66.27 M142.53 80.74 C141.32 76.3, 140.11 71.87, 138.58 66.27 M138.58 66.27 C141.79 66.82, 145.01 67.37, 151.07 68.41 M138.58 66.27 C143.35 67.09, 148.13 67.9, 151.07 68.41 M151.07 68.41 C148.16 72.62, 145.25 76.82, 142.53 80.74 M151.07 68.41 C148.96 71.46, 146.84 74.52, 142.53 80.74 M142.53 80.74 C142.53 80.74, 142.53 80.74, 142.53 80.74 M142.53 80.74 C142.53 80.74, 142.53 80.74, 142.53 80.74" stroke="#1e1e1e" stroke-width="2" fill="none"></path></g></g><mask></mask></svg>