<?xml version="1.0" encoding="UTF-8"?>
<svg id="_레이어_1" xmlns="http://www.w3.org/2000/svg" version="1.1" viewBox="0 0 1295.5 700.7">
  <!-- Generator: Adobe Illustrator 29.8.2, SVG Export Plug-In . SVG Version: 2.1.1 Build 3)  -->
  <defs>
    <style>
      .st0 {
        fill: #e4e5f4;
      }

      .st1 {
        fill: #512BD4;
        animation: flicker 3s infinite;
      }

      .st1:nth-child(1) { animation-delay: 0s; }
      .st1:nth-child(2) { animation-delay: 0.3s; }
      .st1:nth-child(3) { animation-delay: 0.7s; }
      .st1:nth-child(4) { animation-delay: 1.2s; }
      .st1:nth-child(5) { animation-delay: 1.8s; }
      .st1:nth-child(6) { animation-delay: 2.1s; }
      .st1:nth-child(7) { animation-delay: 0.5s; }
      .st1:nth-child(8) { animation-delay: 1.5s; }
      .st1:nth-child(9) { animation-delay: 2.4s; }
      .st1:nth-child(10) { animation-delay: 0.9s; }
      .st1:nth-child(11) { animation-delay: 1.1s; }
      .st1:nth-child(12) { animation-delay: 2.7s; }
      .st1:nth-child(13) { animation-delay: 0.2s; }
      .st1:nth-child(14) { animation-delay: 1.6s; }
      .st1:nth-child(15) { animation-delay: 2.2s; }
      .st1:nth-child(16) { animation-delay: 0.6s; }
      .st1:nth-child(17) { animation-delay: 1.9s; }
      .st1:nth-child(18) { animation-delay: 2.5s; }
      .st1:nth-child(19) { animation-delay: 0.4s; }
      .st1:nth-child(20) { animation-delay: 1.3s; }

      @keyframes flicker {
        0%, 100% { opacity: 1; }
        10% { opacity: 0.8; }
        20% { opacity: 1; }
        30% { opacity: 0.6; }
        40% { opacity: 1; }
        50% { opacity: 0.9; }
        60% { opacity: 0.7; }
        70% { opacity: 1; }
        80% { opacity: 0.85; }
        90% { opacity: 1; }
      }
    </style>
  </defs>
  <path class="st0" d="M1248.2,509.2c12.4-1.2,9.5,16,.7,16s-10.7-15.1-.7-16Z"/>
  <path class="st0" d="M1246.4,588.8c13.5-3.1,12.9,14.9,2.6,14.2-8.5-.5-10.5-12.4-2.6-14.2Z"/>
  <circle class="st0" cx="1267.5" cy="595.6" r="7.4"/>
  <circle class="st0" cx="803" cy="27.7" r="7.4"/>
  <g>
    <circle class="st0" cx="1230.2" cy="634.1" r="7.8"/>
    <path class="st0" d="M4.9,216c14.8-3.5,12.8,19.9-.9,13.2-6.1-3-4.9-11.8.9-13.2Z"/>
    <path class="st0" d="M1246.3,607.8c14.8-4.5,11.3,19.3-.6,13.8-6.3-2.9-5.5-12,.6-13.8Z"/>
    <circle class="st0" cx="537.3" cy="144.7" r="7.4"/>
    <circle class="st0" cx="677.7" cy="66.9" r="7.2"/>
    <g>
      <path class="st0" d="M1065.4,582.9c-6.1,4.9-17.1-3.7-11.4-11.8,7.3-10.3,20.6,4.3,11.4,11.8Z"/>
      <circle class="st0" cx="1099.1" cy="516.7" r="8.1"/>
      <circle class="st0" cx="581.6" cy="203.1" r="8.1"/>
      <circle class="st0" cx="1060.6" cy="379.7" r="8.1"/>
      <path class="st0" d="M1002.1,371.6c11-2.4,13.9,13.8,4.1,15.9-11.2,2.5-12.4-14.1-4.1-15.9Z"/>
      <path class="st0" d="M984,391.5c12.5-2.2,11.5,15.7,1.5,16.1-9.7.3-10.7-14.5-1.5-16.1Z"/>
      <circle class="st0" cx="601.5" cy="203.2" r="8"/>
      <path class="st0" d="M579.5,313.7c15-3.5,14.8,18.1.9,15-7.1-1.6-7.1-13.5-.9-15Z"/>
      <path class="st0" d="M1060,235c10.8-1.2,11.2,17.3-1.2,16.2-7.4-.7-9.2-15.1,1.2-16.2Z"/>
      <path class="st0" d="M1059.1,254c10-2,12.4,14.1,4.1,15.9-13.1,3-12.4-14.3-4.1-15.9Z"/>
      <circle class="st0" cx="1249.6" cy="164" r="8"/>
      <circle class="st0" cx="659.2" cy="184.2" r="8"/>
      <circle class="st0" cx="1079.7" cy="516.7" r="8"/>
      <path class="st0" d="M1066.3,511c6.4,7-2,19.2-10.5,11.9-8.5-7.2,3.2-19.8,10.5-11.9h0Z"/>
      <circle class="st0" cx="1174.8" cy="556.2" r="8"/>
      <path class="st0" d="M601.1,176.3c11.3-.7,10.1,15.7.7,16-9.9.2-11.5-15.4-.7-16Z"/>
      <path class="st0" d="M653.3,550c3.6-3.9,11.8-2.5,13.1,3.1,4.2,18.5-24,8.9-13.1-3.1Z"/>
      <circle class="st0" cx="1041.7" cy="419" r="7.9"/>
      <circle class="st0" cx="582.9" cy="360.1" r="7.9"/>
      <path class="st0" d="M694.4,156.3c13-2.8,14.1,19.9-1.6,14.8-5.6-1.9-4.8-13.4,1.6-14.8Z"/>
      <circle class="st0" cx="1060.6" cy="105.9" r="7.9"/>
      <circle class="st0" cx="1060.7" cy="556.4" r="7.9"/>
      <circle class="st0" cx="546" cy="379.7" r="7.9"/>
      <path class="st0" d="M1244.1,138.2c6.4-2.9,13-1.2,13.4,6.6.7,13.5-23.1,6.9-13.4-6.6Z"/>
      <circle class="st0" cx="1118.1" cy="516.9" r="7.9"/>
      <circle class="st0" cx="1231.5" cy="144.7" r="7.9"/>
      <path class="st0" d="M1058.2,529c11.7-2.6,12.2,12.7,5.7,14.8-12.1,3.8-14.9-12.7-5.7-14.8Z"/>
      <circle class="st0" cx="640.2" cy="457.8" r="7.9"/>
      <circle class="st0" cx="564" cy="399.7" r="7.8"/>
      <circle class="st0" cx="582.8" cy="340.4" r="7.8"/>
      <path class="st0" d="M639.3,215.1c10.2-1.5,12.1,15.2,1.4,15.8-9.8.6-10.5-14.5-1.4-15.8Z"/>
      <circle class="st0" cx="1136.9" cy="536.5" r="7.8"/>
      <circle class="st0" cx="1117.9" cy="497.6" r="7.8"/>
      <path class="st0" d="M600.3,234.9c11.5-2.1,13.9,19.7-1.6,14.8-6.8-2.1-5.2-13.5,1.6-14.8Z"/>
      <circle class="st0" cx="1193.2" cy="223.2" r="7.8"/>
      <path class="st0" d="M634.3,413.3c6-6,19,2.7,11.5,11.1-7.1,8-18.8-3.8-11.5-11.1Z"/>
      <path class="st0" d="M1131,268.1c-3-3.3-2-12,3.1-13.2,13.1-3,13.8,15.4,2.5,15.2-1.2,0-4.8-1.2-5.6-2Z"/>
      <path class="st0" d="M1066.3,216.9c4.6,5,1.6,13.8-6.6,13.4-15.1-.6-2.3-23,6.6-13.4Z"/>
      <circle class="st0" cx="563.8" cy="320.9" r="7.8"/>
      <path class="st0" d="M634.3,315.6c2.6-3.2,11.4-3.5,12.9,1.5,4.1,13.3-13.1,15.9-14.1,5-.2-2,0-4.9,1.2-6.5h0Z"/>
      <path class="st0" d="M596.3,295.7c1.9-1.8,7.6-1.8,10-.9,5.6,2,5.2,16-6.1,14.2-6-1-7.6-9.9-3.9-13.3h0Z"/>
      <circle class="st0" cx="1193.7" cy="125.2" r="7.8"/>
      <path class="st0" d="M696.2,273.9c9.7-.8,11,15.3.5,15.8-9.6.5-10.8-15-.5-15.8Z"/>
      <circle class="st0" cx="602.2" cy="379.9" r="7.8"/>
      <circle class="st0" cx="1193.1" cy="203.5" r="7.8"/>
      <circle class="st0" cx="1041.6" cy="536.3" r="7.8"/>
      <circle class="st0" cx="840.6" cy="340.1" r="7.8"/>
      <path class="st0" d="M1055,131.4c-4.2-3.3-2.4-12.3,3.9-13.3,11.7-1.9,12.4,14.7,2.7,14.8-1.6.1-5.3-.5-6.6-1.5Z"/>
      <path class="st0" d="M683.6,314.6c.8.7,2.1,4.4,2.1,5.6,0,12.3-17.8,9.7-15.2-1.6,1.1-5.3,9.4-7.3,13.1-4h0Z"/>
      <circle class="st0" cx="1079.7" cy="105.9" r="7.8"/>
      <circle class="st0" cx="1212.6" cy="184" r="7.7"/>
      <path class="st0" d="M1156.8,470.2c9-.8,9.7,18.1-3.7,15-8.3-1.9-6.5-14.1,3.7-15Z"/>
      <path class="st0" d="M945,79.4c14.8-3.5,14.5,17.5,0,14.1-6-1.5-5.9-12.7,0-14.1Z"/>
      <circle class="st0" cx="658.9" cy="144.9" r="7.7"/>
      <circle class="st0" cx="640.1" cy="262" r="7.7"/>
      <circle class="st0" cx="803" cy="360.3" r="7.7"/>
      <circle class="st0" cx="545.5" cy="360.1" r="7.7"/>
      <path class="st0" d="M714.4,312.8c9.9-1.5,10.9,12.8,4.8,14.8-12.7,4.1-15-13.3-4.8-14.8Z"/>
      <circle class="st0" cx="563.8" cy="360.4" r="7.7"/>
      <path class="st0" d="M645.6,393.4c8.1,7.6-6.6,21.2-12.2,10-4.3-8.7,7.1-14.8,12.2-10Z"/>
      <circle class="st0" cx="802.8" cy="144.8" r="7.7"/>
      <path class="st0" d="M1190.2,138.2c15.1-4.5,14.5,17.1.9,14.1-6.9-1.6-6.4-12.5-.9-14.1Z"/>
      <circle class="st0" cx="1022.2" cy="439" r="7.7" transform="translate(282.8 1270.1) rotate(-71.6)"/>
      <circle class="st0" cx="1118" cy="536.6" r="7.7"/>
      <path class="st0" d="M801.2,98.3c10.8-2.4,12.5,13.1,4.1,15-11.1,2.6-12.6-13.1-4.1-15Z"/>
      <circle class="st0" cx="1079.7" cy="477.7" r="7.7"/>
      <path class="st0" d="M588.6,413.3c6.7,6.1-2.8,18.9-11.1,11.5-7.9-7,4.4-17.7,11.1-11.5Z"/>
      <circle class="st0" cx="1212.5" cy="164.7" r="7.7"/>
      <circle class="st0" cx="1193.7" cy="164.2" r="7.7"/>
      <circle class="st0" cx="1174.8" cy="575.8" r="7.7"/>
      <path class="st0" d="M713.4,332.7c10.8-2.4,12.5,13.1,4.1,15-11.1,2.6-12.6-13.1-4.1-15Z"/>
      <circle class="st0" cx="563.8" cy="380.1" r="7.7"/>
      <circle class="st0" cx="1136.8" cy="125.2" r="7.7"/>
      <path class="st0" d="M599.4,216c13.2-2.9,14.3,16.5,0,14.2-7.2-1.1-6.3-12.8,0-14.2Z"/>
      <circle class="st0" cx="1231.4" cy="164.3" r="7.7"/>
      <circle class="st0" cx="602.1" cy="419" r="7.7"/>
      <path class="st0" d="M808.5,314.7c1.1,1,2.2,4.9,2.1,6.5-.4,10.6-16.6,10.7-14.5-2.6.8-5.6,9.3-6.8,12.4-3.9Z"/>
      <path class="st0" d="M694.4,254.9c15.3-3.4,10.6,21.9-2.2,13.6-5.1-3.3-3.4-12.4,2.2-13.6Z"/>
      <path class="st0" d="M694.4,372.5c15.4-3.5,10.4,21.8-2.2,13.6-5.1-3.3-3.4-12.3,2.2-13.6Z"/>
      <circle class="st0" cx="821.9" cy="164.5" r="7.7"/>
      <circle class="st0" cx="821.8" cy="320.6" r="7.7"/>
      <circle class="st0" cx="1041.5" cy="105.9" r="7.7"/>
      <path class="st0" d="M720.7,549.9c4.1,3.8,2,14-4.8,14.3-7.4.3-9.2-7.2-6.8-13,2.6-2,9-3.7,11.6-1.3Z"/>
      <path class="st0" d="M656.4,431.3c11-3.3,14.1,12.6,5,15-10.4,2.7-12.4-12.7-5-15Z"/>
      <path class="st0" d="M1209.2,138.2c14.4-4.2,14.5,17.2.9,14.1-6.7-1.5-6.9-12.4-.9-14.1Z"/>
      <path class="st0" d="M871.4,365.7c-4.2-4.2-2.2-12.9,4.7-13.4,15.3-1,5.7,23.9-4.7,13.4Z"/>
      <path class="st0" d="M588.6,405.6c-1.4,1.3-5.7,1.4-7.5,1.2-8.5-1.1-7.5-16.9,4.5-14.5,5.7,1.1,6.5,9.9,3,13.3Z"/>
      <path class="st0" d="M713.4,529.1c13.2-3,12.1,18.9-.7,14.8-6.9-2.3-5.5-13.4.7-14.8Z"/>
      <circle class="st0" cx="1004.3" cy="340.8" r="7.7"/>
      <circle class="st0" cx="583" cy="379.7" r="7.7"/>
      <path class="st0" d="M856.4,293.8c12.5-2.9,12.6,16.6.8,15.2-7-.9-8.6-13.4-.8-15.2Z"/>
      <circle class="st0" cx="1004.1" cy="321.1" r="7.7"/>
      <circle class="st0" cx="1041.6" cy="321.2" r="7.7"/>
      <circle class="st0" cx="678" cy="438.6" r="7.6"/>
      <circle class="st0" cx="696.5" cy="438.8" r="7.7"/>
      <circle class="st0" cx="1098.8" cy="497.5" r="7.6"/>
      <circle class="st0" cx="1079.9" cy="536.5" r="7.6"/>
      <circle class="st0" cx="1136.8" cy="556.4" r="7.6"/>
      <circle class="st0" cx="715.5" cy="242.5" r="7.7"/>
      <circle class="st0" cx="821.7" cy="242.4" r="7.6"/>
      <circle class="st0" cx="1004.4" cy="399.5" r="7.6"/>
      <path class="st0" d="M982.1,333.6c14.2-4.2,13.2,18,1.4,14.6-7-1.9-7.7-12.7-1.4-14.6Z"/>
      <circle class="st0" cx="659.1" cy="262" r="7.6"/>
      <circle class="st0" cx="545.7" cy="340.6" r="7.6"/>
      <path class="st0" d="M855.5,313.7c12.8-3.8,13,13.8,4.1,15-10.1,1.3-11-12.9-4.1-15Z"/>
      <circle class="st0" cx="582.6" cy="282.2" r="7.6"/>
      <circle class="st0" cx="1004.1" cy="360.1" r="7.6"/>
      <circle class="st0" cx="583" cy="301.7" r="7.6"/>
      <circle class="st0" cx="1212.5" cy="125.3" r="7.6"/>
      <path class="st0" d="M710.3,197.1c8.5-6.8,18.4,7.8,8.2,13.2-9.3,4.8-13.5-8.9-8.2-13.2Z"/>
      <circle class="st0" cx="696.6" cy="536.4" r="7.6"/>
      <path class="st0" d="M714.4,273.9c9.4-1.2,11.6,14.4,2.2,15.6-9.8,1.3-12-14.4-2.2-15.6Z"/>
      <path class="st0" d="M1142.3,503.2c-7.8,8.5-18.8-7.4-9-12.2,9-4.4,14.6,6.1,9,12.2Z"/>
      <circle class="st0" cx="821.8" cy="262.1" r="7.6"/>
      <circle class="st0" cx="602.2" cy="262.2" r="7.6"/>
      <path class="st0" d="M928.8,332.7c9.4-1.2,10.9,15.6.5,15.9-9.4.3-10.1-14.7-.5-15.9Z"/>
      <path class="st0" d="M948.6,254.1c8-.1,9.4,12.4,2.2,14.7-13.4,4.1-13-14.5-2.2-14.7h0Z"/>
      <circle class="st0" cx="1060.3" cy="439" r="7.6"/>
      <circle class="st0" cx="659" cy="477.8" r="7.6"/>
      <path class="st0" d="M1117.9,568c9.9-1,10.9,16.1-1.1,15.2-9.1-.6-7.6-14.4,1.1-15.2Z"/>
      <path class="st0" d="M713.4,431.3c10.5-2.3,12.2,13.3,4.1,15-10.6,2.3-12.8-13.1-4.1-15Z"/>
      <circle class="st0" cx="1060.6" cy="203.2" r="7.6"/>
      <circle class="st0" cx="821.8" cy="203.4" r="7.6"/>
      <circle class="st0" cx="948" cy="301.2" r="7.6"/>
      <path class="st0" d="M637.4,510.1c14.7-3.3,13.1,17,0,14.1-6.3-1.5-6.2-12.7,0-14.1Z"/>
      <path class="st0" d="M1169.1,531.8c8-8.8,18.2,3.4,11.5,10.2-6.6,6.8-17.9-3.1-11.5-10.2Z"/>
      <circle class="st0" cx="678" cy="497.3" r="7.6"/>
      <circle class="st0" cx="659.3" cy="340.3" r="7.6"/>
      <path class="st0" d="M694.4,313.7c14.7-3.3,11,20.5-1,14.2-5.6-3-5.1-12.8,1-14.2Z"/>
      <path class="st0" d="M1155,510.1c11.3-1.9,10.2,12.1,4.8,13.9-12.6,4.1-15.2-12.2-4.8-13.9Z"/>
      <circle class="st0" cx="715.4" cy="379.5" r="7.6"/>
      <path class="st0" d="M1039.2,196.1c7.9-2.4,14.2,8.8,6.9,13.3-12.2,7.5-16.2-10.6-6.9-13.3Z"/>
      <circle class="st0" cx="640.3" cy="380" r="7.6"/>
      <path class="st0" d="M1057.2,138.2c12.4-2.8,14.1,11.2,5.7,13.9-10.7,3.4-13.4-12.2-5.7-13.9Z"/>
      <circle class="st0" cx="1117.7" cy="145.2" r="7.6"/>
      <path class="st0" d="M1171.3,138.2c16-3.7,12.4,19.1-.4,13.6-5.4-2.3-5.6-12.3.4-13.6Z"/>
      <path class="st0" d="M1263.2,140c2.7-3.3,12.2-3.4,13.3,2,2.5,12.9-12.9,13.1-14.4,5.4-.5-2-.2-5.7,1.1-7.4Z"/>
      <circle class="st0" cx="821.9" cy="223" r="7.6"/>
      <path class="st0" d="M1174,117.4c9.4-.9,10.4,14,2.4,15.2-11.8,1.7-12.2-14.3-2.4-15.2Z"/>
      <circle class="st0" cx="1041.5" cy="340.6" r="7.6"/>
      <path class="st0" d="M1036.1,287.9c-7.1-5.7,2.6-18.6,10.6-11.9,7.8,6.6-3.5,17.7-10.6,11.9Z"/>
      <path class="st0" d="M801.2,157.2c9.9-2.2,12.2,11,6.4,13.6-12.5,5.7-16.5-11.4-6.4-13.6Z"/>
      <circle class="st0" cx="696.5" cy="360" r="7.6"/>
      <path class="st0" d="M1079,391.5c9.4-1.5,12.1,16.5-.2,15.7-9.2-.5-8-14.4.2-15.7Z"/>
      <circle class="st0" cx="1231.3" cy="125.6" r="7.6"/>
      <circle class="st0" cx="696.6" cy="399.1" r="7.6"/>
      <circle class="st0" cx="1136.8" cy="145.1" r="7.6"/>
      <path class="st0" d="M923.9,326.8c-8.3-7.6,6.1-19.4,11.5-10.2,5,8.5-5.3,15.9-11.5,10.2Z"/>
      <circle class="st0" cx="1060.6" cy="458.3" r="7.6"/>
      <path class="st0" d="M637.4,196.1c10.7-2.4,14.4,13.7,4.1,15-10.4,1.4-11-13.5-4.1-15Z"/>
      <path class="st0" d="M1132,217c1.6-1.3,5.4-1.5,7.4-1.2,7.8,1.5,7.2,16.9-5.4,14.4-5.5-1-5.3-10.6-2-13.2Z"/>
      <circle class="st0" cx="1041.5" cy="125.4" r="7.6"/>
      <circle class="st0" cx="1079.7" cy="419.3" r="7.6"/>
      <path class="st0" d="M712.5,352.6c7.7-2.3,11.8,2.5,10,10s-17.4,5.6-13.9-5.7c.5-1.4,2.5-3.9,3.9-4.3Z"/>
      <circle class="st0" cx="1136.9" cy="164.4" r="7.6"/>
      <circle class="st0" cx="985.4" cy="262.2" r="7.6"/>
      <path class="st0" d="M616.3,315.6c11-9.4,19.2,12.6,4.7,12.4-7.6,0-10.3-7.6-4.7-12.4Z"/>
      <path class="st0" d="M802.1,293.8c9.3-.9,11.8,14,2.4,15.2-10.7,1.3-11.8-14.3-2.4-15.2Z"/>
      <circle class="st0" cx="929.1" cy="223.2" r="7.6"/>
      <path class="st0" d="M676.3,254.9c11.5-2.5,12.4,15.5.7,15.1-7.6-.3-9.1-13.3-.7-15.1Z"/>
      <circle class="st0" cx="640.4" cy="438.8" r="7.6"/>
      <circle class="st0" cx="1079.9" cy="575.9" r="7.6"/>
      <path class="st0" d="M946,118.3c12.4-2.8,13.7,17.5-.9,14.1-6.5-1.6-5.6-12.6.9-14.1Z"/>
      <path class="st0" d="M926,138.2c15.4-3.6,12.6,17.8.2,13.9-6.2-2.1-6.2-12.5-.2-13.9Z"/>
      <circle class="st0" cx="985.4" cy="203.4" r="7.6"/>
      <circle class="st0" cx="985.3" cy="282" r="7.6"/>
      <path class="st0" d="M1151.9,543c-.6-.4-3.6-5-3.8-5.8-1.7-8.5,11.9-12.2,14.9-3,2,6.5-5.8,12.7-11.1,8.8Z"/>
      <path class="st0" d="M691.3,413.3c1-.9,5.7-1.7,7.2-1.6,8.6,1.1,7.2,17.3-4,14.7-5.8-1.3-6.8-9.8-3.2-13.1Z"/>
      <circle class="st0" cx="821.9" cy="340.6" r="7.6"/>
      <circle class="st0" cx="1137" cy="282.1" r="7.6"/>
      <path class="st0" d="M600.3,313.7c10.1-2.1,12.9,11.5,3.9,14.8-9.6,3.4-13.2-12.9-3.9-14.8Z"/>
      <path class="st0" d="M675.4,392.4c12.9-2.9,12.8,14.2,3.2,15-8.7.8-10.4-13.3-3.2-15Z"/>
      <circle class="st0" cx="840.5" cy="203.7" r="7.5"/>
      <circle class="st0" cx="1041.5" cy="164.3" r="7.6"/>
      <path class="st0" d="M1065.4,366.6c-4.7,3.8-12.9.9-12.4-6.4.4-5.9,4.9-8,10.4-6.9,5,1,5.4,10.6,2,13.3Z"/>
      <circle class="st0" cx="715.4" cy="419.1" r="7.5"/>
      <circle class="st0" cx="621.1" cy="399.4" r="7.6"/>
      <path class="st0" d="M965,313.7c11.6-2.7,11.5,13.6,3.2,15-9.4,1.7-12-13-3.2-15Z"/>
      <path class="st0" d="M855.5,157.2c12.9-2.9,13.4,14.6,2.4,15-7.9.2-9.5-13.4-2.4-15Z"/>
      <path class="st0" d="M1059.9,470.3c9.1-.9,12.2,14.1,1.6,15.1-9.4,1-12.1-14-1.6-15.1Z"/>
      <circle class="st0" cx="1155.9" cy="145.3" r="7.5"/>
      <circle class="st0" cx="678" cy="419.2" r="7.5"/>
      <circle class="st0" cx="715.4" cy="516.9" r="7.6"/>
      <circle class="st0" cx="696.7" cy="458.2" r="7.6"/>
      <circle class="st0" cx="733.7" cy="536.4" r="7.6"/>
      <circle class="st0" cx="1079.8" cy="556.3" r="7.6"/>
      <circle class="st0" cx="928.9" cy="203.5" r="7.5"/>
      <circle class="st0" cx="696.7" cy="517.1" r="7.6"/>
      <path class="st0" d="M1098,567.9c9.6-1.1,11,11.9,4.8,13.9-13.2,4.4-15.1-12.6-4.8-13.9Z"/>
      <circle class="st0" cx="1118" cy="242.7" r="7.5"/>
      <circle class="st0" cx="1136.8" cy="478.1" r="7.5"/>
      <path class="st0" d="M618.4,294.7c15.2-3.5,12.4,17.8.2,13.9-6.3-2-6.2-12.5-.2-13.9Z"/>
      <circle class="st0" cx="840.3" cy="301.5" r="7.5"/>
      <path class="st0" d="M1284.3,138.2c11.7-3.5,15.1,10.9,5.7,13.9-9.3,3-13.5-11.6-5.7-13.9Z"/>
      <circle class="st0" cx="1041.7" cy="184" r="7.5"/>
      <path class="st0" d="M803.7,215.3c7,.4,9.6,11.4,2.9,14.3-12.9,5.6-14.8-15-2.9-14.3Z"/>
      <circle class="st0" cx="1041.4" cy="243" r="7.6"/>
      <circle class="st0" cx="715.3" cy="261.9" r="7.6"/>
      <circle class="st0" cx="1098.9" cy="536.5" r="7.5"/>
      <circle class="st0" cx="659.2" cy="379.7" r="7.5"/>
      <path class="st0" d="M928.8,157.2c9-.7,9.8,12,3.9,13.9-13.2,4.2-15.3-13-3.9-13.9Z"/>
      <path class="st0" d="M1001.1,118.3c6.7-2,11.2,1.3,10.2,8.3-.8,5.7-4.8,7.3-10.2,5.8-5.3-1.6-5.3-12.6,0-14.1Z"/>
      <circle class="st0" cx="1136.8" cy="458.6" r="7.5"/>
      <circle class="st0" cx="948.1" cy="281.6" r="7.5"/>
      <circle class="st0" cx="985.3" cy="380" r="7.5"/>
      <circle class="st0" cx="929" cy="262.3" r="7.5"/>
      <circle class="st0" cx="840.5" cy="86.2" r="7.5"/>
      <path class="st0" d="M945,177.1c14.7-4.4,13.2,18,.2,13.9-6-2-6-12.2-.2-13.9Z"/>
      <circle class="st0" cx="1022.5" cy="184" r="7.5" transform="translate(524.9 1095.9) rotate(-71.6)"/>
      <circle class="st0" cx="1041.3" cy="439.1" r="7.5"/>
      <circle class="st0" cx="1156.1" cy="614.4" r="7.5"/>
      <circle class="st0" cx="967" cy="86.6" r="7.5"/>
      <circle class="st0" cx="1004" cy="203.3" r="7.5"/>
      <circle class="st0" cx="948.2" cy="360.4" r="7.5"/>
      <circle class="st0" cx="659.3" cy="536.4" r="7.5"/>
      <circle class="st0" cx="1041.5" cy="222.9" r="7.5"/>
      <circle class="st0" cx="696.6" cy="340.7" r="7.5"/>
      <path class="st0" d="M799.4,118.3c11.3-3.4,14.7,10.4,7.3,13.6-11.6,4.9-13.6-11.8-7.3-13.6Z"/>
      <path class="st0" d="M657.3,196.1c10.5-2.4,13.2,14.7,1.5,14.9-8.7.1-9.3-13.2-1.5-14.9Z"/>
      <path class="st0" d="M655.5,451.2c15.1-4.4,13.7,18,.9,14.1-5.4-1.6-6.2-12.5-.9-14.1Z"/>
      <circle class="st0" cx="1041.5" cy="262.1" r="7.5"/>
      <path class="st0" d="M1002.1,254.9c11.2-2.4,12.3,13.4,3.2,15.1-8.3,1.4-12.3-13.2-3.2-15.1Z"/>
      <circle class="st0" cx="1004.1" cy="458.5" r="7.5"/>
      <circle class="st0" cx="948" cy="321.1" r="7.5"/>
      <circle class="st0" cx="1079.5" cy="262.5" r="7.5"/>
      <circle class="st0" cx="876.5" cy="222.8" r="7.5"/>
      <circle class="st0" cx="696.6" cy="203.3" r="7.5"/>
      <circle class="st0" cx="659.4" cy="399.3" r="7.5"/>
      <path class="st0" d="M691.3,483.3c-3.9-4.2-3-11.6,3.8-12.4,16.9-1.9,6.1,23.2-3.8,12.4Z"/>
      <circle class="st0" cx="840.5" cy="262.1" r="7.5"/>
      <path class="st0" d="M542.4,392.4c9.9-3,15.6,10.7,5.7,13.9-10.9,3.5-12.9-11.7-5.7-13.9Z"/>
      <circle class="st0" cx="1118.1" cy="203.6" r="7.5"/>
      <circle class="st0" cx="985.5" cy="321" r="7.5"/>
      <circle class="st0" cx="929.1" cy="125.2" r="7.5"/>
      <circle class="st0" cx="1098.8" cy="125.2" r="7.5"/>
      <circle class="st0" cx="1117.7" cy="125.5" r="7.5"/>
      <path class="st0" d="M1116.1,157.2c9.8-2.6,12,12,5,14.1-11.4,3.4-15.1-11.5-5-14.1Z"/>
      <path class="st0" d="M808.4,374.4c5.9,7-3.2,17.7-10.2,11.5-7.8-7,3.8-19.1,10.2-11.5Z"/>
      <circle class="st0" cx="602.4" cy="340.6" r="7.5"/>
      <path class="st0" d="M947.8,332.7c8.1-.7,10.8,13.6,2.5,15.2-12.2,2.3-11.7-14.4-2.5-15.2Z"/>
      <path class="st0" d="M927,177.1c12-2.8,12.1,12.3,4.1,14.1-10.5,2.3-12.6-12.2-4.1-14.1Z"/>
      <circle class="st0" cx="1060.8" cy="184" r="7.5"/>
      <circle class="st0" cx="640.3" cy="301.6" r="7.5"/>
      <circle class="st0" cx="1004.3" cy="242.5" r="7.5"/>
      <circle class="st0" cx="803.1" cy="242.4" r="7.5"/>
      <circle class="st0" cx="640.3" cy="242.8" r="7.5"/>
      <circle class="st0" cx="1041.4" cy="458.3" r="7.5"/>
      <path class="st0" d="M983.1,352.6c10-3,13,13,4.1,15-9.9,2.2-11.9-12.7-4.1-15Z"/>
      <circle class="st0" cx="1137.2" cy="242.8" r="7.5"/>
      <circle class="st0" cx="985.5" cy="223" r="7.5"/>
      <circle class="st0" cx="1098.5" cy="301.9" r="7.5"/>
      <path class="st0" d="M731.5,490.1c10.2-3,12.9,13.3,4.1,15-9.5,2-12.3-12.5-4.1-15Z"/>
      <circle class="st0" cx="1079.7" cy="145" r="7.5"/>
      <path class="st0" d="M1002.1,157.2c10.5-3.2,12.6,13.4,3.2,15.1-10.1,1.7-10.7-12.9-3.2-15.1Z"/>
      <circle class="st0" cx="1098.7" cy="203.3" r="7.5"/>
      <circle class="st0" cx="1136.9" cy="86.2" r="7.5"/>
      <circle class="st0" cx="1155.7" cy="86.2" r="7.5"/>
      <circle class="st0" cx="929.2" cy="281.8" r="7.5"/>
      <circle class="st0" cx="1269.4" cy="125.2" r="7.5"/>
      <circle class="st0" cx="876.4" cy="125.2" r="7.5"/>
      <path class="st0" d="M1042.6,137.5c7.3.2,9.4,12.9-.2,14.8-10.7,2-11.8-15.2.2-14.8Z"/>
      <path class="st0" d="M1020.1,235.9c13.7-3.3,13,17,0,14.1-5.9-1.4-6-12.7,0-14.1Z"/>
      <path class="st0" d="M928.8,98.3c8.2-.7,11.1,14.8.7,15.3-10.4.4-9.9-14.5-.7-15.3Z"/>
      <circle class="st0" cx="1174.5" cy="458.7" r="7.5"/>
      <circle class="st0" cx="966.9" cy="164.3" r="7.5"/>
      <circle class="st0" cx="948" cy="145.1" r="7.5"/>
      <circle class="st0" cx="1004.3" cy="301.6" r="7.5"/>
      <circle class="st0" cx="803.1" cy="281.8" r="7.5"/>
      <path class="st0" d="M1020.1,254.9c9.9-3,14.2,12.1,4.6,14.6-10.2,2.7-11.7-12.5-4.6-14.6Z"/>
      <path class="st0" d="M840.1,215c7.6-1.1,10.7,13.7,2.5,15.2-11.5,2.2-12.7-13.6-2.5-15.2Z"/>
      <circle class="st0" cx="929.1" cy="243" r="7.5"/>
      <path class="st0" d="M563.2,411.4c9.9-1.3,11,14.6,1.5,15.2s-11.3-13.9-1.5-15.2Z"/>
      <path class="st0" d="M1017.1,159c3.6-4.4,13-1.7,13.2,4.8.3,9.2-13.5,10.7-14.5,2.7-.2-2,0-5.8,1.3-7.5h0Z"/>
      <circle class="st0" cx="1004.2" cy="184" r="7.5"/>
      <circle class="st0" cx="659.3" cy="359.8" r="7.5"/>
      <circle class="st0" cx="602.2" cy="360.3" r="7.5"/>
      <circle class="st0" cx="803" cy="262.1" r="7.5"/>
      <circle class="st0" cx="715.4" cy="399.4" r="7.5"/>
      <path class="st0" d="M638.3,157.2c12.1-2.7,12.8,17.2-.9,14.1-6.8-1.5-5.7-12.7.9-14.1Z"/>
      <circle class="st0" cx="621.1" cy="379.9" r="7.5"/>
      <circle class="st0" cx="785.1" cy="360.1" r="7.5"/>
      <path class="st0" d="M1020.1,118.3c12.9-3.9,13.9,16.9-.2,14.3-6.4-1.3-4.8-12.8.2-14.3Z"/>
      <circle class="st0" cx="947.9" cy="27.9" r="7.4"/>
      <path class="st0" d="M984.9,157.2c9.4-1.9,11.8,15.4-.3,14.8-8.4-.6-9.1-13,.3-14.8Z"/>
      <path class="st0" d="M1036,295.7c2.6-2.4,11.5-2,12.4,2.9,2.6,13.4-13.6,12.6-14.4,3.5-.2-1.6.9-5.4,2-6.4Z"/>
      <circle class="st0" cx="677.9" cy="458.1" r="7.5"/>
      <circle class="st0" cx="821.9" cy="281.9" r="7.4"/>
      <path class="st0" d="M720.7,483.4c-7.3,7.3-18.5-5.7-8.8-11.9,8.9-5.8,13.8,6.9,8.8,11.9Z"/>
      <circle class="st0" cx="715.5" cy="164.2" r="7.4"/>
      <path class="st0" d="M835.2,326.8c-.6-.6-1.9-3.8-2-4.8-1.5-11.4,15.9-11.6,14.4,0-.7,5.5-8.9,8.2-12.4,4.8Z"/>
      <circle class="st0" cx="803" cy="183.9" r="7.5"/>
      <circle class="st0" cx="621.4" cy="340.6" r="7.4"/>
      <path class="st0" d="M863.6,131.4c-6.5,6.1-18.7-6.2-9.3-12.5,8.4-5.5,15.2,7,9.3,12.5Z"/>
      <circle class="st0" cx="715.5" cy="497.3" r="7.4"/>
      <path class="st0" d="M635.2,354.5c6.7-6.1,15.3,2.7,11.5,9.3-5.9,10.4-19.7-1.8-11.5-9.3Z"/>
      <circle class="st0" cx="659.1" cy="243" r="7.5"/>
      <circle class="st0" cx="1041.4" cy="478.1" r="7.4"/>
      <path class="st0" d="M1153.2,177.1c13.7-4.1,13.2,18.4-.9,14.1-5.1-1.5-4.3-12.6.9-14.1Z"/>
      <circle class="st0" cx="821.8" cy="145.1" r="7.5"/>
      <path class="st0" d="M1173.1,157.2c11.4-2.5,11.5,15.5.7,14.8-8.3-.5-9.1-13-.7-14.8Z"/>
      <circle class="st0" cx="1155.8" cy="125.2" r="7.4"/>
      <circle class="st0" cx="948.1" cy="203.4" r="7.4"/>
      <circle class="st0" cx="1137" cy="184" r="7.5"/>
      <circle class="st0" cx="1155.9" cy="164.5" r="7.4"/>
      <circle class="st0" cx="1118" cy="183.9" r="7.4"/>
      <circle class="st0" cx="1117.9" cy="556.3" r="7.4"/>
      <circle class="st0" cx="715.4" cy="223" r="7.4"/>
      <circle class="st0" cx="948" cy="106.1" r="7.4"/>
      <path class="st0" d="M615.3,424.5c-5.3-6.6,3.1-17.2,10.2-11.5,9.1,7.3-4.3,18.8-10.2,11.5Z"/>
      <path class="st0" d="M1003,274.8c1.8-.3,4-.6,5.7.2,4.2,3.7,3.4,12.5-2.5,13.8-10.5,2.5-13.1-12.2-3.2-14Z"/>
      <circle class="st0" cx="715.5" cy="125.2" r="7.4"/>
      <path class="st0" d="M732.4,411.4c8.7-1.4,12.3,14,2.4,15.2-10.4,1.3-10.7-13.9-2.4-15.2Z"/>
      <circle class="st0" cx="659.2" cy="419.5" r="7.4"/>
      <circle class="st0" cx="640.1" cy="184.1" r="7.4"/>
      <circle class="st0" cx="1079.9" cy="223.2" r="7.4"/>
      <circle class="st0" cx="1079.7" cy="458.6" r="7.4"/>
      <circle class="st0" cx="659.2" cy="47.1" r="7.4"/>
      <circle class="st0" cx="821.8" cy="183.9" r="7.4"/>
      <circle class="st0" cx="1098.9" cy="556.4" r="7.4"/>
      <path class="st0" d="M961.9,72.5c-5.5-6,1.1-16,8.2-12.3,10.6,5.7-.6,20.6-8.2,12.3Z"/>
      <circle class="st0" cx="1174.6" cy="184" r="7.4"/>
      <circle class="st0" cx="1137.1" cy="301.6" r="7.4"/>
      <path class="st0" d="M947.8,157.2c9.7-1.5,9.7,12.6,3.2,14.1-12.2,2.9-13.6-12.6-3.2-14.1Z"/>
      <circle class="st0" cx="1118.7" cy="86.2" r="7.4"/>
      <path class="st0" d="M730.6,118.3c12.3-3.7,14.6,16.1,1.7,14.2-7.1-1-7.7-12.4-1.7-14.2Z"/>
      <circle class="st0" cx="929.1" cy="86.3" r="7.4"/>
      <circle class="st0" cx="733.6" cy="223.1" r="7.4"/>
      <circle class="st0" cx="640.3" cy="340.7" r="7.4"/>
      <circle class="st0" cx="677.5" cy="125.3" r="7.4"/>
      <circle class="st0" cx="715.5" cy="458.2" r="7.4"/>
      <circle class="st0" cx="1022.8" cy="458.3" r="7.4" transform="translate(-24.5 857.5) rotate(-45)"/>
      <circle class="st0" cx="967.1" cy="223.2" r="7.4"/>
      <path class="st0" d="M1098,451.2c8.2-.8,11.5,12.2,3.2,14.1-12.7,2.9-13-13.1-3.2-14.1Z"/>
      <circle class="st0" cx="1060.3" cy="281.9" r="7.4"/>
      <circle class="st0" cx="677.8" cy="164.4" r="7.4"/>
      <path class="st0" d="M982.1,138.2c14.5-4.3,13.2,18,.2,13.9-6-2-4.5-12.6-.2-13.9Z"/>
      <path class="st0" d="M954.1,217.8c5.6,6-4.2,18.3-11.6,10.2-6.8-7.5,5.5-16.7,11.6-10.2Z"/>
      <circle class="st0" cx="840.4" cy="281.9" r="7.4"/>
      <circle class="st0" cx="715.5" cy="183.9" r="7.4"/>
      <path class="st0" d="M1190.3,471.1c12.6-2.9,12.8,12.6,4.1,14.1-9.1,1.7-12.4-12.2-4.1-14.1Z"/>
      <circle class="st0" cx="715.5" cy="145" r="7.4"/>
      <circle class="st0" cx="621.2" cy="360.1" r="7.4"/>
      <circle class="st0" cx="1060.7" cy="399.3" r="7.4"/>
      <circle class="st0" cx="966.7" cy="262.4" r="7.4"/>
      <path class="st0" d="M1017.1,276.7c4.8-6,16.5,0,12.3,8.2-5.7,10.7-19,0-12.3-8.2h0Z"/>
      <circle class="st0" cx="821.7" cy="301.3" r="7.4"/>
      <path class="st0" d="M983.1,79.4c14.1-3.2,11.1,21.1-1.5,13.8-4.3-2.5-4.2-12.5,1.5-13.8Z"/>
      <circle class="st0" cx="1079.9" cy="164.5" r="7.4"/>
      <circle class="st0" cx="1060.6" cy="164.7" r="7.4"/>
      <circle class="st0" cx="1118.1" cy="223.1" r="7.4"/>
      <path class="st0" d="M702.5,237.8c7,8.7-8.6,18-12.8,8.8-3.9-8.7,8.4-14.3,12.8-8.8Z"/>
      <path class="st0" d="M678.2,470.2c8.3-.7,9.8,14,1.5,15-10.9,1.2-12.6-14-1.5-15Z"/>
      <path class="st0" d="M676.3,529c10.4-2.2,11.8,14.8,1.5,15.2-8.3.3-9.5-13.5-1.5-15.2Z"/>
      <circle class="st0" cx="967" cy="125.3" r="7.4"/>
      <circle class="st0" cx="985.6" cy="125.4" r="7.4"/>
      <path class="st0" d="M1093.1,189.3c-5.3-6.5,3.5-17.1,10.2-11.5,8.7,7.3-4.2,19-10.2,11.5Z"/>
      <circle class="st0" cx="803" cy="203.4" r="7.4"/>
      <circle class="st0" cx="659.3" cy="497.4" r="7.4"/>
      <circle class="st0" cx="858.4" cy="262" r="7.4"/>
      <circle class="st0" cx="966.8" cy="281.7" r="7.4"/>
      <path class="st0" d="M1078.1,274.8c10.4-2.2,11.8,14.8,1.5,15.2-8.4.2-9.5-13.6-1.5-15.2Z"/>
      <circle class="st0" cx="840.4" cy="242.9" r="7.4"/>
      <path class="st0" d="M930.6,293.9c9.3-.1,6.9,20-4.6,14.1-7.9-4.1-3.5-14.1,4.6-14.1Z"/>
      <circle class="st0" cx="966.7" cy="203.5" r="7.4"/>
      <circle class="st0" cx="985.2" cy="301.7" r="7.4"/>
      <circle class="st0" cx="659.3" cy="320.7" r="7.4"/>
      <path class="st0" d="M676.4,352.6c9.8-2.4,12.8,14.8,1.5,15.2-8.6.3-9.2-13.3-1.5-15.2Z"/>
      <path class="st0" d="M961.9,433.2c6.5-7.2,18.9,6.6,8.2,12.3-8.3,4.3-13.6-6.3-8.2-12.3Z"/>
      <path class="st0" d="M1152.2,588.8c15.4-4.5,12.3,18.6.5,13.6-5.7-2.5-5.8-12.1-.5-13.6Z"/>
      <circle class="st0" cx="822.1" cy="86.3" r="7.4"/>
      <circle class="st0" cx="1022.9" cy="106.1" r="7.4"/>
      <circle class="st0" cx="696.8" cy="125.1" r="7.4"/>
      <path class="st0" d="M888.5,112.4c-3.8-3.6-2.1-13.6,3.9-14.2,9.6-1,9.8,14.1,2.6,15.4-1.6.2-5.2,0-6.5-1.2Z"/>
      <circle class="st0" cx="677.8" cy="516.7" r="7.4"/>
      <path class="st0" d="M1085.3,179c5.3,5.9-1.9,15.7-9.3,11.5-9.4-5.3,1.6-20.1,9.3-11.5Z"/>
      <circle class="st0" cx="1155.9" cy="556.4" r="7.4"/>
      <circle class="st0" cx="948.1" cy="242.9" r="7.4"/>
      <path class="st0" d="M984.9,98.3c8.7-1.6,11.5,14.2,1.5,15.2-9.8,1.1-10.1-13.6-1.5-15.2Z"/>
      <path class="st0" d="M676.3,372.5c10.9-2.4,11,13.5,3,14.8-9.3,1.5-11.6-12.9-3-14.8Z"/>
      <circle class="st0" cx="696.7" cy="223.1" r="7.4"/>
      <circle class="st0" cx="840.4" cy="164.4" r="7.3"/>
      <circle class="st0" cx="715.7" cy="301.5" r="7.4"/>
      <circle class="st0" cx="1118.1" cy="477.9" r="7.4"/>
      <circle class="st0" cx="985.5" cy="67.1" r="7.4"/>
      <path class="st0" d="M672.3,276.7c4-4.8,12.7-2.5,12.5,5.6-.4,14-20.7,4.2-12.5-5.6Z"/>
      <circle class="st0" cx="1098.6" cy="145" r="7.4"/>
      <circle class="st0" cx="659.1" cy="164.3" r="7.4"/>
      <circle class="st0" cx="1098.9" cy="223" r="7.4"/>
      <path class="st0" d="M985.6,431.6c9.7,0,9,15,0,15s-10-15,0-15Z"/>
      <path class="st0" d="M731.5,372.5c7.4-1.6,12,6.6,7.5,12.1-8.3,10.2-19.2-9.6-7.5-12.1Z"/>
      <circle class="st0" cx="602.2" cy="399.4" r="7.4"/>
      <path class="st0" d="M1142.3,601c-6.3,5.9-18-5.2-10.2-11.6,8.1-6.5,16.6,5.6,10.2,11.6Z"/>
      <path class="st0" d="M1077.1,118.3c13.1-3.9,12.9,18,0,14.1-5.8-1.8-5.8-12.4,0-14.1Z"/>
      <circle class="st0" cx="840.3" cy="184" r="7.3"/>
      <circle class="st0" cx="1004.3" cy="106.1" r="7.4"/>
      <circle class="st0" cx="1136.8" cy="517.3" r="7.4"/>
      <path class="st0" d="M874.5,157.1c11.7-2.3,12.4,15.8.8,14.3-8-1-8.3-12.8-.8-14.3Z"/>
      <path class="st0" d="M965,177.1c12.3-2.8,11.4,12.4,3.2,14.1-9.4,1.9-11.6-12.2-3.2-14.1Z"/>
      <circle class="st0" cx="677.8" cy="555.9" r="7.4"/>
      <path class="st0" d="M1096.2,235.9c11.9-3.5,13.2,13.9,3.1,14.8-7.6.6-10.6-12.6-3.1-14.8Z"/>
      <circle class="st0" cx="966.8" cy="47.2" r="7.3"/>
      <circle class="st0" cx="733.7" cy="477.9" r="7.3"/>
      <circle class="st0" cx="1022.6" cy="301.1" r="7.3" transform="translate(413.8 1176.2) rotate(-71.6)"/>
      <path class="st0" d="M783.1,529c9.9-2,11.4,14.3,2.4,15.2-9.2,1-10.3-13.6-2.4-15.2Z"/>
      <circle class="st0" cx="910.6" cy="203.5" r="7.3"/>
      <path class="st0" d="M853.2,334.6c6.3-5.9,17.9,4.7,10.2,11.5-7.2,6.5-16.5-5.6-10.2-11.5Z"/>
      <circle class="st0" cx="910.7" cy="262" r="7.3"/>
      <circle class="st0" cx="733.6" cy="164.3" r="7.3"/>
      <circle class="st0" cx="733.7" cy="458.2" r="7.3"/>
      <path class="st0" d="M1093.1,257.7c7-7,18.2,3.4,10.1,10.6-6.6,5.8-16.5-4.2-10.1-10.6Z"/>
      <circle class="st0" cx="840.2" cy="125.2" r="7.3"/>
      <path class="st0" d="M1022,196c11.9-1.5,9.7,20.3-2.4,13.8-6.3-3.3-4.6-12.9,2.4-13.8Z"/>
      <circle class="st0" cx="1022.9" cy="145" r="7.4"/>
      <path class="st0" d="M916.1,150.4c-4.4,5.2-13,1.2-12.5-6.5,1-12.9,20.9-3.5,12.5,6.5Z"/>
      <circle class="st0" cx="1079.8" cy="203.4" r="7.3"/>
      <path class="st0" d="M983.1,177.1c12.5-2.8,10.9,12.4,5,14.1-9.5,2.8-13.8-12.1-5-14.1Z"/>
      <circle class="st0" cx="678" cy="203.5" r="7.3"/>
      <path class="st0" d="M730.6,274.8c10.3-3.1,13.8,11.3,5.7,13.9-9.8,3.1-13.4-11.6-5.7-13.9Z"/>
      <circle class="st0" cx="696.8" cy="497.7" r="7.3"/>
      <circle class="st0" cx="876.6" cy="106.3" r="7.3"/>
      <path class="st0" d="M853.3,198c7.8-7.1,16.5,4.5,10.2,10.6-7.7,7.4-16.7-4.7-10.2-10.6Z"/>
      <path class="st0" d="M783.1,235c9.6-2,11.3,12.9,4.1,15-10.7,3.2-11.5-13.5-4.1-15Z"/>
      <path class="st0" d="M745.6,443.6c-5.6-6.1,2.6-17.7,9.8-11.1,8,7.3-3.1,18.3-9.8,11.1Z"/>
      <path class="st0" d="M907.9,333.6c13-3.9,13,18,0,14.1-5.5-1.7-5.5-12.4,0-14.1Z"/>
      <path class="st0" d="M1118.6,451.5c8.8-.2,8.4,12.4,3.5,13.9-13.2,3.9-15-13.6-3.5-13.9Z"/>
      <circle class="st0" cx="1079.8" cy="243" r="7.3"/>
      <path class="st0" d="M1161.3,581.1c-3.6,4-11.9,1.8-12.4-3.8-1.7-15.9,22.1-6.9,12.4,3.8Z"/>
      <path class="st0" d="M891.7,372.5c10.1-2.1,11.9,14.8,1.5,15.2-8.7.3-8.4-13.8-1.5-15.2Z"/>
      <circle class="st0" cx="858.5" cy="183.9" r="7.3"/>
      <circle class="st0" cx="985.4" cy="242.8" r="7.3"/>
      <path class="st0" d="M772.2,543.1c-8.2,6.6-16.4-9.7-7-13.7s11.8,9.8,7,13.7Z"/>
      <circle class="st0" cx="840.2" cy="145.1" r="7.3"/>
      <circle class="st0" cx="696.7" cy="556.1" r="7.3"/>
      <circle class="st0" cx="563.8" cy="340.8" r="7.3"/>
      <circle class="st0" cx="966.9" cy="340.9" r="7.3"/>
      <path class="st0" d="M891.7,352.6c10.1-2,11.1,14.3,2.4,15.2-9.4.9-9.9-13.7-2.4-15.2Z"/>
      <path class="st0" d="M888.6,393.4c4.7-4.9,14.1,1.4,10.8,9.5-4.7,11.5-19-1.1-10.8-9.5Z"/>
      <circle class="st0" cx="876.4" cy="203.2" r="7.3"/>
      <path class="st0" d="M695.3,138.2c10.9-2.4,11.1,13.3,2.3,14.1-10.7,1-10.6-12.3-2.3-14.1Z"/>
      <circle class="st0" cx="929.2" cy="360.5" r="7.3"/>
      <path class="st0" d="M905.7,131.4c-6.7-6.3,1.8-18.7,9.7-11.9,6.9,5.9-3.1,18.1-9.7,11.9Z"/>
      <path class="st0" d="M728.4,443.5c-5.9-6.3,2.7-15.4,9.3-11.5,8.3,4.9-1,20.4-9.3,11.5Z"/>
      <path class="st0" d="M916.1,91.6c-.7.8-4.5,2.1-5.7,2.1-10,0-9.1-15.3.9-14.6,6.4.4,8.4,8.6,4.8,12.5Z"/>
      <circle class="st0" cx="985.3" cy="458.4" r="7.3"/>
      <circle class="st0" cx="966.9" cy="243" r="7.3"/>
      <path class="st0" d="M965,138.2c1.7-.4,5.2-.6,6.6.3,6.8,7-1,18-9.4,12.1-4.5-3.2-2.9-11.1,2.8-12.4h0Z"/>
      <circle class="st0" cx="564" cy="281.9" r="7.3"/>
      <circle class="st0" cx="858.4" cy="242.8" r="7.3"/>
      <path class="st0" d="M1028.3,217.9c7.8,9.3-10.3,18.5-12.4,7.4-1.7-9.2,8-12.7,12.4-7.4Z"/>
      <path class="st0" d="M745.6,345.8c-5.7-6.8,2.7-17.3,10.2-10.6,7.7,6.9-4.1,17.8-10.2,10.6Z"/>
      <circle class="st0" cx="858.5" cy="145.2" r="7.3"/>
      <path class="st0" d="M888.5,131.4c-5.5-5.2,0-17.1,8.8-12.9,3.8,2.3,3.4,10.6.5,13.1-1.8,1.6-7.6,1.3-9.3-.2Z"/>
      <circle class="st0" cx="858.5" cy="281.8" r="7.3"/>
      <circle class="st0" cx="876.4" cy="301.6" r="7.3"/>
      <path class="st0" d="M789.5,503.3c-.7.8-4.4,2.1-5.6,2-9-.5-8-18.6,3.4-15.2,4.5,1.4,4.8,10.3,2.2,13.2h0Z"/>
      <circle class="st0" cx="733.8" cy="360.4" r="7.3"/>
      <circle class="st0" cx="696.7" cy="47.3" r="7.3"/>
      <circle class="st0" cx="910.6" cy="301.5" r="7.3"/>
      <path class="st0" d="M672.3,248.1c-7.2-8.9,9.1-18.3,12-8.8,2.9,9.3-7.2,14.7-12,8.8Z"/>
      <path class="st0" d="M1116.1,294.7c10.7-2.4,12.6,12.2,3.2,14.1-9.8,2.1-10.8-12.4-3.2-14.1Z"/>
      <circle class="st0" cx="858.7" cy="222.9" r="7.3"/>
      <path class="st0" d="M657.3,510c11-2.4,12.5,12.8,2.3,14.1-8.2,1.2-11.2-12.1-2.3-14.1h0Z"/>
      <circle class="st0" cx="966.8" cy="301.6" r="7.3"/>
      <circle class="st0" cx="821.8" cy="360.6" r="7.3"/>
      <path class="st0" d="M873.6,235.9c13.4-3,11.8,15.1,1.8,14.1-7.8-.8-8.8-12.6-1.8-14.1Z"/>
      <circle class="st0" cx="1022.8" cy="360.5" r="7.3"/>
      <path class="st0" d="M683.5,228.2c-6,7.5-18.6-3.1-10.2-10.6,7.4-6.5,15.2,4.4,10.2,10.6Z"/>
      <path class="st0" d="M765,431.3c10.8-3.3,12,13.3,4.1,15-8.3,1.8-11.4-12.8-4.1-15Z"/>
      <circle class="st0" cx="751.1" cy="379.5" r="7.3"/>
      <path class="st0" d="M908.9,372.5c11.1-2.5,12.3,18.4-1.6,13.9-5.7-1.8-4.7-12.5,1.6-13.9Z"/>
      <path class="st0" d="M972.2,384.7c-8.4,9.5-18.5-7-7.8-11.9,5.8-2.7,13.2,5.8,7.8,11.9Z"/>
      <circle class="st0" cx="677.9" cy="340.8" r="7.3"/>
      <circle class="st0" cx="696.6" cy="575.2" r="7.3"/>
      <path class="st0" d="M894.2,137.5c8.3.5,8,17-2.7,14.9-7.3-1.4-7.1-15.4,2.7-14.9Z"/>
      <path class="st0" d="M747.8,470.2c10.9-3.4,14.2,13,4,14.7-7.4,1.3-11.1-12.5-4-14.7Z"/>
      <path class="st0" d="M1003.9,470.2c7.7-.7,11.2,9.4,3.8,13.8-10.5,6.1-14.4-12.8-3.8-13.8Z"/>
      <circle class="st0" cx="1022.6" cy="321" r="7.3" transform="translate(395 1189.8) rotate(-71.6)"/>
      <circle class="st0" cx="876.3" cy="320.8" r="7.2"/>
      <circle class="st0" cx="696.6" cy="183.6" r="7.3"/>
      <path class="st0" d="M890.7,196c10.2-3.2,12.2,12.6,4.8,14.9-9.6,2.9-11.8-12.7-4.8-14.9Z"/>
      <path class="st0" d="M749.7,235c8.6-2.1,11.7,14.3,2.4,15.2-9,.8-11.1-13.1-2.4-15.2Z"/>
      <circle class="st0" cx="733.6" cy="242.6" r="7.2"/>
      <path class="st0" d="M748.7,254.9c9.9-3,12.3,12.7,4.1,15.1-8.9,2.5-11.3-13-4.1-15.1Z"/>
      <circle class="st0" cx="1004.3" cy="86.6" r="7.2"/>
      <path class="st0" d="M1077.1,294.7c9.6-2.9,13.7,11.5,5,14.1-10,3-12.3-11.9-5-14.1Z"/>
      <circle class="st0" cx="910.7" cy="321.1" r="7.3"/>
      <path class="st0" d="M1047.3,570.7c6.3,5.8-3.5,17.2-10.7,10.2-7.5-7.4,4.2-16.2,10.7-10.2Z"/>
      <path class="st0" d="M746.5,307.8c-3.7-2.8-3.8-11.7,2.2-13.1,15.3-3.5,9,21.4-2.2,13.1Z"/>
      <path class="st0" d="M908.9,412.3c13.2-3,10.4,18.7-1.3,13.6-5.8-2.5-5.1-12.1,1.3-13.6Z"/>
      <g>
        <circle class="st1" cx="985.1" cy="419.4" r="8.1"/>
        <path class="st1" d="M1131,582c-.7-.8-1.9-5.4-1.9-6.6,0-10.1,17.9-9.4,15,3.4-1.1,5.5-9.8,6.8-13.1,3.2h0Z"/>
        <path class="st1" d="M587.6,229.1c-7,5.6-17.5-4.9-10.2-11.5,9.1-8.1,17,6.1,10.2,11.5Z"/>
        <path class="st1" d="M1042.6,548.3c9,.3,9.1,14.9,0,15-11.5,0-10.2-15.4,0-15Z"/>
        <circle class="st1" cx="659.3" cy="281.8" r="7.4"/>
        <path class="st1" d="M653.3,228.2c-5.9-7.3,5.8-18.1,11.9-8.8,5.3,8.2-7.4,14.3-11.9,8.8Z"/>
      </g>
      <circle class="st0" cx="733.6" cy="184" r="7.2"/>
      <path class="st0" d="M782.2,216c9.9-3,12.8,11.6,5.3,14.4-9.4,3.4-12.7-12.2-5.3-14.4Z"/>
      <path class="st0" d="M756,326.8c-1.3,1.2-4.7,1.4-6.5,1.1-7.7-1.1-7.3-15.7,2.6-14.4,5.9.8,7.8,9.7,3.9,13.3Z"/>
      <circle class="st0" cx="967.1" cy="106.5" r="7.2"/>
      <path class="st0" d="M780,374.4c7.3-7.3,16.7,4.2,10.2,10.6-6.8,6.7-16.5-4.3-10.2-10.6Z"/>
      <path class="st0" d="M712.5,568.9c15.2-3.5,12.1,16.8,0,13.2-5.1-1.6-6-11.9,0-13.2Z"/>
      <circle class="st0" cx="733.7" cy="399" r="7.3"/>
      <path class="st0" d="M749.6,273.8c8.9-1.7,11.7,14,2.4,15.2-9.5,1.3-9.8-13.7-2.4-15.2Z"/>
      <circle class="st0" cx="733.7" cy="516.9" r="7.2"/>
      <path class="st0" d="M907.9,392.4c11-3.3,12.1,12,5.1,14.1-10.2,3.1-12.1-12-5.1-14.1Z"/>
      <circle class="st0" cx="1098.8" cy="164.6" r="7.2"/>
      <circle class="st0" cx="910.5" cy="164.3" r="7.2"/>
      <path class="st0" d="M1022.8,470.3c8.5-.8,9.1,14.5.7,15.1-9.9.7-10.2-14.2-.7-15.1Z"/>
      <path class="st0" d="M1001.1,60.3c11.5-3.4,12.4,12.6,4.1,14.2-9.2,1.7-11.3-12-4.1-14.2Z"/>
      <path class="st0" d="M601.3,274.8c8.8-1.2,10.3,12.5,3.2,14.1-11,2.5-13.2-12.8-3.2-14.1Z"/>
      <path class="st0" d="M678.1,39.6c12.8-.4,4.5,22.8-5.6,12.5-4.6-4.8-.5-12.3,5.6-12.5Z"/>
      <path class="st0" d="M1020.1,79.4c13.5-4.1,11.6,18.8-.4,13.6-5.5-2.4-5.1-12,.4-13.6Z"/>
      <circle class="st0" cx="564.2" cy="223.1" r="7.2"/>
      <path class="st0" d="M905.7,236.8c1.3-1.2,4.7-1.4,6.5-1.1,8.4,1.2,6.4,16.3-3.3,14.3-5.7-1.1-6.8-9.8-3.2-13.2Z"/>
      <path class="st0" d="M748.7,196.1c11-3.3,13.2,16.1.8,14.3-7.7-1.2-6.4-12.7-.8-14.3Z"/>
      <path class="st0" d="M780,393.4c1.3-1.2,4.9-1.4,6.6-1.2,8,.8,6.3,17.5-4.4,14.3-4.5-1.3-5.4-10.1-2.2-13.1h0Z"/>
      <path class="st0" d="M780,511c8.6-6.9,16.5,8.9,7.9,12.8-8.6,3.9-13.2-8.5-7.9-12.8Z"/>
      <path class="st0" d="M897.1,268.9c-6,4.9-14.7-4.3-8.7-11.8,6.4-7.9,16.7,5.3,8.7,11.8Z"/>
      <circle class="st0" cx="733.7" cy="145" r="7.2"/>
      <path class="st0" d="M789.5,158.1c3,2.8,3.1,12.3-2,13.3-12.5,2.5-11.7-13.7-2.6-14.4,1.4-.1,3.5,0,4.6,1.1h0Z"/>
      <path class="st0" d="M749.6,411.4c6.3-1,11.4,7.8,5.7,13-10,9.2-16-11.4-5.7-13Z"/>
      <path class="st0" d="M782.2,274.8c13.5-4,11.8,17.5.2,13.9-5.6-1.8-5.7-12.3-.2-13.9Z"/>
      <circle class="st0" cx="678.2" cy="145.1" r="7.2"/>
      <path class="st0" d="M750.6,391.5c5.5-.5,10.1,8.2,4.8,13-10.2,9.2-16.9-12-4.8-13Z"/>
      <path class="st0" d="M889.8,235.9c13.3-4.1,13.3,17.8.9,14.1-5.4-1.6-5.4-12.7-.9-14.1Z"/>
      <path class="st0" d="M907,274.8c10.8-3.3,13.7,11.4,5.7,13.9-9.8,3.1-11.7-12.1-5.7-13.9Z"/>
      <circle class="st0" cx="621.4" cy="262.3" r="7.2"/>
      <path class="st0" d="M785.6,137.5c8.3.3,8.1,15.3-.9,15-9.2-.3-8.2-15.3.9-15Z"/>
      <path class="st0" d="M1009.3,228.2c-6.4,6.5-17-2.3-10.3-9.4,8-8.3,16.6,3.1,10.3,9.4Z"/>
      <path class="st0" d="M746.5,464.4c-2.5-2.4-3-7-1-10,5.8-8.7,15.8.3,11.5,7.9-1.8,3.2-7.9,4.6-10.5,2.1Z"/>
      <circle class="st0" cx="910.5" cy="184.1" r="7.2"/>
      <circle class="st0" cx="1022.9" cy="340.8" r="7.1"/>
      <path class="st0" d="M881.7,335.5c4.3,4.3,1,14.1-7.2,12.2-12.2-2.8-.6-20,7.2-12.2Z"/>
      <circle class="st0" cx="621" cy="242.8" r="7.2"/>
      <circle class="st0" cx="910.5" cy="223" r="7.2"/>
      <circle class="st0" cx="733.6" cy="301.4" r="7.1"/>
      <path class="st0" d="M783.1,177.1c10.5-2.3,11.2,12,4.1,14.1-10.1,3-11.6-12.5-4.1-14.1Z"/>
      <path class="st0" d="M789.4,268c-7.9,6.4-16.3-7.2-8.2-12.3,8.2-5.3,13.8,7.8,8.2,12.3Z"/>
      <path class="st0" d="M890.8,274.8c10.7-3.2,11.7,12.1,5.1,14.1-10.2,3-12.1-12-5.1-14.1Z"/>
      <path class="st0" d="M746.5,139.1c6.2-5.8,17.1,6,8.8,12-8.5,6-14.4-6.8-8.8-12Z"/>
      <circle class="st0" cx="751.2" cy="497.1" r="7.1"/>
      <path class="st0" d="M890.8,216c12.2-3.7,12.3,17.5-.9,14.1-4.6-2.9-4.5-12.5.9-14.1Z"/>
      <path class="st0" d="M765,274.8c11.4-3.4,11.9,12,5.1,14.1-8.6,2.6-12.7-11.8-5.1-14.1Z"/>
      <circle class="st0" cx="910.6" cy="360.6" r="7.1"/>
      <circle class="st0" cx="751.2" cy="164.2" r="7.1"/>
      <path class="st0" d="M888.5,170.3c-5.2-4.8.3-18.1,8.8-12,7.9,5.7-1.9,18.3-8.8,12Z"/>
      <path class="st0" d="M898,334.6c8.4,7.8-7.1,21-10.9,8.7-2.4-7.8,6.5-12.9,10.9-8.7Z"/>
      <path class="st0" d="M766.8,254.9c7.9-1.6,9.6,8,5.6,12.9-11.2,7.2-15.9-10.8-5.6-12.9Z"/>
      <path class="st0" d="M763.7,334.6c8.3-8.3,15.3,9.7,7.9,12.8-8.5,3.6-13-7.7-7.9-12.8Z"/>
      <path class="st0" d="M888.5,178c5.1-4.8,15.2,2,10.1,10.5-5.5,9.2-17.3-3.7-10.1-10.5Z"/>
      <path class="st0" d="M765.9,294.7c11.1-2.5,10.3,12.1,4.8,13.9-9.4,3.1-13.5-11.9-4.8-13.9Z"/>
      <circle class="st0" cx="967" cy="360.3" r="7.1"/>
      <circle class="st0" cx="678.1" cy="575.6" r="7.1"/>
      <circle class="st0" cx="733.6" cy="340.6" r="7.1"/>
      <path class="st0" d="M765,392.4c11.3-3.4,12.9,15.7,1.7,14.3-6.9-.9-7.9-12.4-1.7-14.3Z"/>
      <circle class="st0" cx="876.2" cy="145.1" r="7.1"/>
      <circle class="st0" cx="1060.1" cy="341.2" r="7.1"/>
      <path class="st0" d="M892.6,293.7c8-1.2,10.5,14.3,1.5,15.2-9.2,1-9.9-13.9-1.5-15.2Z"/>
      <path class="st0" d="M765,177.1c12.7-3.8,12.1,16.4.9,14.1-5.9-1.2-6.5-12.5-.9-14.1Z"/>
      <path class="st0" d="M783.1,294.7c11.1-2.5,10.6,12.6,3.2,14.1-8.9,1.8-11.2-12.3-3.2-14.1Z"/>
      <path class="st0" d="M746.5,217c1.5-1.2,3.7-1.4,5.5-1.2,8.9,1.1,7,17.4-3.3,14.3-4.6-1.4-5.8-10.2-2.2-13.1Z"/>
      <path class="st0" d="M766.9,216c8.8-1.1,10.2,12.5,3.2,14.1-11.1,2.5-12-13-3.2-14.1Z"/>
      <path class="st0" d="M1002.1,138.2c13.7-3.1,10.9,22.9-4.1,11-.6-4.2-.9-9.9,4.1-11Z"/>
      <circle class="st0" cx="1098.5" cy="321.6" r="7.1"/>
      <circle class="st0" cx="876.2" cy="262.1" r="7.1"/>
      <path class="st0" d="M765,412.3c11.5-3.5,12.5,12.4,4.1,14.1-9.6,2.1-9.2-12.5-4.1-14.1Z"/>
      <path class="st0" d="M789.5,425.5c-1,1-4.2,1.3-5.7,1.2-7.6-.6-8-16.8,3.6-14.6,4.6.9,4.9,10.6,2.1,13.4h0Z"/>
      <circle class="st0" cx="910.4" cy="106.4" r="7.1"/>
      <circle class="st0" cx="876.4" cy="281.5" r="7.1"/>
      <path class="st0" d="M746.6,189.2c-6.2-6.2,1.2-17.9,8.7-10.9,7,6.5-2.1,17.6-8.7,10.9Z"/>
      <path class="st0" d="M789.4,346.7c-9.6,7.7-17.3-13.4-3.8-13.3,7,0,7.7,10.2,3.8,13.3Z"/>
      <path class="st0" d="M617.5,216.9c11-3.3,14.4,9.4,6.4,12.7-10.3,4.2-12.5-10.9-6.4-12.7Z"/>
      <path class="st0" d="M765,235.9c13.7-4.2,11.1,18.4.3,13.8-5.2-2.2-5.4-12.3-.3-13.8Z"/>
      <path class="st0" d="M784.7,313.9c10.1,0,9.1,15.8-1.5,14.5-7.1-.9-6.7-14.5,1.5-14.5Z"/>
      <path class="st0" d="M898,315.6c6,5.6-1.7,17.2-8.8,11.9-8.1-6,2.4-18,8.8-11.9Z"/>
      <path class="st0" d="M772.3,209.2c-4.7,4.2-11.8-.1-11.2-6.1,1.2-11,13.7-8.3,13.3.5,0,1.2-1.3,4.9-2.1,5.6Z"/>
      <path class="st0" d="M765.9,157.2c9.3-2.1,11.2,11.8,4.8,13.9-10.8,3.5-12.2-12.3-4.8-13.9Z"/>
      <path class="st0" d="M765,138.2c11.6-3.4,12,12.5,4.1,14.1-7.9,1.7-10.9-12.1-4.1-14.1Z"/>
      <circle class="st0" cx="733.4" cy="203.5" r="7"/>
      <path class="st0" d="M767.7,510c8.4-.8,10.1,16.5-2,14.3-6.4-1.2-6.3-13.5,2-14.3Z"/>
      <circle class="st0" cx="876.2" cy="183.6" r="7"/>
      <path class="st0" d="M763.7,385.6c-5.2-4.2-1.1-16.3,7-12.8,8.3,3.6,1.9,20-7,12.8Z"/>
      <path class="st0" d="M765,314.6c13-3.8,11.6,16.2,1.3,13.7-6.7-1.7-6.8-12.1-1.3-13.7Z"/>
      <path class="st0" d="M763.7,366.7c-6.1-5.8,1-18.2,7.9-12.8,7.7,6-1.7,18.6-7.9,12.8Z"/>
      <path class="st0" d="M738.8,325.9c-9,9-19.7-12.3-4.7-11.6,6,.3,8.9,7.4,4.7,11.6Z"/>
      <path class="st0" d="M790.3,208.3c-6.2,7.7-17.3-4.6-9.3-10.7,6.4-4.8,14.9,3.8,9.3,10.7Z"/>
    </g>
    <g>
      <circle class="st0" cx="273.2" cy="359.9" r="8.2"/>
      <circle class="st0" cx="310.9" cy="8.1" r="8.1"/>
      <path class="st0" d="M403.1,411.4c11.8-2.6,14.2,15.8,3.4,16-10.1.1-11.7-14.2-3.4-16Z"/>
      <path class="st0" d="M252,19.6c10.8-2.5,13.6,10.7,5.1,15.1-11.1,5.7-14.3-13-5.1-15.1Z"/>
      <circle class="st0" cx="348.7" cy="634" r="8"/>
      <path class="st0" d="M382.2,98.4c13.3-3.9,16,15.6,3.5,15.2-9.6-.3-9.6-13.4-3.5-15.2Z"/>
      <circle class="st0" cx="517.9" cy="27.5" r="8"/>
      <circle class="st0" cx="348.6" cy="419.2" r="8"/>
      <circle class="st0" cx="121.3" cy="125.4" r="8"/>
      <circle class="st0" cx="216" cy="67" r="8"/>
      <path class="st0" d="M316.2,275.7c5.2,4.8.4,19.3-9.7,12.8-10.2-6.5,2.1-19.7,9.7-12.8Z"/>
      <path class="st0" d="M311.5,351.9c9.7.3,9.7,18.5-2.5,15.7-9-2-7.8-16,2.5-15.7Z"/>
      <circle class="st0" cx="120.9" cy="183.9" r="7.9"/>
      <path class="st0" d="M328.9,625.8c12.5-1.6,11.5,20.7-1.4,15.4-7-2.8-6.5-14.4,1.4-15.4Z"/>
      <path class="st0" d="M364.2.6c14.6-3.4,13.1,19.4-.7,14.8-5.3-1.7-6.6-13.1.7-14.8Z"/>
      <path class="st1" d="M272.8,254c8.2-.7,9.8,11.1,5.1,14.2-12.6,8.2-18.6-13.1-5.1-14.2h0Z"/>
      <circle class="st0" cx="310.7" cy="340.4" r="7.9"/>
      <path class="st0" d="M184.1,236.9c2.4,3,1.9,11.5-2.4,12.9-14.9,4.9-15.2-18-.7-14.7.6.1,2.7,1.3,3.1,1.8h0Z"/>
      <circle class="st0" cx="139.9" cy="164.6" r="7.9"/>
      <circle class="st0" cx="348.6" cy="536.2" r="7.9"/>
      <circle class="st0" cx="329.7" cy="379.6" r="7.9"/>
      <path class="st0" d="M354.2,373.5c6.6,6.6-2.8,20-11.1,11.5-7-7.2,4.1-18.5,11.1-11.5Z"/>
      <circle class="st0" cx="461.6" cy="497.4" r="7.8"/>
      <circle class="st0" cx="348.7" cy="692.9" r="7.8"/>
      <circle class="st0" cx="348.7" cy="144.7" r="7.8"/>
      <path class="st0" d="M459.2,138.2c17.1-3.9,10.5,20.9-1.5,13.8-5.5-3.4-4.6-12.5,1.5-13.8Z"/>
      <path class="st0" d="M158.6,117.6c9.2,0,10.1,13,4.3,14.7-14.4,4.4-15.9-14.7-4.3-14.7Z"/>
      <circle class="st0" cx="480.5" cy="66.6" r="7.8"/>
      <circle class="st0" cx="480.5" cy="105.9" r="7.8"/>
      <path class="st0" d="M203.1,91.5c-6.5,7.1-19.3-2.2-11.9-10.5,6-6.8,19.4,2.3,11.9,10.5Z"/>
      <circle class="st0" cx="367.4" cy="516.8" r="7.8"/>
      <circle class="st0" cx="329.6" cy="144.7" r="7.8"/>
      <path class="st0" d="M327.1,646.7c11-3.3,15.2,13.2,4.1,15-9.8,1.6-12.2-12.6-4.1-15Z"/>
      <path class="st0" d="M364.2,20.5c16.9-4,11.5,21.3-1.5,13.8-4.2-2.4-4.2-12.4,1.5-13.8Z"/>
      <circle class="st0" cx="83.2" cy="164.5" r="7.8"/>
      <circle class="st1" cx="329.7" cy="281.9" r="7.8"/>
      <path class="st0" d="M366,391.5c10.4-2.1,11.7,14.7,2.3,16-10.5,1.3-11.1-14.2-2.3-16Z"/>
      <circle class="st0" cx="310.8" cy="27.8" r="7.8"/>
      <circle class="st0" cx="158.8" cy="203.6" r="7.7"/>
      <circle class="st0" cx="64.3" cy="164.5" r="7.7"/>
      <path class="st0" d="M402.2,549c15.4-4.6,12.4,21-.9,14.1-5.2-2.7-4.5-12.6.9-14.1Z"/>
      <path class="st0" d="M286.9,14.7c-3.7-3.9-3-13.1,2.9-14.2,14.2-2.7,11.9,21.4-2.9,14.2Z"/>
      <path class="st0" d="M137,235.9c15.4-4.6,12.4,21-.9,14.1-5.1-2.7-4.4-12.5.9-14.1Z"/>
      <circle class="st0" cx="197" cy="66.9" r="7.7"/>
      <path class="st0" d="M152.9,248.1c-8.1-8.1,7.4-18.9,12.5-10.2,4.8,8.1-6.4,16.3-12.5,10.2Z"/>
      <circle class="st0" cx="329.8" cy="477.9" r="7.7"/>
      <path class="st0" d="M119,196c11-2.2,14.4,14.4,2.4,15.2-9.6.7-10.1-13.6-2.4-15.2Z"/>
      <path class="st0" d="M229.9,314.7c7.6-6.1,18.2,5.9,10.2,12.4-8.5,6.9-17.1-6.9-10.2-12.4Z"/>
      <circle class="st0" cx="83.4" cy="145" r="7.7"/>
      <path class="st0" d="M422.1,431.3c13.1-3,12.1,18.9-.7,14.8-6.7-2.1-6.3-13.2.7-14.8Z"/>
      <circle class="st0" cx="348.6" cy="595.4" r="7.7"/>
      <path class="st0" d="M2.7,139.1c6.1-5.5,18.6,3.2,11.6,11.1-7.3,8.2-19.1-4.3-11.6-11.1Z"/>
      <circle class="st0" cx="121.2" cy="145" r="7.7"/>
      <circle class="st0" cx="273.1" cy="379.9" r="7.7"/>
      <path class="st0" d="M354.2,229.1c-6.1,5.7-19.3-4.2-11.1-11.5,8.4-7.5,17.9,5.1,11.1,11.5Z"/>
      <circle class="st0" cx="330" cy="674.1" r="7.7"/>
      <path class="st0" d="M141.4,117.6c8.6.4,8.4,16.8-2.4,15.4-8.8-1.2-9.7-16,2.4-15.4Z"/>
      <path class="st0" d="M164.2,139.1c8.3,6.9-4.1,18.8-11.1,11.6-6.6-6.9,3.9-17.5,11.1-11.6Z"/>
      <path class="st0" d="M139.8,215.1c10-.9,10.4,16.8-.2,16.1-8.5-.6-9.4-15.3.2-16.1Z"/>
      <circle class="st0" cx="196.8" cy="360.2" r="7.7"/>
      <circle class="st0" cx="367.3" cy="438.9" r="7.7"/>
      <circle class="st0" cx="386.3" cy="438.9" r="7.7"/>
      <circle class="st0" cx="83.3" cy="125.3" r="7.7"/>
      <circle class="st0" cx="386.2" cy="575.5" r="7.7"/>
      <circle class="st0" cx="329.6" cy="183.8" r="7.7"/>
      <circle class="st0" cx="367.4" cy="66.7" r="7.7"/>
      <circle class="st0" cx="480.2" cy="47.1" r="7.7"/>
      <circle class="st0" cx="348.6" cy="203.3" r="7.7"/>
      <path class="st0" d="M233,372.5c13.7-3.1,13.3,18.6-1.8,14.1-5-1.4-4.9-12.6,1.8-14.1Z"/>
      <circle class="st0" cx="178" cy="321" r="7.7"/>
      <circle class="st0" cx="158.8" cy="282" r="7.7"/>
      <circle class="st0" cx="216" cy="203.1" r="7.7"/>
      <path class="st0" d="M361.9,209.2c-7.3-6.8,3.7-18.8,11.1-11.6,8.1,7.9-5.1,17.2-11.1,11.6Z"/>
      <path class="st0" d="M289.1,313.7c13.4-3.2,14.6,17.4,0,14.1-6.7-1.5-5.9-12.7,0-14.1Z"/>
      <circle class="st0" cx="443" cy="8.1" r="7.7"/>
      <circle class="st0" cx="196.8" cy="340.5" r="7.7"/>
      <circle class="st0" cx="291.8" cy="47.1" r="7.6"/>
      <path class="st0" d="M385,509.1c10.2-2,11.8,14,2.4,15.2-10,1.3-12.1-13.3-2.4-15.2h0Z"/>
      <path class="st0" d="M164.2,217c5.4,4.3,2.3,15.5-8.1,13.1-5.5-1.3-5.9-8.8-2.9-12.4,2-2.5,8.6-2.7,11-.7h0Z"/>
      <circle class="st0" cx="480.3" cy="27.9" r="7.7"/>
      <circle class="st0" cx="461.7" cy="478.2" r="7.7"/>
      <circle class="st0" cx="310.7" cy="262.3" r="7.6"/>
      <circle class="st1" cx="196.7" cy="281.8" r="7.6"/>
      <circle class="st0" cx="424.2" cy="8.1" r="7.6"/>
      <circle class="st0" cx="404.8" cy="145.1" r="7.6"/>
      <circle class="st0" cx="348.7" cy="164.4" r="7.6"/>
      <path class="st0" d="M402.2,59.5c12-2.9,13.9,12.9,3.9,14.8-9.5,1.9-11.2-13.1-3.9-14.8Z"/>
      <path class="st0" d="M381,72.5c-10-10.1,12-20.9,12.4-6.5.3,7.4-7.4,11.5-12.4,6.5Z"/>
      <circle class="st0" cx="121.1" cy="164.6" r="7.6"/>
      <circle class="st0" cx="329.8" cy="419.3" r="7.6"/>
      <circle class="st0" cx="386.4" cy="458.1" r="7.6"/>
      <circle class="st0" cx="64.3" cy="184" r="7.6"/>
      <path class="st0" d="M309.9,411.4c8.9-1.1,12.1,13.8,2.4,15.2-11.6,1.7-11.1-14.1-2.4-15.2Z"/>
      <circle class="st0" cx="367.3" cy="477.7" r="7.6"/>
      <circle class="st0" cx="348.8" cy="556.2" r="7.6"/>
      <circle class="st0" cx="348.7" cy="477.8" r="7.6"/>
      <path class="st0" d="M383.2,20.5c14.6-4.3,13.5,19.4.3,13.8-6.8-2.8-5.5-12.2-.3-13.8Z"/>
      <path class="st0" d="M136.1,138.2c14.9-4.5,14.8,17.1,1.8,14.1-7.3-1.7-6.8-12.6-1.8-14.1Z"/>
      <circle class="st0" cx="405.2" cy="497.6" r="7.6"/>
      <path class="st0" d="M347.9,431.3c9.3-1.8,12.3,15.8-.2,15.3-9.1-.4-8.3-13.6.2-15.3Z"/>
      <circle class="st0" cx="424.1" cy="477.7" r="7.6"/>
      <circle class="st0" cx="386.1" cy="497.3" r="7.6"/>
      <path class="st0" d="M498.1.6c12.4-2.6,10.8,20.1-2.2,14.5-6.5-2.7-4.3-13.1,2.2-14.5Z"/>
      <circle class="st0" cx="273.3" cy="27.5" r="7.6"/>
      <circle class="st0" cx="291.8" cy="66.7" r="7.6"/>
      <circle class="st0" cx="45.5" cy="105.9" r="7.6"/>
      <circle class="st0" cx="8.4" cy="164.5" r="7.6"/>
      <circle class="st0" cx="158.7" cy="164.4" r="7.6"/>
      <circle class="st0" cx="215.8" cy="47.2" r="7.6"/>
      <circle class="st0" cx="273.1" cy="47.1" r="7.6"/>
      <circle class="st0" cx="177.7" cy="183.9" r="7.6"/>
      <path class="st0" d="M194,118.3c15-4.4,13.4,18,.2,13.9-6.4-2.1-5.7-12.3-.2-13.9Z"/>
      <path class="st0" d="M270.1,392.4c10.7-2.5,14.1,10.2,6.4,13.6-11,4.7-15.6-11.4-6.4-13.6Z"/>
      <path class="st0" d="M137,177.1c14.5-3.3,13.4,14.9,2.6,14.2-8.5-.5-9.5-12.6-2.6-14.2Z"/>
      <circle class="st0" cx="216" cy="282.2" r="7.6"/>
      <circle class="st0" cx="461.5" cy="125.4" r="7.6"/>
      <circle class="st0" cx="442.7" cy="477.9" r="7.6"/>
      <circle class="st0" cx="235" cy="66.8" r="7.6"/>
      <path class="st0" d="M221.2,119.2c9.1,7.4-6.1,19.4-11.6,10.2-4.9-8.3,5.3-15.3,11.6-10.2Z"/>
      <path class="st0" d="M418.1,120.1c4.6-5.5,16.7-1.5,12.6,8.6-4.2,10.2-19.9,0-12.6-8.6Z"/>
      <path class="st0" d="M278.2,60.4c4.2,3.4,2.2,13.8-4.4,13.7-16.4,0-5.5-21.6,4.4-13.7Z"/>
      <circle class="st0" cx="348.5" cy="66.9" r="7.6"/>
      <path class="st0" d="M383.2,412.3c16-3.6,12.2,19-.4,13.6-5.1-2.1-6.1-12.1.4-13.6Z"/>
      <circle class="st0" cx="405.2" cy="536.4" r="7.6"/>
      <circle class="st0" cx="310.4" cy="222.9" r="7.6"/>
      <path class="st0" d="M403.1,157.2c12.9-2.8,13.1,18.6-1.8,14.1-5.3-1.6-4.9-12.7,1.8-14.1Z"/>
      <circle class="st0" cx="442.9" cy="105.8" r="7.6"/>
      <circle class="st0" cx="196.9" cy="301.5" r="7.6"/>
      <circle class="st0" cx="216.1" cy="262.2" r="7.6"/>
      <path class="st0" d="M270.1,274.8c12.8-3,13.1,13.6,3.2,15-8.1,1.2-10.8-13.2-3.2-15Z"/>
      <path class="st0" d="M136.1,197c2.6-.8,7.9-.5,9.7,1.6,3,4.8,1.7,10.7-4,12.2-10.2,2.7-12.4-11.8-5.7-13.8Z"/>
      <path class="st0" d="M213,138.2c15-4.4,12.9,19-.4,13.6-6.5-2.7-5.1-12,.4-13.6Z"/>
      <circle class="st0" cx="443" cy="27.7" r="7.6"/>
      <circle class="st0" cx="367.4" cy="458.2" r="7.6"/>
      <path class="st0" d="M386.6,78.6c8.6.3,11,18-3.4,14.8-7.9-1.7-4.9-15.1,3.4-14.8Z"/>
      <circle class="st0" cx="386.3" cy="536.5" r="7.6"/>
      <circle class="st0" cx="177.7" cy="164.5" r="7.6"/>
      <circle class="st0" cx="291.7" cy="86.4" r="7.6"/>
      <path class="st0" d="M157,177.1c10.8-2.9,11.8,12,5,14.1-11.5,3.4-14.8-11.5-5-14.1Z"/>
      <path class="st0" d="M278.2,119.3c4.5,4.2,2.1,12.8-4.7,13.3-15.3,1.1-5.2-22.5,4.7-13.3Z"/>
      <path class="st0" d="M400,33.7c-6-6,2-18.8,10.2-11.5,7.5,6.7-3.1,18.6-10.2,11.5Z"/>
      <circle class="st0" cx="424" cy="27.8" r="7.5"/>
      <path class="st0" d="M108.1,150.4c-6.7,6.7-17.9-3-11.5-10.2,6.8-7.7,18.8,2.9,11.5,10.2Z"/>
      <circle class="st0" cx="537.1" cy="27.6" r="7.6"/>
      <path class="st0" d="M202.2,151.3c-9.6,7.9-20.4-13.8-4.7-13.4,7.7.2,9.3,9.6,4.7,13.4Z"/>
      <path class="st0" d="M354.3,178c2.6,2.6,2.3,9.4-.7,12-7,5.8-17.6-5.5-10-11.8,2.1-1.8,8.9-2,10.7-.2Z"/>
      <circle class="st0" cx="197" cy="47.1" r="7.6"/>
      <circle class="st1" cx="348.9" cy="262.4" r="7.6"/>
      <circle class="st0" cx="386.5" cy="477.8" r="7.5"/>
      <circle class="st0" cx="405" cy="105.7" r="7.5"/>
      <circle class="st0" cx="235" cy="125.2" r="7.6"/>
      <path class="st0" d="M480,451.2c10.4-1.5,10.4,12.5,3.2,14.1-11.7,2.7-14.1-12.4-3.2-14.1Z"/>
      <circle class="st0" cx="348.7" cy="497.7" r="7.5"/>
      <circle class="st0" cx="64.4" cy="145.1" r="7.5"/>
      <circle class="st0" cx="197" cy="242.9" r="7.5"/>
      <circle class="st0" cx="235.2" cy="281.9" r="7.5"/>
      <circle class="st0" cx="442.9" cy="46.8" r="7.5"/>
      <path class="st0" d="M251,372.5c13.4-4,14.4,17.1.9,14.1-6.9-1.5-6.4-12.4-.9-14.1Z"/>
      <circle class="st0" cx="27" cy="125.4" r="7.6"/>
      <circle class="st0" cx="480.4" cy="86.4" r="7.5"/>
      <circle class="st0" cx="178" cy="125.1" r="7.5"/>
      <circle class="st0" cx="291.8" cy="164.4" r="7.5"/>
      <circle class="st0" cx="329.7" cy="164.5" r="7.5"/>
      <circle class="st0" cx="196.8" cy="321" r="7.5"/>
      <circle class="st0" cx="291.9" cy="282.1" r="7.5"/>
      <path class="st0" d="M195,157.2c10.6-2.3,13,11.7,5,14.1-11.5,3.4-13.7-12.2-5-14.1Z"/>
      <circle class="st0" cx="424" cy="458.4" r="7.5"/>
      <circle class="st0" cx="518.1" cy="66.5" r="7.5"/>
      <circle class="st0" cx="311" cy="203.2" r="7.5"/>
      <path class="st0" d="M324,256.8c7.7-7.7,19,6.4,10.2,11.6-8.6,5-16.1-5.7-10.2-11.6Z"/>
      <circle class="st0" cx="177.9" cy="86.3" r="7.5"/>
      <circle class="st0" cx="329.9" cy="614.5" r="7.5"/>
      <path class="st0" d="M442.8,117.4c9.7-.5,8.9,14.9.6,15.8-9.3,1-11.3-15.2-.6-15.8Z"/>
      <circle class="st0" cx="158.8" cy="105.8" r="7.5"/>
      <circle class="st1" cx="159" cy="262.3" r="7.5"/>
      <circle class="st0" cx="292" cy="301.5" r="7.5"/>
      <circle class="st0" cx="102.3" cy="183.9" r="7.5"/>
      <path class="st0" d="M259.2,119.2c1.1,1,2.2,4.9,2.1,6.5-.3,8.9-15.9,10.4-14.6-1.8.7-6.2,9.1-7.9,12.5-4.7Z"/>
      <circle class="st0" cx="197" cy="262.4" r="7.5"/>
      <circle class="st0" cx="480.4" cy="477.8" r="7.5"/>
      <circle class="st0" cx="367.3" cy="419.2" r="7.5"/>
      <path class="st0" d="M210,237.8c5.7-7.1,19.2,1.5,11.5,10.2-6.6,7.3-17.2-3.2-11.5-10.2Z"/>
      <path class="st0" d="M252,98.3c10.3-3.1,13,13.7,3.2,15-10.6,1.5-10.4-12.8-3.2-15Z"/>
      <circle class="st0" cx="424.1" cy="517" r="7.5"/>
      <circle class="st0" cx="348.6" cy="458.2" r="7.5"/>
      <path class="st0" d="M62.9,118.3c9.8-1.4,12.6,12,3.2,14.1-11,2.5-12.9-12.7-3.2-14.1Z"/>
      <circle class="st0" cx="329.8" cy="458.3" r="7.5"/>
      <circle class="st0" cx="424.1" cy="497.5" r="7.5"/>
      <path class="st0" d="M459.2,20.5c12.2-2.8,13.8,17.5.2,13.8-7.6-1.9-6.9-12.2-.2-13.8Z"/>
      <circle class="st0" cx="404.9" cy="86.4" r="7.5"/>
      <circle class="st0" cx="253.9" cy="66.7" r="7.5"/>
      <circle class="st0" cx="329.8" cy="439" r="7.5"/>
      <circle class="st0" cx="235.1" cy="105.8" r="7.5"/>
      <circle class="st0" cx="405.2" cy="477.7" r="7.5"/>
      <path class="st0" d="M477.3.6c10.1-3,14.2,12,5.7,14.9-10.1,3.3-12.9-12.8-5.7-14.9Z"/>
      <circle class="st0" cx="291.8" cy="242.9" r="7.5"/>
      <path class="st0" d="M251,274.8c10-3,13.8,9.7,6.5,13.8-10.1,5.6-14.6-11.4-6.5-13.8Z"/>
      <circle class="st0" cx="216" cy="183.9" r="7.5"/>
      <circle class="st0" cx="197" cy="184.2" r="7.5"/>
      <path class="st0" d="M342.9,13.8c-6.1-5.5,2-18.7,10.2-11.6,8.1,7.1-3.6,17.6-10.2,11.6Z"/>
      <path class="st0" d="M439.3,530c13.4-3.9,14,11.3,5.7,13.9-9.7,3-12.2-12.1-5.7-13.9Z"/>
      <circle class="st0" cx="348.9" cy="575.9" r="7.5"/>
      <circle class="st0" cx="348.6" cy="614.6" r="7.5"/>
      <path class="st0" d="M191,110.6c-6.7-8.2,7.6-16.8,12.5-9.3,5.4,8.5-6.7,16.4-12.5,9.3Z"/>
      <path class="st0" d="M380.9,562.1c-5.5-4.4.5-18.4,9.3-12.4,9.5,6.4-2,18.2-9.3,12.4Z"/>
      <circle class="st0" cx="330.1" cy="595.1" r="7.5"/>
      <circle class="st0" cx="329.7" cy="7.8" r="7.5"/>
      <circle class="st0" cx="158.5" cy="66.9" r="7.5"/>
      <circle class="st0" cx="310.9" cy="242.8" r="7.5"/>
      <circle class="st0" cx="197.2" cy="223" r="7.5"/>
      <path class="st0" d="M251.1,254.9c10-3,13.9,11.4,5.3,14.4-10.9,3.7-12.5-12.3-5.3-14.4h0Z"/>
      <circle class="st0" cx="272.9" cy="86.5" r="7.5"/>
      <circle class="st0" cx="273" cy="105.8" r="7.5"/>
      <path class="st0" d="M184.1,296.6c3.1,3.4,1.2,11.1-4,12.2-11.7,2.7-12.2-14.4-2.5-14.4s5.5,1.1,6.5,2.2h0Z"/>
      <circle class="st0" cx="235.1" cy="301.6" r="7.5"/>
      <circle class="st0" cx="235.2" cy="164.4" r="7.5"/>
      <circle class="st0" cx="235" cy="27.6" r="7.4"/>
      <circle class="st0" cx="254.1" cy="47" r="7.5" transform="translate(129.3 273.3) rotate(-71.6)"/>
      <circle class="st0" cx="216.2" cy="301.7" r="7.4"/>
      <circle class="st0" cx="424.1" cy="66.6" r="7.4"/>
      <circle class="st0" cx="178.1" cy="262.1" r="7.5"/>
      <circle class="st0" cx="424.3" cy="536.4" r="7.4"/>
      <circle class="st0" cx="216" cy="164.4" r="7.5"/>
      <circle class="st0" cx="253.9" cy="301.6" r="7.5"/>
      <circle class="st0" cx="348.6" cy="516.8" r="7.4"/>
      <path class="st0" d="M289.1,392.4c12.8-3.8,13.7,16.5.9,14.1-8.5-1.6-6-12.6-.9-14.1Z"/>
      <path class="st0" d="M324,248.1c-6.3-7.8,5.4-17.7,11.5-10.2,6.8,8.5-6.3,16.6-11.5,10.2Z"/>
      <circle class="st0" cx="254" cy="320.7" r="7.4"/>
      <circle class="st0" cx="329.9" cy="497.1" r="7.5"/>
      <path class="st0" d="M515.3,138.2c12.6-2.9,12.6,12.6,4.1,14.1-9.1,1.7-12.8-12.2-4.1-14.1Z"/>
      <circle class="st0" cx="215.9" cy="320.9" r="7.4"/>
      <circle class="st0" cx="518.1" cy="105.7" r="7.4" transform="translate(191.8 521.8) rotate(-63.4)"/>
      <circle class="st0" cx="291.7" cy="105.8" r="7.4"/>
      <circle class="st0" cx="367.2" cy="575.8" r="7.4"/>
      <circle class="st0" cx="480.2" cy="125.3" r="7.4"/>
      <path class="st0" d="M383.2,118.3c11.2-3.3,14,11.9,4.1,14.1-10.6,2.3-10.7-12.2-4.1-14.1Z"/>
      <circle class="st0" cx="235.2" cy="184" r="7.4"/>
      <circle class="st0" cx="367.4" cy="536.4" r="7.4"/>
      <circle class="st0" cx="405.2" cy="458.3" r="7.4"/>
      <circle class="st0" cx="499.4" cy="47.2" r="7.4"/>
      <path class="st0" d="M442,451.2c9.9-1.5,10.8,12.3,3.2,14.1-11.9,2.8-12.6-12.7-3.2-14.1Z"/>
      <circle class="st0" cx="461.4" cy="66.7" r="7.4"/>
      <circle class="st0" cx="215.9" cy="105.7" r="7.4"/>
      <path class="st0" d="M437,150.4c-4.6-4.9.9-17.1,10.2-11.6,9.1,5.4-2.9,19.3-10.2,11.6Z"/>
      <circle class="st0" cx="329.7" cy="203.3" r="7.4"/>
      <path class="st0" d="M361.9,256.7c.9-.8,6-2.1,7.3-1.9,5.8.9,7.1,10,2.9,13.4-7.2,6-16.6-5.6-10.2-11.5h0Z"/>
      <path class="st0" d="M328,216c10-2.3,12.3,11.5,4.8,13.9-12.1,3.8-13-12-4.8-13.9Z"/>
      <path class="st0" d="M345.1,647.6c11.9-3.6,14.6,11.1,5.7,13.9-10,3.1-12.2-12-5.7-13.9Z"/>
      <circle class="st0" cx="159" cy="86.4" r="7.4"/>
      <circle class="st0" cx="197.1" cy="203.3" r="7.4"/>
      <path class="st0" d="M290.9,20.5c9.3-1.4,11.3,12.2,3.2,14.1-12.1,2.8-12.2-12.8-3.2-14.1Z"/>
      <circle class="st0" cx="273" cy="145.1" r="7.4"/>
      <circle class="st0" cx="253.9" cy="183.9" r="7.4"/>
      <circle class="st0" cx="178.1" cy="282" r="7.4"/>
      <path class="st0" d="M466.4,1.6c6.5,5.4-.9,18-9.3,12.4-8.6-5.7,2.7-17.9,9.3-12.4Z"/>
      <circle class="st0" cx="311" cy="164.3" r="7.4"/>
      <path class="st0" d="M81,177.1c14-3.1,13.1,17.3-.9,13.2-6-1.8-5.7-11.7.9-13.2Z"/>
      <circle class="st0" cx="310.9" cy="124.9" r="7.4"/>
      <circle class="st0" cx="273.1" cy="301.6" r="7.4"/>
      <circle class="st0" cx="518.4" cy="86.5" r="7.4" transform="translate(209.1 511.4) rotate(-63.4)"/>
      <circle class="st0" cx="311" cy="458.3" r="7.4"/>
      <circle class="st0" cx="235" cy="145.2" r="7.4"/>
      <circle class="st0" cx="254" cy="145.2" r="7.4"/>
      <circle class="st0" cx="26.9" cy="164.6" r="7.4"/>
      <circle class="st0" cx="443.2" cy="164.3" r="7.4"/>
      <circle class="st0" cx="45.3" cy="203.5" r="7.4"/>
      <circle class="st0" cx="235.3" cy="203.6" r="7.4"/>
      <circle class="st0" cx="292" cy="262" r="7.4"/>
      <circle class="st0" cx="216.1" cy="223.2" r="7.4"/>
      <path class="st0" d="M179.4,196.3c8.7.7,8,15-1.5,14.5-9.9-.6-10-15.4,1.5-14.5Z"/>
      <circle class="st0" cx="311.1" cy="301.8" r="7.4"/>
      <path class="st0" d="M346.1,235.9c14-4.2,12.2,19.1-.4,13.6-5.9-2.6-5.7-11.8.4-13.6Z"/>
      <circle class="st0" cx="254" cy="242.9" r="7.4"/>
      <circle class="st0" cx="292" cy="419.3" r="7.4"/>
      <circle class="st0" cx="461.6" cy="517" r="7.4"/>
      <circle class="st0" cx="499.2" cy="27.8" r="7.4"/>
      <circle class="st0" cx="424" cy="47.1" r="7.4"/>
      <circle class="st0" cx="254" cy="86.3" r="7.4"/>
      <circle class="st0" cx="424.2" cy="105.8" r="7.4"/>
      <circle class="st0" cx="102.4" cy="125.1" r="7.4"/>
      <circle class="st0" cx="215.9" cy="360.2" r="7.4"/>
      <circle class="st0" cx="499.2" cy="66.5" r="7.4"/>
      <path class="st0" d="M345.2,667.5c15.4-4.5,13,18.3.7,13.4-5.9-2.3-5.5-12-.7-13.4Z"/>
      <circle class="st0" cx="254" cy="223" r="7.4"/>
      <circle class="st0" cx="159" cy="301.6" r="7.4"/>
      <circle class="st0" cx="443" cy="86.4" r="7.4"/>
      <circle class="st0" cx="177.9" cy="144.9" r="7.4"/>
      <path class="st0" d="M42.9,138.2c13.1-4,12.6,15.9,1.9,14.1-8.5-1.4-8.7-12.1-1.9-14.1Z"/>
      <circle class="st0" cx="405" cy="125.3" r="7.4"/>
      <path class="st0" d="M421.2,549c11.2-2.5,11.6,11.2,6.4,13.6-11.6,5.3-14.4-11.8-6.4-13.6Z"/>
      <circle class="st0" cx="273" cy="242.9" r="7.4"/>
      <circle class="st0" cx="386.4" cy="47.1" r="7.4"/>
      <circle class="st0" cx="424.1" cy="145.1" r="7.3"/>
      <circle class="st0" cx="405.3" cy="439.2" r="7.4"/>
      <circle class="st0" cx="499.3" cy="86.4" r="7.3"/>
      <circle class="st0" cx="235.1" cy="360.1" r="7.4"/>
      <path class="st0" d="M292.8,332.7c7.2-.1,9,12.1,2.3,14.1-11.7,3.5-15.2-13.8-2.3-14.1Z"/>
      <path class="st0" d="M400,569.9c5.2-5.3,16.2.8,11.5,9.2-5,8.9-19.6-1-11.5-9.2Z"/>
      <circle class="st0" cx="443.1" cy="516.9" r="7.4"/>
      <path class="st0" d="M364.2,40.4c12.2-3.6,13.7,12.5,4.1,14.1-8.3,1.4-11.5-11.9-4.1-14.1Z"/>
      <path class="st0" d="M232,235.9c11.5-3.4,13.9,12.1,4.1,14.1-9.7,2.1-10.4-12.2-4.1-14.1Z"/>
      <path class="st0" d="M495,100.3c7.3-5.9,14.9,3.4,9.6,10.1-7,9.1-18.3-3.1-9.6-10.1Z"/>
      <circle class="st0" cx="178.1" cy="105.9" r="7.3"/>
      <path class="st0" d="M365.1,587.8c10-3,13.4,13.1,3,14.8-9.1,1.6-10.1-12.6-3-14.8Z"/>
      <circle class="st0" cx="424.3" cy="164.3" r="7.3"/>
      <circle class="st0" cx="235.1" cy="340.5" r="7.3"/>
      <path class="st0" d="M366.9,490.1c10-1.3,10.3,14,.5,14.9-9.2,1-9.4-13.7-.5-14.9Z"/>
      <path class="st0" d="M31.2,139.2c8.5,6.7-2.3,18.8-9.6,11-6.1-6.6,2.8-16.4,9.6-11Z"/>
      <path class="st0" d="M285.9,228.2c-5.7-6,4.6-17.3,11.6-10.2,7.2,7.4-5.4,16.8-11.6,10.2Z"/>
      <circle class="st0" cx="461.6" cy="106" r="7.3"/>
      <circle class="st0" cx="367.8" cy="223" r="7.3"/>
      <circle class="st0" cx="442.8" cy="66.5" r="7.3"/>
      <circle class="st0" cx="348.4" cy="47.5" r="7.3"/>
      <path class="st0" d="M405.8,39.5c4.7-.5,9.2,8.1,3.9,13-9.8,9-18.7-11.5-3.9-13Z"/>
      <path class="st0" d="M515.3,40.5c15.4-3.6,11.5,16.2,1.3,13.7-7-1.8-7.9-12.2-1.3-13.7Z"/>
      <path class="st0" d="M273.6,313.7c8.5-.3,10.2,15.1-1,14.3-9.8-.7-8.7-14,1-14.3Z"/>
      <path class="st0" d="M362.9,549.9c4.6-3.7,13.2,1.2,12,7-1.9,9-16.1,9.5-14-3.1.1-1,1.3-3.3,2-3.9Z"/>
      <circle class="st0" cx="367.4" cy="614.8" r="7.3"/>
      <circle class="st0" cx="385.8" cy="223" r="7.3"/>
      <circle class="st0" cx="311" cy="439.1" r="7.3"/>
      <path class="st0" d="M252.9,157.1c9-2.2,12.1,12.9,2.4,14.3-11.4,1.7-10.4-12.3-2.4-14.3Z"/>
      <circle class="st0" cx="461.7" cy="458.4" r="7.3"/>
      <circle class="st0" cx="461.4" cy="47.3" r="7.3"/>
      <circle class="st0" cx="423.9" cy="184" r="7.3"/>
      <circle class="st0" cx="235.2" cy="223.2" r="7.3"/>
      <circle class="st0" cx="273" cy="203.9" r="7.3"/>
      <circle class="st0" cx="178" cy="223" r="7.3"/>
      <path class="st0" d="M326.1,40.4c13.8-4.2,14.3,15.4,2,13.8-7.5-.9-6.5-12.4-2-13.8Z"/>
      <circle class="st0" cx="461.5" cy="86.3" r="7.3"/>
      <circle class="st0" cx="64.2" cy="106.2" r="7.3"/>
      <circle class="st0" cx="442.9" cy="497.4" r="7.3"/>
      <path class="st0" d="M354.1,23.4c9.8,9.6-14.1,19-12.4,2.8.7-6.5,8.4-6.8,12.4-2.8Z"/>
      <circle class="st0" cx="311" cy="183.9" r="7.3"/>
      <path class="st0" d="M380.9,236.8c1.3-1.3,5.6-1.5,7.4-1.1,7,1.3,5.2,17.4-5.2,14.3-5-1.5-5.5-10.1-2.2-13.2h0Z"/>
      <circle class="st0" cx="216" cy="340.4" r="7.3"/>
      <path class="st0" d="M100.9,157.1c10.8-2.2,12,15.8.8,14.3-8.8-1.1-8.1-12.8-.8-14.3Z"/>
      <circle class="st0" cx="311.2" cy="477.9" r="7.2"/>
      <circle class="st1" cx="235.1" cy="262.1" r="7.2"/>
      <circle class="st0" cx="45.4" cy="125.3" r="7.2"/>
      <path class="st0" d="M408.2,522.9c-.4.3-.1,1.5-1.7,1.5-6.5,0-11.2-6.5-6.7-12.2,6.4-8,19.8,3,8.4,10.7h0Z"/>
      <circle class="st0" cx="386" cy="595.6" r="7.2"/>
      <circle class="st0" cx="499.3" cy="125.4" r="7.2"/>
      <path class="st0" d="M308.1,99.3c11.8-3.5,12.2,12.7,4.1,14.1-9.3,1.7-11.4-12-4.1-14.1Z"/>
      <circle class="st0" cx="273" cy="223.2" r="7.2"/>
      <path class="st0" d="M42.9,177.1c12.6-3.8,11.8,18.9-.4,13.6-7-3.1-4.8-12.1.4-13.6Z"/>
      <circle class="st0" cx="292" cy="125" r="7.2"/>
      <path class="st0" d="M25.8,177c6.9-1.5,12.8,10.1,4.4,13.5-11.5,4.6-13.9-11.4-4.4-13.5Z"/>
      <path class="st0" d="M286,140c5.5-6.8,17.7,2.2,10.6,10.2-6.3,7.1-16.2-3.3-10.6-10.2Z"/>
      <path class="st0" d="M422.1,79.4c12.9-2.9,12.1,17.5-1.6,13-5.7-1.9-4.5-11.7,1.6-13Z"/>
      <circle class="st0" cx="254.2" cy="203.5" r="7.2"/>
      <path class="st0" d="M51.1,169.4c-6.4,6.2-18.7-2.9-10.3-10.3,7.8-7,15.6,5.2,10.3,10.3Z"/>
      <circle class="st0" cx="27" cy="203.5" r="7.2"/>
      <path class="st0" d="M328,118.3c13.8-3,9.4,19.8-1.5,12.9-5.9-3.8-4.8-11.6,1.5-12.9Z"/>
      <path class="st0" d="M329.6,59.7c4.9-.2,9.5,5.5,6.8,10-5,8.6-18,2-12.2-6.8,1.2-1.8,3.2-3.1,5.4-3.2h0Z"/>
    </g>
  </g>
</svg>